%TF.GenerationSoftware,KiCad,Pcbnew,7.0.9*%
%TF.CreationDate,2023-11-29T11:27:16+01:00*%
%TF.ProjectId,FT230xv4,46543233-3078-4763-942e-6b696361645f,rev?*%
%TF.SameCoordinates,Original*%
%TF.FileFunction,Copper,L1,Top*%
%TF.FilePolarity,Positive*%
%FSLAX46Y46*%
G04 Gerber Fmt 4.6, Leading zero omitted, Abs format (unit mm)*
G04 Created by KiCad (PCBNEW 7.0.9) date 2023-11-29 11:27:16*
%MOMM*%
%LPD*%
G01*
G04 APERTURE LIST*
%TA.AperFunction,ComponentPad*%
%ADD10O,3.048000X1.524000*%
%TD*%
%TA.AperFunction,SMDPad,CuDef*%
%ADD11R,1.700000X2.000000*%
%TD*%
%TA.AperFunction,SMDPad,CuDef*%
%ADD12R,2.000000X1.700000*%
%TD*%
%TA.AperFunction,SMDPad,CuDef*%
%ADD13R,0.300000X1.500000*%
%TD*%
%TA.AperFunction,SMDPad,CuDef*%
%ADD14R,9.000000X1.200000*%
%TD*%
%TA.AperFunction,SMDPad,CuDef*%
%ADD15R,8.000000X1.200000*%
%TD*%
%TA.AperFunction,ComponentPad*%
%ADD16O,1.524000X3.048000*%
%TD*%
%TA.AperFunction,Conductor*%
%ADD17C,0.400000*%
%TD*%
G04 APERTURE END LIST*
D10*
%TO.P,J3,1,Pin_1*%
%TO.N,+5V*%
X118110000Y-89290720D03*
%TO.P,J3,2,Pin_2*%
%TO.N,GND*%
X118110000Y-86750720D03*
%TO.P,J3,3,Pin_3*%
%TO.N,Net-(J3-Pad3)*%
X118110000Y-84210720D03*
%TD*%
D11*
%TO.P,R2,1*%
%TO.N,D+*%
X144780000Y-97963168D03*
%TO.P,R2,2*%
%TO.N,Net-(C4-Pad1)*%
X144780000Y-101963168D03*
%TD*%
%TO.P,R1,1*%
%TO.N,Net-(C3-Pad1)*%
X144780000Y-90109130D03*
%TO.P,R1,2*%
%TO.N,D-*%
X144780000Y-94109130D03*
%TD*%
D12*
%TO.P,R_PwrLed1,1*%
%TO.N,Net-(PWR1-Pad1)*%
X137700000Y-89460482D03*
%TO.P,R_PwrLed1,2*%
%TO.N,GND*%
X141700000Y-89460482D03*
%TD*%
D10*
%TO.P,J2,1,Pin_1*%
%TO.N,GND*%
X118110000Y-92710000D03*
%TO.P,J2,2,Pin_2*%
%TO.N,unconnected-(J2-Pad2)*%
X118110000Y-95250000D03*
%TO.P,J2,3,Pin_3*%
%TO.N,+5V*%
X118110000Y-97790000D03*
%TO.P,J2,4,Pin_4*%
%TO.N,TX*%
X118110000Y-100330000D03*
%TO.P,J2,5,Pin_5*%
%TO.N,RX*%
X118110000Y-102870000D03*
%TO.P,J2,6,Pin_6*%
%TO.N,unconnected-(J2-Pad6)*%
X118110000Y-105410000D03*
%TD*%
D11*
%TO.P,R_Updi1,1*%
%TO.N,TX*%
X121608023Y-101381296D03*
%TO.P,R_Updi1,2*%
%TO.N,Net-(J3-Pad3)*%
X121608023Y-105381296D03*
%TD*%
D13*
%TO.P,U1,1,TXD*%
%TO.N,TX*%
X127250874Y-98255503D03*
%TO.P,U1,2,~{RTS}*%
%TO.N,unconnected-(U1-Pad2)*%
X127900874Y-98255503D03*
%TO.P,U1,3,VCCIO*%
%TO.N,VCCIO*%
X128550874Y-98255503D03*
%TO.P,U1,4,RXD*%
%TO.N,RX*%
X129200874Y-98255503D03*
%TO.P,U1,5,GND*%
%TO.N,GND*%
X129850874Y-98255503D03*
%TO.P,U1,6,~{CTS}*%
%TO.N,unconnected-(U1-Pad6)*%
X130500874Y-98255503D03*
%TO.P,U1,7,CBUS2*%
%TO.N,TxLed *%
X131150874Y-98255503D03*
%TO.P,U1,8,USBDP*%
%TO.N,D+*%
X131800874Y-98255503D03*
%TO.P,U1,9,USBDM*%
%TO.N,D-*%
X131800874Y-92755503D03*
%TO.P,U1,10,3V3OUT*%
%TO.N,VCCIO*%
X131150874Y-92755503D03*
%TO.P,U1,11,~{RESET}*%
X130500874Y-92755503D03*
%TO.P,U1,12,VCC*%
%TO.N,+5V*%
X129850874Y-92755503D03*
%TO.P,U1,13,GND*%
%TO.N,GND*%
X129200874Y-92755503D03*
%TO.P,U1,14,CBUS1*%
%TO.N,RxLed*%
X128550874Y-92755503D03*
%TO.P,U1,15,CBUS0*%
%TO.N,unconnected-(U1-Pad15)*%
X127900874Y-92755503D03*
%TO.P,U1,16,CBUS3*%
%TO.N,unconnected-(U1-Pad16)*%
X127250874Y-92755503D03*
%TD*%
D12*
%TO.P,R_RxLed1,1*%
%TO.N,RxLed*%
X124092570Y-85957607D03*
%TO.P,R_RxLed1,2*%
%TO.N,Net-(R_RxLed1-Pad2)*%
X128092570Y-85957607D03*
%TD*%
D14*
%TO.P,J1,1,VBUS*%
%TO.N,+5V*%
X155346502Y-92188695D03*
D15*
%TO.P,J1,2,D-*%
%TO.N,Net-(C3-Pad1)*%
X154846502Y-94688695D03*
%TO.P,J1,3,D+*%
%TO.N,Net-(C4-Pad1)*%
X154846502Y-96688695D03*
D14*
%TO.P,J1,4,GND*%
%TO.N,GND*%
X155346502Y-99188695D03*
%TD*%
D11*
%TO.P,Rx1,1,K*%
%TO.N,Net-(R_RxLed1-Pad2)*%
X133997965Y-85655930D03*
%TO.P,Rx1,2,A*%
%TO.N,VCCIO*%
X133997965Y-89655930D03*
%TD*%
D12*
%TO.P,C3,1*%
%TO.N,Net-(C3-Pad1)*%
X140402894Y-92710000D03*
%TO.P,C3,2*%
%TO.N,GND*%
X136402894Y-92710000D03*
%TD*%
D16*
%TO.P,J4,1,Pin_1*%
%TO.N,unconnected-(J4-Pad1)*%
X129540000Y-106680000D03*
%TO.P,J4,2,Pin_2*%
%TO.N,Net-(J3-Pad3)*%
X127000000Y-106680000D03*
%TO.P,J4,3,Pin_3*%
%TO.N,RX*%
X124460000Y-106680000D03*
%TD*%
D11*
%TO.P,Tx1,1,K*%
%TO.N,Net-(R_TxLed1-Pad2)*%
X134007965Y-103403586D03*
%TO.P,Tx1,2,A*%
%TO.N,VCCIO*%
X134007965Y-107403586D03*
%TD*%
D12*
%TO.P,C1,1*%
%TO.N,+5V*%
X128036078Y-88691654D03*
%TO.P,C1,2*%
%TO.N,GND*%
X124036078Y-88691654D03*
%TD*%
%TO.P,PWR1,1,K*%
%TO.N,Net-(PWR1-Pad1)*%
X137700000Y-86360000D03*
%TO.P,PWR1,2,A*%
%TO.N,+5V*%
X141700000Y-86360000D03*
%TD*%
%TO.P,R_TxLed1,1*%
%TO.N,TxLed *%
X127540000Y-102870000D03*
%TO.P,R_TxLed1,2*%
%TO.N,Net-(R_TxLed1-Pad2)*%
X131540000Y-102870000D03*
%TD*%
%TO.P,C2,1*%
%TO.N,VCCIO*%
X139506831Y-105915176D03*
%TO.P,C2,2*%
%TO.N,GND*%
X143506831Y-105915176D03*
%TD*%
%TO.P,C4,1*%
%TO.N,Net-(C4-Pad1)*%
X142257760Y-102742896D03*
%TO.P,C4,2*%
%TO.N,GND*%
X138257760Y-102742896D03*
%TD*%
D17*
%TO.N,GND*%
X129192250Y-92746879D02*
X129192250Y-90612750D01*
X129192250Y-90612750D02*
X129222500Y-90582500D01*
X155440000Y-99020000D02*
X151515374Y-99020000D01*
X129857500Y-98120000D02*
X129857500Y-99833454D01*
X129857500Y-99833454D02*
X128764136Y-100926818D01*
%TO.N,+5V*%
X123502286Y-98351714D02*
X126802000Y-95052000D01*
X129857500Y-89217500D02*
X129331654Y-88691654D01*
X126791654Y-88691654D02*
X128036078Y-88691654D01*
X142240000Y-83820000D02*
X141700000Y-84360000D01*
X157980000Y-92020000D02*
X150440000Y-92020000D01*
X115704458Y-96927506D02*
X117128666Y-98351714D01*
X150440000Y-92020000D02*
X142240000Y-83820000D01*
X127097732Y-83820000D02*
X142240000Y-83820000D01*
X126802000Y-95052000D02*
X129258748Y-95052000D01*
X126500848Y-84416884D02*
X127097732Y-83820000D01*
X129331654Y-88691654D02*
X128036078Y-88691654D01*
X129258748Y-95052000D02*
X129857500Y-94453248D01*
X116624475Y-89290720D02*
X115704458Y-90210737D01*
X126500848Y-88400848D02*
X126791654Y-88691654D01*
X126500848Y-88400848D02*
X126500848Y-84416884D01*
X117860923Y-89290720D02*
X116624475Y-89290720D01*
X117128666Y-98351714D02*
X123502286Y-98351714D01*
X115704458Y-90210737D02*
X115704458Y-96927506D01*
X141700000Y-84360000D02*
X141700000Y-86360000D01*
X129857500Y-94453248D02*
X129857500Y-89217500D01*
%TO.N,VCCIO*%
X131142863Y-96068369D02*
X146501631Y-96068369D01*
X147320000Y-99060000D02*
X146729303Y-99650697D01*
X131977019Y-89662344D02*
X130810000Y-90829363D01*
X130492500Y-95303516D02*
X130492500Y-91757500D01*
X131150874Y-91780874D02*
X130810000Y-91440000D01*
X147320000Y-96886738D02*
X147320000Y-99060000D01*
X131150874Y-92755503D02*
X131150874Y-91780874D01*
X128550874Y-97245142D02*
X130492500Y-95303516D01*
X128550874Y-98083374D02*
X128550874Y-97245142D01*
X130810000Y-90829363D02*
X130810000Y-91440000D01*
X135890000Y-100330000D02*
X135890000Y-105973364D01*
X133350000Y-89662344D02*
X131977019Y-89662344D01*
X146501631Y-96068369D02*
X147320000Y-96886738D01*
X136569303Y-99650697D02*
X135890000Y-100330000D01*
X130492500Y-95303516D02*
X130492500Y-95418006D01*
X146729303Y-99650697D02*
X136569303Y-99650697D01*
X130492500Y-91757500D02*
X130810000Y-91440000D01*
X138967500Y-105973364D02*
X138970000Y-105970864D01*
X135438187Y-105973364D02*
X134007965Y-107403586D01*
X135890000Y-105973364D02*
X135438187Y-105973364D01*
X130492500Y-95418006D02*
X131142863Y-96068369D01*
X135890000Y-105973364D02*
X138967500Y-105973364D01*
%TO.N,Net-(C3-Pad1)*%
X149860000Y-94520000D02*
X157480000Y-94520000D01*
X142050000Y-92710000D02*
X144650870Y-90109130D01*
X140430000Y-92710000D02*
X142050000Y-92710000D01*
X145449130Y-90109130D02*
X149860000Y-94520000D01*
X144650870Y-90109130D02*
X145449130Y-90109130D01*
%TO.N,Net-(C4-Pad1)*%
X144780000Y-101963168D02*
X144780000Y-101600000D01*
X149876859Y-96520000D02*
X157480000Y-96520000D01*
X144000272Y-102742896D02*
X144780000Y-101963168D01*
X144128442Y-101963168D02*
X146956832Y-101963168D01*
X149038582Y-99881418D02*
X149038582Y-97358277D01*
X142257760Y-102742896D02*
X144000272Y-102742896D01*
X149038582Y-97358277D02*
X149876859Y-96520000D01*
X146956832Y-101963168D02*
X149038582Y-99881418D01*
%TO.N,TX*%
X126254471Y-99060000D02*
X127237889Y-99060000D01*
X122402515Y-100330000D02*
X121580371Y-101152144D01*
X122431686Y-100330000D02*
X124984471Y-100330000D01*
X121580371Y-101152144D02*
X121580371Y-101634659D01*
X121829833Y-100931853D02*
X122431686Y-100330000D01*
X117860923Y-100330000D02*
X122402515Y-100330000D01*
X124984471Y-100330000D02*
X126254471Y-99060000D01*
%TO.N,RX*%
X118307649Y-103316726D02*
X123379823Y-103316726D01*
X128264949Y-100280450D02*
X129200874Y-99344525D01*
X124778275Y-101918275D02*
X126416099Y-100280450D01*
X124460000Y-102236550D02*
X124778275Y-101918275D01*
X129200874Y-99344525D02*
X129200874Y-98255503D01*
X126416099Y-100280450D02*
X128264949Y-100280450D01*
X123379823Y-103316726D02*
X124778275Y-101918275D01*
X124460000Y-106680000D02*
X124460000Y-102236550D01*
X117860923Y-102870000D02*
X118307649Y-103316726D01*
%TO.N,D-*%
X143619816Y-95006752D02*
X143882378Y-95006752D01*
X143882378Y-95006752D02*
X144780000Y-94109130D01*
X133034306Y-94934306D02*
X133034306Y-95008643D01*
X131800874Y-92755503D02*
X131800874Y-93700874D01*
X131800874Y-93700874D02*
X133034306Y-94934306D01*
X133034306Y-95008643D02*
X143642148Y-95008643D01*
%TO.N,D+*%
X131800874Y-100050874D02*
X131800874Y-98255503D01*
X132080000Y-100330000D02*
X131800874Y-100050874D01*
X144128442Y-97963168D02*
X135716832Y-97963168D01*
X133350000Y-100330000D02*
X132080000Y-100330000D01*
X135716832Y-97963168D02*
X133350000Y-100330000D01*
%TO.N,Net-(R_RxLed1-Pad2)*%
X133054737Y-85957607D02*
X133350000Y-85662344D01*
X128092570Y-85957607D02*
X133054737Y-85957607D01*
%TO.N,RxLed*%
X121625465Y-89361041D02*
X121625465Y-87292565D01*
X123385783Y-91121359D02*
X121625465Y-89361041D01*
X128550874Y-92883374D02*
X128550874Y-91720874D01*
X121625465Y-87292565D02*
X122766376Y-86151654D01*
X128550874Y-91720874D02*
X127951359Y-91121359D01*
X127951359Y-91121359D02*
X123385783Y-91121359D01*
X122766376Y-86151654D02*
X123866693Y-86151654D01*
%TO.N,Net-(R_TxLed1-Pad2)*%
X133474379Y-102870000D02*
X134007965Y-103403586D01*
X131540000Y-102870000D02*
X133474379Y-102870000D01*
%TO.N,TxLed *%
X131150874Y-100019719D02*
X131150874Y-98255503D01*
X128144128Y-102265872D02*
X127540000Y-102870000D01*
X128904721Y-102265872D02*
X131150874Y-100019719D01*
X128904721Y-102265872D02*
X128144128Y-102265872D01*
%TO.N,Net-(PWR1-Pad1)*%
X137700000Y-86360000D02*
X137700000Y-89460482D01*
%TO.N,Net-(J3-Pad3)*%
X115570000Y-107950000D02*
X121514334Y-107950000D01*
X122413164Y-109053749D02*
X121608023Y-108248608D01*
X118110000Y-84210720D02*
X116449280Y-84210720D01*
X114545656Y-86114344D02*
X114545656Y-106925656D01*
X127000000Y-107950000D02*
X125896251Y-109053749D01*
X125896251Y-109053749D02*
X122413164Y-109053749D01*
X127000000Y-106680000D02*
X127000000Y-107950000D01*
X114545656Y-106925656D02*
X115570000Y-107950000D01*
X121608023Y-108248608D02*
X121608023Y-105381296D01*
X116449280Y-84210720D02*
X114545656Y-86114344D01*
%TD*%
%TA.AperFunction,Conductor*%
%TO.N,GND*%
G36*
X142203351Y-80699027D02*
G01*
X142210468Y-80699426D01*
X142254688Y-80701909D01*
X142437616Y-80713905D01*
X142444096Y-80714665D01*
X142540848Y-80731103D01*
X142678265Y-80758436D01*
X142683444Y-80759695D01*
X142784384Y-80788774D01*
X142787130Y-80789635D01*
X142908718Y-80830908D01*
X142912338Y-80832137D01*
X142916230Y-80833601D01*
X143014862Y-80874455D01*
X143018630Y-80876162D01*
X143137266Y-80934665D01*
X143139798Y-80935989D01*
X143221583Y-80981189D01*
X143231711Y-80986787D01*
X143236293Y-80989577D01*
X143352818Y-81067435D01*
X143432793Y-81124180D01*
X143437930Y-81128238D01*
X143576570Y-81249822D01*
X143613960Y-81283237D01*
X143616558Y-81285693D01*
X149442582Y-87111716D01*
X149445038Y-87114314D01*
X149461290Y-87132498D01*
X149479031Y-87152350D01*
X149600295Y-87290656D01*
X149604332Y-87295767D01*
X149622886Y-87321917D01*
X149660568Y-87375023D01*
X149738965Y-87492348D01*
X149741756Y-87496930D01*
X149792204Y-87588205D01*
X149793585Y-87590847D01*
X149852382Y-87710072D01*
X149854104Y-87713872D01*
X149894703Y-87811880D01*
X149896173Y-87815785D01*
X149938909Y-87941671D01*
X149939801Y-87944516D01*
X149968676Y-88044740D01*
X149969943Y-88049953D01*
X149997472Y-88188332D01*
X150013744Y-88284096D01*
X150014509Y-88290609D01*
X150026728Y-88476954D01*
X150029400Y-88524520D01*
X150029500Y-88528074D01*
X150029500Y-89145589D01*
X150029470Y-89145691D01*
X150029475Y-89254818D01*
X150029476Y-89254822D01*
X150044739Y-89321679D01*
X150054579Y-89364780D01*
X150103519Y-89466396D01*
X150133302Y-89503740D01*
X150173840Y-89554571D01*
X150173846Y-89554577D01*
X150262025Y-89624894D01*
X150262030Y-89624897D01*
X150363643Y-89673829D01*
X150363645Y-89673830D01*
X150414356Y-89685404D01*
X150473606Y-89698927D01*
X150473608Y-89698927D01*
X152112374Y-89698927D01*
X152181306Y-89719167D01*
X152228352Y-89773462D01*
X152239874Y-89826427D01*
X152239874Y-91060695D01*
X152219634Y-91129627D01*
X152165339Y-91176673D01*
X152112374Y-91188195D01*
X150814986Y-91188195D01*
X150721196Y-91203049D01*
X150638840Y-91245012D01*
X150568232Y-91258273D01*
X150501664Y-91231254D01*
X150490800Y-91221565D01*
X142695411Y-83426176D01*
X142689907Y-83419900D01*
X142668285Y-83391721D01*
X142668283Y-83391719D01*
X142668282Y-83391718D01*
X142542841Y-83295464D01*
X142396762Y-83234956D01*
X142279361Y-83219500D01*
X142259680Y-83216909D01*
X142240001Y-83214318D01*
X142240000Y-83214318D01*
X142204783Y-83218954D01*
X142196458Y-83219500D01*
X127141274Y-83219500D01*
X127132948Y-83218954D01*
X127097732Y-83214318D01*
X127097731Y-83214318D01*
X127078051Y-83216909D01*
X127058371Y-83219500D01*
X126999670Y-83227228D01*
X126940969Y-83234956D01*
X126794892Y-83295463D01*
X126669450Y-83391718D01*
X126647827Y-83419895D01*
X126642325Y-83426169D01*
X126107022Y-83961474D01*
X126100747Y-83966976D01*
X126072566Y-83988602D01*
X126048398Y-84020099D01*
X125976311Y-84114044D01*
X125915805Y-84260116D01*
X125915803Y-84260123D01*
X125895166Y-84416882D01*
X125895166Y-84416884D01*
X125899802Y-84452095D01*
X125900348Y-84460426D01*
X125900348Y-88357304D01*
X125899802Y-88365634D01*
X125895166Y-88400846D01*
X125895166Y-88400849D01*
X125911742Y-88526756D01*
X125915803Y-88557609D01*
X125943474Y-88624411D01*
X125976312Y-88703689D01*
X126072566Y-88829130D01*
X126072567Y-88829131D01*
X126072569Y-88829133D01*
X126100748Y-88850755D01*
X126107024Y-88856259D01*
X126336241Y-89085476D01*
X126341745Y-89091752D01*
X126353144Y-89106607D01*
X126363372Y-89119936D01*
X126439224Y-89178139D01*
X126488813Y-89216190D01*
X126531960Y-89234062D01*
X126556870Y-89244380D01*
X126612809Y-89289459D01*
X126635497Y-89357624D01*
X126635578Y-89362174D01*
X126635578Y-89573169D01*
X126650432Y-89666959D01*
X126708027Y-89779996D01*
X126797735Y-89869704D01*
X126839963Y-89891220D01*
X126910774Y-89927300D01*
X127004559Y-89942154D01*
X129067596Y-89942153D01*
X129074454Y-89941066D01*
X129109556Y-89935508D01*
X129180805Y-89944716D01*
X129235765Y-89990983D01*
X129256987Y-90059619D01*
X129257000Y-90061438D01*
X129257000Y-91279082D01*
X129236760Y-91348014D01*
X129182465Y-91395060D01*
X129111355Y-91405284D01*
X129046005Y-91375440D01*
X129028352Y-91356705D01*
X129023479Y-91350355D01*
X128979158Y-91292594D01*
X128979156Y-91292593D01*
X128979156Y-91292592D01*
X128967761Y-91283848D01*
X128950972Y-91270965D01*
X128944696Y-91265461D01*
X128406766Y-90727531D01*
X128401265Y-90721258D01*
X128379641Y-90693077D01*
X128254200Y-90596823D01*
X128108121Y-90536315D01*
X127990720Y-90520859D01*
X127971039Y-90518268D01*
X127951360Y-90515677D01*
X127951359Y-90515677D01*
X127916142Y-90520313D01*
X127907817Y-90520859D01*
X123687330Y-90520859D01*
X123618398Y-90500619D01*
X123597174Y-90483515D01*
X123380969Y-90267310D01*
X123346539Y-90204256D01*
X123351664Y-90132597D01*
X123394717Y-90075085D01*
X123462029Y-90049979D01*
X123471125Y-90049654D01*
X123782078Y-90049654D01*
X123782078Y-88945654D01*
X124290078Y-88945654D01*
X124290078Y-90049654D01*
X125084658Y-90049654D01*
X125084661Y-90049653D01*
X125145170Y-90043148D01*
X125145173Y-90043148D01*
X125282041Y-89992099D01*
X125398981Y-89904557D01*
X125486523Y-89787617D01*
X125537572Y-89650749D01*
X125537572Y-89650746D01*
X125544077Y-89590237D01*
X125544078Y-89590234D01*
X125544078Y-88945654D01*
X124290078Y-88945654D01*
X123782078Y-88945654D01*
X122528078Y-88945654D01*
X122528078Y-89106607D01*
X122507838Y-89175539D01*
X122453543Y-89222585D01*
X122382433Y-89232809D01*
X122317083Y-89202965D01*
X122310422Y-89196763D01*
X122263309Y-89149650D01*
X122228879Y-89086596D01*
X122225965Y-89059494D01*
X122225965Y-87594111D01*
X122246205Y-87525179D01*
X122263305Y-87503959D01*
X122652763Y-87114500D01*
X122715815Y-87080072D01*
X122787474Y-87085197D01*
X122833072Y-87114501D01*
X122854227Y-87135656D01*
X122854229Y-87135658D01*
X122858244Y-87137704D01*
X122862243Y-87141480D01*
X122862345Y-87141555D01*
X122862335Y-87141568D01*
X122910474Y-87187033D01*
X122927743Y-87256768D01*
X122904569Y-87324770D01*
X122848309Y-87369447D01*
X122844918Y-87370768D01*
X122790113Y-87391209D01*
X122673174Y-87478750D01*
X122585632Y-87595690D01*
X122534583Y-87732558D01*
X122534583Y-87732561D01*
X122528078Y-87793070D01*
X122528078Y-88437654D01*
X125544078Y-88437654D01*
X125544078Y-87793073D01*
X125544077Y-87793070D01*
X125537572Y-87732561D01*
X125537572Y-87732558D01*
X125486523Y-87595690D01*
X125398981Y-87478750D01*
X125282039Y-87391207D01*
X125275616Y-87387700D01*
X125224815Y-87336901D01*
X125209543Y-87266702D01*
X125234647Y-87199389D01*
X125278832Y-87162192D01*
X125330912Y-87135657D01*
X125354853Y-87111716D01*
X125420620Y-87045950D01*
X125420620Y-87045949D01*
X125441627Y-87004720D01*
X125478216Y-86932911D01*
X125493070Y-86839126D01*
X125493069Y-85076089D01*
X125478216Y-84982303D01*
X125478062Y-84982000D01*
X125420620Y-84869264D01*
X125330912Y-84779556D01*
X125217872Y-84721960D01*
X125124091Y-84707107D01*
X123061054Y-84707107D01*
X122967264Y-84721961D01*
X122854227Y-84779556D01*
X122854227Y-84779557D01*
X122764520Y-84869264D01*
X122764519Y-84869264D01*
X122706923Y-84982303D01*
X122706923Y-84982304D01*
X122692070Y-85076083D01*
X122692070Y-85447262D01*
X122671830Y-85516194D01*
X122617535Y-85563240D01*
X122613362Y-85565057D01*
X122463536Y-85627117D01*
X122338095Y-85723370D01*
X122316468Y-85751553D01*
X122310966Y-85757827D01*
X121231638Y-86837155D01*
X121225364Y-86842657D01*
X121197183Y-86864283D01*
X121173015Y-86895780D01*
X121100928Y-86989725D01*
X121040422Y-87135797D01*
X121040420Y-87135804D01*
X121019783Y-87292563D01*
X121019783Y-87292565D01*
X121024419Y-87327776D01*
X121024965Y-87336107D01*
X121024965Y-89317497D01*
X121024419Y-89325825D01*
X121019783Y-89361041D01*
X121024706Y-89398438D01*
X121024965Y-89400401D01*
X121040421Y-89517803D01*
X121084779Y-89624894D01*
X121100929Y-89663882D01*
X121197183Y-89789323D01*
X121197184Y-89789324D01*
X121197186Y-89789326D01*
X121225365Y-89810948D01*
X121231641Y-89816452D01*
X122930370Y-91515181D01*
X122935874Y-91521457D01*
X122942789Y-91530468D01*
X122957501Y-91549641D01*
X123029652Y-91605004D01*
X123082942Y-91645895D01*
X123229019Y-91706402D01*
X123229018Y-91706402D01*
X123229021Y-91706403D01*
X123346416Y-91721859D01*
X123385782Y-91727042D01*
X123385783Y-91727042D01*
X123421003Y-91722405D01*
X123429333Y-91721859D01*
X126591187Y-91721859D01*
X126660119Y-91742099D01*
X126707165Y-91796394D01*
X126717389Y-91867504D01*
X126716743Y-91870279D01*
X126716797Y-91870288D01*
X126700374Y-91973979D01*
X126700374Y-93537018D01*
X126715228Y-93630808D01*
X126772823Y-93743845D01*
X126862531Y-93833553D01*
X126909760Y-93857617D01*
X126975570Y-93891149D01*
X127069355Y-93906003D01*
X127432392Y-93906002D01*
X127526178Y-93891149D01*
X127526180Y-93891147D01*
X127526184Y-93891147D01*
X127535725Y-93888048D01*
X127536936Y-93891777D01*
X127588486Y-93882049D01*
X127615401Y-93889952D01*
X127616021Y-93888047D01*
X127625566Y-93891148D01*
X127625568Y-93891148D01*
X127625570Y-93891149D01*
X127719355Y-93906003D01*
X128082392Y-93906002D01*
X128176178Y-93891149D01*
X128176180Y-93891147D01*
X128176184Y-93891147D01*
X128185725Y-93888048D01*
X128186936Y-93891777D01*
X128238486Y-93882049D01*
X128265401Y-93889952D01*
X128266021Y-93888047D01*
X128275566Y-93891148D01*
X128275568Y-93891148D01*
X128275570Y-93891149D01*
X128369355Y-93906003D01*
X128695755Y-93906002D01*
X128764686Y-93926242D01*
X128772164Y-93931434D01*
X128804911Y-93955948D01*
X128804910Y-93955948D01*
X128941779Y-94006997D01*
X129002290Y-94013502D01*
X129002294Y-94013503D01*
X129060460Y-94013503D01*
X129102398Y-93990603D01*
X129174057Y-93995728D01*
X129231569Y-94038781D01*
X129256675Y-94106093D01*
X129257000Y-94115189D01*
X129257000Y-94151701D01*
X129236760Y-94220633D01*
X129219656Y-94241857D01*
X129047357Y-94414156D01*
X128984303Y-94448586D01*
X128957201Y-94451500D01*
X126845542Y-94451500D01*
X126837216Y-94450954D01*
X126802000Y-94446318D01*
X126801998Y-94446318D01*
X126645239Y-94466955D01*
X126645232Y-94466957D01*
X126499160Y-94527463D01*
X126373716Y-94623719D01*
X126352095Y-94651897D01*
X126346591Y-94658173D01*
X123290895Y-97713870D01*
X123227841Y-97748300D01*
X123200739Y-97751214D01*
X120153261Y-97751214D01*
X120084329Y-97730974D01*
X120037283Y-97676679D01*
X120027932Y-97647142D01*
X119995563Y-97473987D01*
X119994912Y-97470504D01*
X119917085Y-97269609D01*
X119803669Y-97086436D01*
X119658526Y-96927222D01*
X119658524Y-96927221D01*
X119658522Y-96927218D01*
X119486599Y-96797388D01*
X119486594Y-96797385D01*
X119293746Y-96701358D01*
X119293741Y-96701356D01*
X119162270Y-96663950D01*
X119087343Y-96642632D01*
X119026584Y-96604302D01*
X118996192Y-96539205D01*
X119005818Y-96468011D01*
X119052406Y-96413323D01*
X119087342Y-96397368D01*
X119293742Y-96338643D01*
X119486599Y-96242612D01*
X119658526Y-96112778D01*
X119803669Y-95953564D01*
X119917085Y-95770391D01*
X119994912Y-95569496D01*
X120034500Y-95357721D01*
X120034500Y-95142279D01*
X119994912Y-94930504D01*
X119989596Y-94916783D01*
X119917086Y-94729612D01*
X119917085Y-94729609D01*
X119803669Y-94546436D01*
X119658526Y-94387222D01*
X119658524Y-94387221D01*
X119658522Y-94387218D01*
X119486599Y-94257388D01*
X119486594Y-94257385D01*
X119293746Y-94161358D01*
X119293738Y-94161355D01*
X119284813Y-94158816D01*
X119224053Y-94120483D01*
X119193662Y-94055386D01*
X119203290Y-93984192D01*
X119249880Y-93929505D01*
X119285791Y-93913278D01*
X119320051Y-93903823D01*
X119320055Y-93903822D01*
X119526006Y-93804640D01*
X119526010Y-93804638D01*
X119710958Y-93670265D01*
X119868941Y-93505029D01*
X119868941Y-93505028D01*
X119994871Y-93314252D01*
X119994876Y-93314244D01*
X120084724Y-93104035D01*
X120084725Y-93104033D01*
X120116687Y-92964000D01*
X118550625Y-92964000D01*
X118576845Y-92923201D01*
X118618000Y-92783039D01*
X118618000Y-92636961D01*
X118576845Y-92496799D01*
X118550625Y-92456000D01*
X120119192Y-92456000D01*
X120119192Y-92455999D01*
X120115164Y-92426263D01*
X120115164Y-92426261D01*
X120044519Y-92208839D01*
X119936193Y-92007534D01*
X119793659Y-91828803D01*
X119621506Y-91678398D01*
X119621501Y-91678395D01*
X119425259Y-91561145D01*
X119211229Y-91480818D01*
X119211230Y-91480818D01*
X118986300Y-91440000D01*
X118364000Y-91440000D01*
X118364000Y-92267529D01*
X118254592Y-92217565D01*
X118146334Y-92202000D01*
X118073666Y-92202000D01*
X117965408Y-92217565D01*
X117856000Y-92267529D01*
X117856000Y-91440000D01*
X117290974Y-91440000D01*
X117120312Y-91455360D01*
X117120306Y-91455361D01*
X116899951Y-91516175D01*
X116899944Y-91516177D01*
X116693993Y-91615359D01*
X116693989Y-91615361D01*
X116507401Y-91750926D01*
X116439737Y-91775068D01*
X116369762Y-91758796D01*
X116319693Y-91707276D01*
X116304958Y-91647776D01*
X116304958Y-90512283D01*
X116325198Y-90443351D01*
X116342298Y-90422131D01*
X116511199Y-90253229D01*
X116574253Y-90218800D01*
X116645912Y-90223925D01*
X116678190Y-90241638D01*
X116733401Y-90283332D01*
X116733404Y-90283333D01*
X116733405Y-90283334D01*
X116926253Y-90379361D01*
X116926258Y-90379363D01*
X117133476Y-90438321D01*
X117280621Y-90451956D01*
X117294257Y-90453220D01*
X117294258Y-90453220D01*
X118925742Y-90453220D01*
X119086524Y-90438321D01*
X119293742Y-90379363D01*
X119486599Y-90283332D01*
X119658526Y-90153498D01*
X119803669Y-89994284D01*
X119917085Y-89811111D01*
X119994912Y-89610216D01*
X120034500Y-89398441D01*
X120034500Y-89182999D01*
X119994912Y-88971224D01*
X119917085Y-88770329D01*
X119803669Y-88587156D01*
X119658526Y-88427942D01*
X119658524Y-88427941D01*
X119658522Y-88427938D01*
X119486599Y-88298108D01*
X119486594Y-88298105D01*
X119293746Y-88202078D01*
X119293738Y-88202075D01*
X119284813Y-88199536D01*
X119224053Y-88161203D01*
X119193662Y-88096106D01*
X119203290Y-88024912D01*
X119249880Y-87970225D01*
X119285791Y-87953998D01*
X119320051Y-87944543D01*
X119320055Y-87944542D01*
X119526006Y-87845360D01*
X119526010Y-87845358D01*
X119710958Y-87710985D01*
X119868941Y-87545749D01*
X119868941Y-87545748D01*
X119994871Y-87354972D01*
X119994876Y-87354964D01*
X120084724Y-87144755D01*
X120084725Y-87144753D01*
X120116687Y-87004720D01*
X118550625Y-87004720D01*
X118576845Y-86963921D01*
X118618000Y-86823759D01*
X118618000Y-86677681D01*
X118576845Y-86537519D01*
X118550625Y-86496720D01*
X120119192Y-86496720D01*
X120119192Y-86496719D01*
X120115164Y-86466983D01*
X120115164Y-86466981D01*
X120044519Y-86249559D01*
X119936193Y-86048254D01*
X119793659Y-85869523D01*
X119621506Y-85719118D01*
X119621501Y-85719115D01*
X119425259Y-85601865D01*
X119272586Y-85544565D01*
X119215162Y-85501394D01*
X119190194Y-85434030D01*
X119205608Y-85363862D01*
X119256512Y-85313166D01*
X119282493Y-85302563D01*
X119293742Y-85299363D01*
X119486599Y-85203332D01*
X119658526Y-85073498D01*
X119803669Y-84914284D01*
X119917085Y-84731111D01*
X119994912Y-84530216D01*
X120034500Y-84318441D01*
X120034500Y-84102999D01*
X119994912Y-83891224D01*
X119917085Y-83690329D01*
X119803669Y-83507156D01*
X119658526Y-83347942D01*
X119658524Y-83347941D01*
X119658522Y-83347938D01*
X119486599Y-83218108D01*
X119486594Y-83218105D01*
X119293746Y-83122078D01*
X119293741Y-83122076D01*
X119145481Y-83079893D01*
X119086524Y-83063119D01*
X119006133Y-83055669D01*
X118925743Y-83048220D01*
X118925742Y-83048220D01*
X117294258Y-83048220D01*
X117294257Y-83048220D01*
X117133476Y-83063119D01*
X116926258Y-83122076D01*
X116926253Y-83122078D01*
X116733405Y-83218105D01*
X116733400Y-83218108D01*
X116561477Y-83347938D01*
X116416328Y-83507158D01*
X116379243Y-83567051D01*
X116325746Y-83615002D01*
X116300330Y-83622535D01*
X116300592Y-83623513D01*
X116292518Y-83625676D01*
X116146440Y-83686183D01*
X116020999Y-83782436D01*
X115999372Y-83810619D01*
X115993870Y-83816893D01*
X114151829Y-85658934D01*
X114145555Y-85664436D01*
X114117372Y-85686063D01*
X114075074Y-85741188D01*
X114037272Y-85790454D01*
X114029300Y-85800843D01*
X114021120Y-85811503D01*
X114021118Y-85811505D01*
X113960613Y-85957576D01*
X113960611Y-85957583D01*
X113939974Y-86114342D01*
X113939974Y-86114344D01*
X113944610Y-86149555D01*
X113945156Y-86157886D01*
X113945156Y-106882112D01*
X113944610Y-106890442D01*
X113939974Y-106925654D01*
X113939974Y-106925656D01*
X113945156Y-106965016D01*
X113960612Y-107082418D01*
X114015786Y-107215621D01*
X114021120Y-107228497D01*
X114117374Y-107353938D01*
X114117375Y-107353939D01*
X114117377Y-107353941D01*
X114145556Y-107375563D01*
X114151832Y-107381067D01*
X115114587Y-108343822D01*
X115120091Y-108350098D01*
X115131327Y-108364740D01*
X115141718Y-108378282D01*
X115239417Y-108453249D01*
X115267159Y-108474536D01*
X115347048Y-108507627D01*
X115413232Y-108535042D01*
X115413235Y-108535043D01*
X115413238Y-108535044D01*
X115465492Y-108541923D01*
X115569998Y-108555682D01*
X115570000Y-108555682D01*
X115605216Y-108551045D01*
X115613542Y-108550500D01*
X121019883Y-108550500D01*
X121088815Y-108570740D01*
X121121033Y-108600380D01*
X121179741Y-108676890D01*
X121179742Y-108676891D01*
X121179744Y-108676893D01*
X121207923Y-108698515D01*
X121214199Y-108704019D01*
X121957751Y-109447571D01*
X121963255Y-109453847D01*
X121970743Y-109463605D01*
X121984882Y-109482031D01*
X122110323Y-109578285D01*
X122126839Y-109585126D01*
X122256396Y-109638791D01*
X122256399Y-109638792D01*
X122256402Y-109638793D01*
X122308656Y-109645672D01*
X122413162Y-109659431D01*
X122413164Y-109659431D01*
X122448380Y-109654794D01*
X122456706Y-109654249D01*
X125852709Y-109654249D01*
X125861034Y-109654794D01*
X125896251Y-109659431D01*
X125896253Y-109659431D01*
X125974632Y-109649112D01*
X126053013Y-109638793D01*
X126199092Y-109578285D01*
X126324533Y-109482031D01*
X126346164Y-109453838D01*
X126351645Y-109447588D01*
X127186823Y-108612410D01*
X127249875Y-108577982D01*
X127253532Y-108577242D01*
X127319496Y-108564912D01*
X127319499Y-108564911D01*
X127319500Y-108564911D01*
X127419943Y-108525998D01*
X127520391Y-108487085D01*
X127703564Y-108373669D01*
X127862778Y-108228526D01*
X127992612Y-108056599D01*
X128088643Y-107863742D01*
X128147367Y-107657343D01*
X128185698Y-107596584D01*
X128250795Y-107566192D01*
X128321989Y-107575818D01*
X128376677Y-107622406D01*
X128392633Y-107657345D01*
X128451356Y-107863741D01*
X128451358Y-107863746D01*
X128547385Y-108056594D01*
X128547388Y-108056599D01*
X128677218Y-108228522D01*
X128677221Y-108228524D01*
X128677222Y-108228526D01*
X128836436Y-108373669D01*
X129019609Y-108487085D01*
X129019612Y-108487086D01*
X129196678Y-108555682D01*
X129220504Y-108564912D01*
X129432279Y-108604500D01*
X129432281Y-108604500D01*
X129647719Y-108604500D01*
X129647721Y-108604500D01*
X129859496Y-108564912D01*
X130060391Y-108487085D01*
X130243564Y-108373669D01*
X130402778Y-108228526D01*
X130532612Y-108056599D01*
X130628643Y-107863742D01*
X130687601Y-107656524D01*
X130702500Y-107495742D01*
X130702500Y-105864258D01*
X130687601Y-105703476D01*
X130628643Y-105496258D01*
X130605025Y-105448827D01*
X130532614Y-105303405D01*
X130532611Y-105303400D01*
X130531764Y-105302279D01*
X130488784Y-105245364D01*
X130402781Y-105131477D01*
X130243563Y-104986330D01*
X130137132Y-104920431D01*
X130060391Y-104872915D01*
X130060388Y-104872914D01*
X130060387Y-104872913D01*
X129859498Y-104795088D01*
X129647722Y-104755500D01*
X129647721Y-104755500D01*
X129432279Y-104755500D01*
X129432277Y-104755500D01*
X129220501Y-104795088D01*
X129019612Y-104872913D01*
X128836436Y-104986330D01*
X128677218Y-105131477D01*
X128547388Y-105303400D01*
X128547385Y-105303405D01*
X128451358Y-105496253D01*
X128451356Y-105496258D01*
X128392633Y-105702654D01*
X128354301Y-105763415D01*
X128289205Y-105793807D01*
X128218011Y-105784181D01*
X128163323Y-105737593D01*
X128147367Y-105702654D01*
X128088643Y-105496258D01*
X128088641Y-105496253D01*
X127992614Y-105303405D01*
X127992611Y-105303400D01*
X127991764Y-105302279D01*
X127948784Y-105245364D01*
X127862781Y-105131477D01*
X127703563Y-104986330D01*
X127597132Y-104920431D01*
X127520391Y-104872915D01*
X127520388Y-104872914D01*
X127520387Y-104872913D01*
X127319498Y-104795088D01*
X127107722Y-104755500D01*
X127107721Y-104755500D01*
X126892279Y-104755500D01*
X126892277Y-104755500D01*
X126680501Y-104795088D01*
X126479612Y-104872913D01*
X126296436Y-104986330D01*
X126137218Y-105131477D01*
X126007388Y-105303400D01*
X126007385Y-105303405D01*
X125911358Y-105496253D01*
X125911356Y-105496258D01*
X125852633Y-105702654D01*
X125814301Y-105763415D01*
X125749205Y-105793807D01*
X125678011Y-105784181D01*
X125623323Y-105737593D01*
X125607367Y-105702654D01*
X125548643Y-105496258D01*
X125548641Y-105496253D01*
X125452614Y-105303405D01*
X125452611Y-105303400D01*
X125451764Y-105302279D01*
X125408784Y-105245364D01*
X125322781Y-105131477D01*
X125163567Y-104986333D01*
X125120878Y-104959901D01*
X125072927Y-104906404D01*
X125060500Y-104851499D01*
X125060500Y-102538096D01*
X125080740Y-102469164D01*
X125097844Y-102447940D01*
X125132973Y-102412811D01*
X125230725Y-102315060D01*
X125230725Y-102315059D01*
X126627490Y-100918294D01*
X126690544Y-100883864D01*
X126717646Y-100880950D01*
X128221407Y-100880950D01*
X128229732Y-100881495D01*
X128264949Y-100886132D01*
X128264951Y-100886132D01*
X128343330Y-100875813D01*
X128421711Y-100865494D01*
X128567790Y-100804986D01*
X128591553Y-100786752D01*
X128693231Y-100708732D01*
X128714862Y-100680539D01*
X128720343Y-100674289D01*
X129594713Y-99799919D01*
X129600963Y-99794438D01*
X129629156Y-99772807D01*
X129725410Y-99647366D01*
X129772277Y-99534218D01*
X129817354Y-99478281D01*
X129885520Y-99455593D01*
X129955130Y-99473360D01*
X129980227Y-99492856D01*
X130000874Y-99513503D01*
X130049454Y-99513503D01*
X130049457Y-99513502D01*
X130109966Y-99506997D01*
X130109969Y-99506997D01*
X130246835Y-99455949D01*
X130279580Y-99431435D01*
X130346891Y-99406327D01*
X130355967Y-99406002D01*
X130422875Y-99406002D01*
X130491806Y-99426242D01*
X130538852Y-99480537D01*
X130550374Y-99533502D01*
X130550374Y-99718171D01*
X130530134Y-99787103D01*
X130513030Y-99808327D01*
X128729973Y-101591383D01*
X128666919Y-101625813D01*
X128619874Y-101627158D01*
X128587595Y-101622046D01*
X128571519Y-101619500D01*
X128571517Y-101619500D01*
X126508484Y-101619500D01*
X126414694Y-101634354D01*
X126301657Y-101691949D01*
X126301657Y-101691950D01*
X126211950Y-101781657D01*
X126211949Y-101781657D01*
X126154353Y-101894696D01*
X126154353Y-101894697D01*
X126139500Y-101988476D01*
X126139500Y-103751515D01*
X126154354Y-103845305D01*
X126211949Y-103958342D01*
X126301657Y-104048050D01*
X126348325Y-104071828D01*
X126414696Y-104105646D01*
X126508481Y-104120500D01*
X128571518Y-104120499D01*
X128665304Y-104105646D01*
X128778342Y-104048050D01*
X128778343Y-104048050D01*
X128868050Y-103958343D01*
X128868050Y-103958342D01*
X128887104Y-103920946D01*
X128925646Y-103845304D01*
X128940500Y-103751519D01*
X128940499Y-102978657D01*
X128960739Y-102909726D01*
X129015033Y-102862680D01*
X129051361Y-102852248D01*
X129061483Y-102850916D01*
X129207562Y-102790408D01*
X129228277Y-102774513D01*
X129333003Y-102694154D01*
X129354634Y-102665961D01*
X129360115Y-102659711D01*
X129921846Y-102097980D01*
X129984898Y-102063552D01*
X130056557Y-102068677D01*
X130114069Y-102111730D01*
X130139175Y-102179042D01*
X130139500Y-102188138D01*
X130139500Y-103751515D01*
X130154354Y-103845305D01*
X130211949Y-103958342D01*
X130301657Y-104048050D01*
X130348325Y-104071828D01*
X130414696Y-104105646D01*
X130508481Y-104120500D01*
X132571518Y-104120499D01*
X132610020Y-104114401D01*
X132681269Y-104123608D01*
X132736230Y-104169875D01*
X132757452Y-104238510D01*
X132757465Y-104240330D01*
X132757465Y-104435100D01*
X132772319Y-104528891D01*
X132829914Y-104641928D01*
X132919622Y-104731636D01*
X132976142Y-104760434D01*
X133032661Y-104789232D01*
X133126446Y-104804086D01*
X134889483Y-104804085D01*
X134983269Y-104789232D01*
X135096307Y-104731636D01*
X135096307Y-104731635D01*
X135104116Y-104727657D01*
X135174723Y-104714396D01*
X135241291Y-104741414D01*
X135282685Y-104800132D01*
X135289500Y-104841260D01*
X135289500Y-105299782D01*
X135269260Y-105368714D01*
X135214965Y-105415760D01*
X135210792Y-105417577D01*
X135135347Y-105448827D01*
X135009902Y-105545084D01*
X134988284Y-105573260D01*
X134982780Y-105579536D01*
X134596573Y-105965742D01*
X134533519Y-106000172D01*
X134506417Y-106003086D01*
X133126449Y-106003086D01*
X133032659Y-106017940D01*
X132919622Y-106075535D01*
X132919622Y-106075536D01*
X132829915Y-106165243D01*
X132829914Y-106165243D01*
X132772318Y-106278282D01*
X132772318Y-106278283D01*
X132757465Y-106372062D01*
X132757465Y-108435101D01*
X132772319Y-108528891D01*
X132829914Y-108641928D01*
X132919622Y-108731636D01*
X132976142Y-108760434D01*
X133032661Y-108789232D01*
X133126446Y-108804086D01*
X134889483Y-108804085D01*
X134983269Y-108789232D01*
X135096307Y-108731636D01*
X135096308Y-108731636D01*
X135186015Y-108641929D01*
X135186015Y-108641928D01*
X135201054Y-108612412D01*
X135243611Y-108528890D01*
X135258465Y-108435105D01*
X135258464Y-107055132D01*
X135278704Y-106986201D01*
X135295808Y-106964977D01*
X135649578Y-106611208D01*
X135712632Y-106576778D01*
X135739734Y-106573864D01*
X135846458Y-106573864D01*
X135854783Y-106574409D01*
X135890000Y-106579046D01*
X135925216Y-106574409D01*
X135933542Y-106573864D01*
X137978832Y-106573864D01*
X138047764Y-106594104D01*
X138094810Y-106648399D01*
X138106332Y-106701364D01*
X138106332Y-106796694D01*
X138117471Y-106867033D01*
X138121185Y-106890481D01*
X138178780Y-107003518D01*
X138268488Y-107093226D01*
X138325008Y-107122024D01*
X138381527Y-107150822D01*
X138475312Y-107165676D01*
X140538349Y-107165675D01*
X140632135Y-107150822D01*
X140745173Y-107093226D01*
X140745174Y-107093226D01*
X140834881Y-107003519D01*
X140834881Y-107003518D01*
X140892476Y-106890481D01*
X140892477Y-106890480D01*
X140907331Y-106796695D01*
X140907330Y-106169176D01*
X141998831Y-106169176D01*
X141998831Y-106813759D01*
X142005336Y-106874268D01*
X142005336Y-106874271D01*
X142056385Y-107011139D01*
X142143927Y-107128079D01*
X142260867Y-107215621D01*
X142397736Y-107266670D01*
X142458247Y-107273175D01*
X142458251Y-107273176D01*
X143252831Y-107273176D01*
X143252831Y-106169176D01*
X143760831Y-106169176D01*
X143760831Y-107273176D01*
X144555411Y-107273176D01*
X144555414Y-107273175D01*
X144615923Y-107266670D01*
X144615926Y-107266670D01*
X144752794Y-107215621D01*
X144869734Y-107128079D01*
X144957276Y-107011139D01*
X145008325Y-106874271D01*
X145008325Y-106874268D01*
X145014830Y-106813759D01*
X145014831Y-106813756D01*
X145014831Y-106169176D01*
X143760831Y-106169176D01*
X143252831Y-106169176D01*
X141998831Y-106169176D01*
X140907330Y-106169176D01*
X140907330Y-105661176D01*
X141998831Y-105661176D01*
X143252831Y-105661176D01*
X143252831Y-104557176D01*
X143760831Y-104557176D01*
X143760831Y-105661176D01*
X145014831Y-105661176D01*
X145014831Y-105016595D01*
X145014830Y-105016592D01*
X145008325Y-104956083D01*
X145008325Y-104956080D01*
X144957276Y-104819212D01*
X144869734Y-104702272D01*
X144752794Y-104614730D01*
X144615925Y-104563681D01*
X144555414Y-104557176D01*
X143760831Y-104557176D01*
X143252831Y-104557176D01*
X142458247Y-104557176D01*
X142397738Y-104563681D01*
X142397735Y-104563681D01*
X142260867Y-104614730D01*
X142143927Y-104702272D01*
X142056385Y-104819212D01*
X142005336Y-104956080D01*
X142005336Y-104956083D01*
X141998831Y-105016592D01*
X141998831Y-105661176D01*
X140907330Y-105661176D01*
X140907330Y-105033658D01*
X140892477Y-104939872D01*
X140847449Y-104851499D01*
X140834881Y-104826833D01*
X140745173Y-104737125D01*
X140632133Y-104679529D01*
X140538352Y-104664676D01*
X138475315Y-104664676D01*
X138381525Y-104679530D01*
X138268488Y-104737125D01*
X138268488Y-104737126D01*
X138178781Y-104826833D01*
X138178780Y-104826833D01*
X138121184Y-104939872D01*
X138121184Y-104939873D01*
X138106331Y-105033652D01*
X138106331Y-105245364D01*
X138086091Y-105314296D01*
X138031796Y-105361342D01*
X137978831Y-105372864D01*
X136618000Y-105372864D01*
X136549068Y-105352624D01*
X136502022Y-105298329D01*
X136490500Y-105245364D01*
X136490500Y-102996896D01*
X136749760Y-102996896D01*
X136749760Y-103641479D01*
X136756265Y-103701988D01*
X136756265Y-103701991D01*
X136807314Y-103838859D01*
X136894856Y-103955799D01*
X137011796Y-104043341D01*
X137148665Y-104094390D01*
X137209176Y-104100895D01*
X137209180Y-104100896D01*
X138003760Y-104100896D01*
X138003760Y-102996896D01*
X138511760Y-102996896D01*
X138511760Y-104100896D01*
X139306340Y-104100896D01*
X139306343Y-104100895D01*
X139366852Y-104094390D01*
X139366855Y-104094390D01*
X139503723Y-104043341D01*
X139620663Y-103955799D01*
X139708205Y-103838859D01*
X139759254Y-103701991D01*
X139759254Y-103701988D01*
X139765759Y-103641479D01*
X139765760Y-103641476D01*
X139765760Y-102996896D01*
X138511760Y-102996896D01*
X138003760Y-102996896D01*
X136749760Y-102996896D01*
X136490500Y-102996896D01*
X136490500Y-102488896D01*
X136749760Y-102488896D01*
X138003760Y-102488896D01*
X138003760Y-101384896D01*
X138511760Y-101384896D01*
X138511760Y-102488896D01*
X139765760Y-102488896D01*
X139765760Y-101844315D01*
X139765759Y-101844312D01*
X139759254Y-101783803D01*
X139759254Y-101783800D01*
X139708205Y-101646932D01*
X139620663Y-101529992D01*
X139503723Y-101442450D01*
X139366854Y-101391401D01*
X139306343Y-101384896D01*
X138511760Y-101384896D01*
X138003760Y-101384896D01*
X137209176Y-101384896D01*
X137148667Y-101391401D01*
X137148664Y-101391401D01*
X137011796Y-101442450D01*
X136894856Y-101529992D01*
X136807314Y-101646932D01*
X136756265Y-101783800D01*
X136756265Y-101783803D01*
X136749760Y-101844312D01*
X136749760Y-102488896D01*
X136490500Y-102488896D01*
X136490500Y-100631547D01*
X136510740Y-100562615D01*
X136527844Y-100541391D01*
X136780694Y-100288541D01*
X136843748Y-100254111D01*
X136870850Y-100251197D01*
X146685761Y-100251197D01*
X146694086Y-100251742D01*
X146729303Y-100256379D01*
X146729305Y-100256379D01*
X146807684Y-100246060D01*
X146886065Y-100235741D01*
X147032144Y-100175233D01*
X147099319Y-100123688D01*
X147157585Y-100078979D01*
X147179216Y-100050786D01*
X147184697Y-100044536D01*
X147713839Y-99515394D01*
X147720089Y-99509913D01*
X147748282Y-99488282D01*
X147844536Y-99362841D01*
X147905044Y-99216762D01*
X147920500Y-99099361D01*
X147925682Y-99060000D01*
X147924391Y-99050197D01*
X147921046Y-99024786D01*
X147920500Y-99016456D01*
X147920500Y-96930287D01*
X147921046Y-96921956D01*
X147925683Y-96886738D01*
X147925683Y-96886737D01*
X147917943Y-96827952D01*
X147905044Y-96729976D01*
X147844536Y-96583897D01*
X147835398Y-96571989D01*
X147828246Y-96562668D01*
X147748284Y-96458458D01*
X147748282Y-96458457D01*
X147748282Y-96458456D01*
X147736887Y-96449712D01*
X147720098Y-96436829D01*
X147713822Y-96431325D01*
X146957038Y-95674541D01*
X146951537Y-95668268D01*
X146929913Y-95640087D01*
X146804472Y-95543833D01*
X146658393Y-95483325D01*
X146540992Y-95467869D01*
X146521311Y-95465278D01*
X146501632Y-95462687D01*
X146501631Y-95462687D01*
X146466414Y-95467323D01*
X146458089Y-95467869D01*
X146104766Y-95467869D01*
X146035834Y-95447629D01*
X145988788Y-95393334D01*
X145978564Y-95322224D01*
X145991163Y-95282485D01*
X145996997Y-95271033D01*
X146015646Y-95234434D01*
X146030500Y-95140649D01*
X146030499Y-93077612D01*
X146015646Y-92983826D01*
X145984756Y-92923201D01*
X145958050Y-92870787D01*
X145868342Y-92781079D01*
X145755302Y-92723483D01*
X145661521Y-92708630D01*
X143898484Y-92708630D01*
X143804694Y-92723484D01*
X143691657Y-92781079D01*
X143691657Y-92781080D01*
X143601950Y-92870787D01*
X143601949Y-92870787D01*
X143544353Y-92983826D01*
X143544353Y-92983827D01*
X143529500Y-93077606D01*
X143529500Y-93077610D01*
X143529500Y-93077611D01*
X143529500Y-93741604D01*
X143529501Y-94280643D01*
X143509261Y-94349575D01*
X143454967Y-94396621D01*
X143402001Y-94408143D01*
X133410190Y-94408143D01*
X133341258Y-94387903D01*
X133320034Y-94370799D01*
X132438718Y-93489483D01*
X132404288Y-93426429D01*
X132401374Y-93399327D01*
X132401374Y-92964000D01*
X134894894Y-92964000D01*
X134894894Y-93608583D01*
X134901399Y-93669092D01*
X134901399Y-93669095D01*
X134952448Y-93805963D01*
X135039990Y-93922903D01*
X135156930Y-94010445D01*
X135293799Y-94061494D01*
X135354310Y-94067999D01*
X135354314Y-94068000D01*
X136148894Y-94068000D01*
X136148894Y-92964000D01*
X136656894Y-92964000D01*
X136656894Y-94068000D01*
X137451474Y-94068000D01*
X137451477Y-94067999D01*
X137511986Y-94061494D01*
X137511989Y-94061494D01*
X137648857Y-94010445D01*
X137765797Y-93922903D01*
X137853339Y-93805963D01*
X137904388Y-93669095D01*
X137904388Y-93669092D01*
X137910893Y-93608583D01*
X137910894Y-93608580D01*
X137910894Y-92964000D01*
X136656894Y-92964000D01*
X136148894Y-92964000D01*
X134894894Y-92964000D01*
X132401374Y-92964000D01*
X132401374Y-92716142D01*
X132401373Y-92716138D01*
X132400385Y-92708630D01*
X132385918Y-92598741D01*
X132361077Y-92538771D01*
X132351373Y-92489980D01*
X132351373Y-92456000D01*
X134894894Y-92456000D01*
X136148894Y-92456000D01*
X136148894Y-91352000D01*
X136656894Y-91352000D01*
X136656894Y-92456000D01*
X137910894Y-92456000D01*
X137910894Y-91811419D01*
X137910893Y-91811416D01*
X137904388Y-91750907D01*
X137904388Y-91750904D01*
X137853339Y-91614036D01*
X137765797Y-91497096D01*
X137648857Y-91409554D01*
X137511988Y-91358505D01*
X137451477Y-91352000D01*
X136656894Y-91352000D01*
X136148894Y-91352000D01*
X135354310Y-91352000D01*
X135293801Y-91358505D01*
X135293798Y-91358505D01*
X135156930Y-91409554D01*
X135039990Y-91497096D01*
X134952448Y-91614036D01*
X134901399Y-91750904D01*
X134901399Y-91750907D01*
X134894894Y-91811416D01*
X134894894Y-92456000D01*
X132351373Y-92456000D01*
X132351373Y-91973987D01*
X132351372Y-91973979D01*
X132336520Y-91880199D01*
X132331470Y-91870288D01*
X132278924Y-91767160D01*
X132189216Y-91677452D01*
X132076176Y-91619856D01*
X131982397Y-91605003D01*
X131982393Y-91605003D01*
X131813195Y-91605003D01*
X131744263Y-91584763D01*
X131697217Y-91530468D01*
X131695418Y-91526337D01*
X131675410Y-91478033D01*
X131661189Y-91459500D01*
X131579156Y-91352592D01*
X131566805Y-91343114D01*
X131550972Y-91330965D01*
X131544696Y-91325461D01*
X131447844Y-91228609D01*
X131413414Y-91165555D01*
X131410500Y-91138453D01*
X131410500Y-91130910D01*
X131430740Y-91061978D01*
X131447844Y-91040754D01*
X132188410Y-90300188D01*
X132251464Y-90265758D01*
X132278566Y-90262844D01*
X132619966Y-90262844D01*
X132688898Y-90283084D01*
X132735944Y-90337379D01*
X132747466Y-90390344D01*
X132747466Y-90687448D01*
X132748841Y-90696127D01*
X132762319Y-90781235D01*
X132819914Y-90894272D01*
X132909622Y-90983980D01*
X132966142Y-91012778D01*
X133022661Y-91041576D01*
X133116446Y-91056430D01*
X134879483Y-91056429D01*
X134973269Y-91041576D01*
X135086307Y-90983980D01*
X135086308Y-90983980D01*
X135176015Y-90894273D01*
X135176015Y-90894272D01*
X135233611Y-90781234D01*
X135248465Y-90687449D01*
X135248465Y-90341997D01*
X136299500Y-90341997D01*
X136314354Y-90435787D01*
X136371949Y-90548824D01*
X136461657Y-90638532D01*
X136518177Y-90667330D01*
X136574696Y-90696128D01*
X136668481Y-90710982D01*
X138731518Y-90710981D01*
X138825304Y-90696128D01*
X138938342Y-90638532D01*
X138938343Y-90638532D01*
X139028050Y-90548825D01*
X139028050Y-90548824D01*
X139042577Y-90520313D01*
X139085646Y-90435786D01*
X139100500Y-90342001D01*
X139100499Y-89714482D01*
X140192000Y-89714482D01*
X140192000Y-90359065D01*
X140198505Y-90419574D01*
X140198505Y-90419577D01*
X140249554Y-90556445D01*
X140337096Y-90673385D01*
X140454036Y-90760927D01*
X140590905Y-90811976D01*
X140651416Y-90818481D01*
X140651420Y-90818482D01*
X141446000Y-90818482D01*
X141446000Y-89714482D01*
X140192000Y-89714482D01*
X139100499Y-89714482D01*
X139100499Y-89206482D01*
X140192000Y-89206482D01*
X141446000Y-89206482D01*
X141446000Y-88102482D01*
X141954000Y-88102482D01*
X141954000Y-89206482D01*
X143208000Y-89206482D01*
X143208000Y-88561901D01*
X143207999Y-88561898D01*
X143201494Y-88501389D01*
X143201494Y-88501386D01*
X143150445Y-88364518D01*
X143062903Y-88247578D01*
X142945963Y-88160036D01*
X142809094Y-88108987D01*
X142748583Y-88102482D01*
X141954000Y-88102482D01*
X141446000Y-88102482D01*
X140651416Y-88102482D01*
X140590907Y-88108987D01*
X140590904Y-88108987D01*
X140454036Y-88160036D01*
X140337096Y-88247578D01*
X140249554Y-88364518D01*
X140198505Y-88501386D01*
X140198505Y-88501389D01*
X140192000Y-88561898D01*
X140192000Y-89206482D01*
X139100499Y-89206482D01*
X139100499Y-88578964D01*
X139085646Y-88485178D01*
X139042677Y-88400846D01*
X139028050Y-88372139D01*
X138938342Y-88282431D01*
X138825302Y-88224835D01*
X138731523Y-88209982D01*
X138731519Y-88209982D01*
X138428000Y-88209982D01*
X138359068Y-88189742D01*
X138312022Y-88135447D01*
X138300500Y-88082482D01*
X138300500Y-87737999D01*
X138320740Y-87669067D01*
X138375035Y-87622021D01*
X138428000Y-87610499D01*
X138731515Y-87610499D01*
X138731518Y-87610499D01*
X138825304Y-87595646D01*
X138938342Y-87538050D01*
X138938343Y-87538050D01*
X139028050Y-87448343D01*
X139028050Y-87448342D01*
X139068249Y-87369447D01*
X139085646Y-87335304D01*
X139100500Y-87241519D01*
X139100499Y-85478482D01*
X139085646Y-85384696D01*
X139079799Y-85373220D01*
X139028050Y-85271657D01*
X138938342Y-85181949D01*
X138825302Y-85124353D01*
X138731521Y-85109500D01*
X136668484Y-85109500D01*
X136574694Y-85124354D01*
X136461657Y-85181949D01*
X136461657Y-85181950D01*
X136371950Y-85271657D01*
X136371949Y-85271657D01*
X136314353Y-85384696D01*
X136314353Y-85384697D01*
X136299500Y-85478476D01*
X136299500Y-87241515D01*
X136314354Y-87335305D01*
X136371949Y-87448342D01*
X136461657Y-87538050D01*
X136500121Y-87557648D01*
X136574696Y-87595646D01*
X136668481Y-87610500D01*
X136972001Y-87610499D01*
X137040931Y-87630739D01*
X137087978Y-87685033D01*
X137099500Y-87737999D01*
X137099500Y-88082482D01*
X137079260Y-88151414D01*
X137024965Y-88198460D01*
X136972000Y-88209982D01*
X136668484Y-88209982D01*
X136574694Y-88224836D01*
X136461657Y-88282431D01*
X136461657Y-88282432D01*
X136371950Y-88372139D01*
X136371949Y-88372139D01*
X136314353Y-88485178D01*
X136314353Y-88485179D01*
X136299500Y-88578958D01*
X136299500Y-90341997D01*
X135248465Y-90341997D01*
X135248464Y-88624412D01*
X135233611Y-88530626D01*
X135218714Y-88501389D01*
X135176015Y-88417587D01*
X135086307Y-88327879D01*
X134973267Y-88270283D01*
X134879486Y-88255430D01*
X133116449Y-88255430D01*
X133022659Y-88270284D01*
X132909622Y-88327879D01*
X132909622Y-88327880D01*
X132819915Y-88417587D01*
X132819914Y-88417587D01*
X132762318Y-88530626D01*
X132762318Y-88530627D01*
X132747465Y-88624406D01*
X132747465Y-88934344D01*
X132727225Y-89003276D01*
X132672930Y-89050322D01*
X132619965Y-89061844D01*
X132020561Y-89061844D01*
X132012235Y-89061298D01*
X131977019Y-89056662D01*
X131977018Y-89056662D01*
X131957338Y-89059253D01*
X131937658Y-89061844D01*
X131878957Y-89069572D01*
X131820256Y-89077300D01*
X131674179Y-89137807D01*
X131548738Y-89234060D01*
X131527112Y-89262243D01*
X131521609Y-89268517D01*
X130675656Y-90114471D01*
X130612602Y-90148901D01*
X130540943Y-90143776D01*
X130483431Y-90100723D01*
X130458325Y-90033411D01*
X130458000Y-90024315D01*
X130458000Y-89261049D01*
X130458546Y-89252718D01*
X130462514Y-89222585D01*
X130463183Y-89217500D01*
X130442544Y-89060738D01*
X130382036Y-88914659D01*
X130377380Y-88908591D01*
X130285782Y-88789218D01*
X130273431Y-88779740D01*
X130257598Y-88767591D01*
X130251322Y-88762087D01*
X129787061Y-88297826D01*
X129781560Y-88291553D01*
X129759936Y-88263372D01*
X129634495Y-88167118D01*
X129634494Y-88167117D01*
X129634491Y-88167115D01*
X129515284Y-88117738D01*
X129459346Y-88072660D01*
X129436658Y-88004494D01*
X129436577Y-87999944D01*
X129436577Y-87810138D01*
X129436577Y-87810136D01*
X129421724Y-87716350D01*
X129373661Y-87622021D01*
X129364128Y-87603311D01*
X129274420Y-87513603D01*
X129161381Y-87456007D01*
X129161382Y-87456007D01*
X129155230Y-87455033D01*
X129090314Y-87424256D01*
X129052342Y-87363270D01*
X129053370Y-87291435D01*
X129093072Y-87231560D01*
X129155233Y-87203173D01*
X129217874Y-87193253D01*
X129330912Y-87135657D01*
X129330913Y-87135657D01*
X129420620Y-87045950D01*
X129420620Y-87045949D01*
X129441627Y-87004720D01*
X129478216Y-86932911D01*
X129493070Y-86839126D01*
X129493070Y-86685607D01*
X129513310Y-86616675D01*
X129567605Y-86569629D01*
X129620570Y-86558107D01*
X132619966Y-86558107D01*
X132688898Y-86578347D01*
X132735944Y-86632642D01*
X132746784Y-86682475D01*
X132747073Y-86682453D01*
X132747239Y-86684564D01*
X132747466Y-86685607D01*
X132747466Y-86687448D01*
X132747467Y-86687453D01*
X132762319Y-86781235D01*
X132819914Y-86894272D01*
X132909622Y-86983980D01*
X132950327Y-87004720D01*
X133022661Y-87041576D01*
X133116446Y-87056430D01*
X134879483Y-87056429D01*
X134973269Y-87041576D01*
X135086307Y-86983980D01*
X135086308Y-86983980D01*
X135176015Y-86894273D01*
X135176015Y-86894272D01*
X135202314Y-86842657D01*
X135233611Y-86781234D01*
X135248465Y-86687449D01*
X135248464Y-84624412D01*
X135239521Y-84567943D01*
X135248731Y-84496694D01*
X135294998Y-84441734D01*
X135363634Y-84420513D01*
X135365452Y-84420500D01*
X140972000Y-84420500D01*
X141040932Y-84440740D01*
X141087978Y-84495035D01*
X141099500Y-84548000D01*
X141099500Y-84982000D01*
X141079260Y-85050932D01*
X141024965Y-85097978D01*
X140972000Y-85109500D01*
X140668484Y-85109500D01*
X140574694Y-85124354D01*
X140461657Y-85181949D01*
X140461657Y-85181950D01*
X140371950Y-85271657D01*
X140371949Y-85271657D01*
X140314353Y-85384696D01*
X140314353Y-85384697D01*
X140299500Y-85478476D01*
X140299500Y-87241515D01*
X140314354Y-87335305D01*
X140371949Y-87448342D01*
X140461657Y-87538050D01*
X140500121Y-87557648D01*
X140574696Y-87595646D01*
X140668481Y-87610500D01*
X142731518Y-87610499D01*
X142825304Y-87595646D01*
X142938342Y-87538050D01*
X142938343Y-87538050D01*
X143028050Y-87448343D01*
X143028050Y-87448342D01*
X143068249Y-87369447D01*
X143085646Y-87335304D01*
X143100500Y-87241519D01*
X143100499Y-85837545D01*
X143120739Y-85768614D01*
X143175034Y-85721568D01*
X143246144Y-85711344D01*
X143311494Y-85741188D01*
X143318155Y-85747390D01*
X149984587Y-92413822D01*
X149990091Y-92420098D01*
X149994822Y-92426263D01*
X150011718Y-92448282D01*
X150137159Y-92544536D01*
X150204425Y-92572398D01*
X150283232Y-92605042D01*
X150283234Y-92605042D01*
X150283238Y-92605044D01*
X150335144Y-92611877D01*
X150400844Y-92640941D01*
X150440401Y-92700911D01*
X150446002Y-92738285D01*
X150446002Y-92820209D01*
X150460856Y-92914001D01*
X150518451Y-93027037D01*
X150608159Y-93116745D01*
X150657239Y-93141752D01*
X150721198Y-93174341D01*
X150814983Y-93189195D01*
X152112376Y-93189194D01*
X152181306Y-93209434D01*
X152228352Y-93263728D01*
X152239874Y-93316694D01*
X152239874Y-93560695D01*
X152219634Y-93629627D01*
X152165339Y-93676673D01*
X152112374Y-93688195D01*
X150814986Y-93688195D01*
X150721196Y-93703049D01*
X150608159Y-93760644D01*
X150608159Y-93760645D01*
X150518452Y-93850351D01*
X150512556Y-93858468D01*
X150511385Y-93857617D01*
X150469365Y-93902112D01*
X150405088Y-93919500D01*
X150161547Y-93919500D01*
X150092615Y-93899260D01*
X150071391Y-93882156D01*
X146067843Y-89878608D01*
X146033413Y-89815554D01*
X146030499Y-89788452D01*
X146030499Y-89077614D01*
X146030498Y-89077606D01*
X146015646Y-88983826D01*
X145980404Y-88914660D01*
X145958050Y-88870787D01*
X145868342Y-88781079D01*
X145755302Y-88723483D01*
X145661521Y-88708630D01*
X143898484Y-88708630D01*
X143804694Y-88723484D01*
X143691657Y-88781079D01*
X143691657Y-88781080D01*
X143601950Y-88870787D01*
X143601949Y-88870787D01*
X143544353Y-88983826D01*
X143544353Y-88983827D01*
X143529500Y-89077606D01*
X143529500Y-90328452D01*
X143509260Y-90397384D01*
X143492155Y-90418609D01*
X143422155Y-90488608D01*
X143359101Y-90523037D01*
X143287442Y-90517912D01*
X143229930Y-90474858D01*
X143204825Y-90407546D01*
X143205231Y-90384819D01*
X143207999Y-90359074D01*
X143208000Y-90359062D01*
X143208000Y-89714482D01*
X141954000Y-89714482D01*
X141954000Y-90818482D01*
X142748580Y-90818482D01*
X142748592Y-90818481D01*
X142774337Y-90815713D01*
X142845038Y-90828467D01*
X142897620Y-90877420D01*
X142915388Y-90947030D01*
X142892702Y-91015196D01*
X142878125Y-91032638D01*
X142018466Y-91892297D01*
X141955412Y-91926727D01*
X141883753Y-91921602D01*
X141826241Y-91878549D01*
X141802380Y-91822086D01*
X141788540Y-91734696D01*
X141774124Y-91706403D01*
X141730944Y-91621657D01*
X141641236Y-91531949D01*
X141528196Y-91474353D01*
X141434415Y-91459500D01*
X139371378Y-91459500D01*
X139277588Y-91474354D01*
X139164551Y-91531949D01*
X139164551Y-91531950D01*
X139074844Y-91621657D01*
X139074843Y-91621657D01*
X139017247Y-91734696D01*
X139017247Y-91734697D01*
X139002394Y-91828476D01*
X139002394Y-93591515D01*
X139017248Y-93685305D01*
X139074843Y-93798342D01*
X139164551Y-93888050D01*
X139219709Y-93916154D01*
X139277590Y-93945646D01*
X139371375Y-93960500D01*
X141434412Y-93960499D01*
X141528198Y-93945646D01*
X141641236Y-93888050D01*
X141641238Y-93888049D01*
X141730944Y-93798343D01*
X141730944Y-93798342D01*
X141747501Y-93765847D01*
X141788540Y-93685304D01*
X141803394Y-93591519D01*
X141803394Y-93438000D01*
X141823634Y-93369068D01*
X141877929Y-93322022D01*
X141930894Y-93310500D01*
X142006458Y-93310500D01*
X142014783Y-93311045D01*
X142050000Y-93315682D01*
X142050002Y-93315682D01*
X142128381Y-93305363D01*
X142206762Y-93295044D01*
X142352841Y-93234536D01*
X142478282Y-93138282D01*
X142499913Y-93110089D01*
X142505394Y-93103839D01*
X144062261Y-91546973D01*
X144125315Y-91512543D01*
X144152417Y-91509629D01*
X145661515Y-91509629D01*
X145661518Y-91509629D01*
X145755304Y-91494776D01*
X145825289Y-91459116D01*
X145895893Y-91445855D01*
X145962462Y-91472872D01*
X145973328Y-91482563D01*
X149404587Y-94913822D01*
X149410091Y-94920098D01*
X149418074Y-94930501D01*
X149431718Y-94948282D01*
X149499998Y-95000675D01*
X149557159Y-95044536D01*
X149624425Y-95072398D01*
X149703232Y-95105042D01*
X149703235Y-95105043D01*
X149703238Y-95105044D01*
X149755492Y-95111923D01*
X149859998Y-95125682D01*
X149860000Y-95125682D01*
X149895216Y-95121045D01*
X149903542Y-95120500D01*
X150318503Y-95120500D01*
X150387435Y-95140740D01*
X150434481Y-95195035D01*
X150446003Y-95248000D01*
X150446003Y-95320213D01*
X150452780Y-95363006D01*
X150460856Y-95414000D01*
X150518451Y-95527037D01*
X150589953Y-95598539D01*
X150624383Y-95661593D01*
X150619258Y-95733252D01*
X150589953Y-95778851D01*
X150518452Y-95850351D01*
X150512556Y-95858468D01*
X150511385Y-95857617D01*
X150469365Y-95902112D01*
X150405088Y-95919500D01*
X149920401Y-95919500D01*
X149912075Y-95918954D01*
X149876859Y-95914318D01*
X149876858Y-95914318D01*
X149857178Y-95916909D01*
X149837498Y-95919500D01*
X149778797Y-95927228D01*
X149720096Y-95934956D01*
X149574019Y-95995463D01*
X149448578Y-96091716D01*
X149426951Y-96119899D01*
X149421449Y-96126173D01*
X148644755Y-96902867D01*
X148638481Y-96908369D01*
X148610300Y-96929995D01*
X148523205Y-97043500D01*
X148517807Y-97050533D01*
X148514047Y-97055434D01*
X148514045Y-97055438D01*
X148453540Y-97201506D01*
X148453537Y-97201516D01*
X148432900Y-97358275D01*
X148432900Y-97358277D01*
X148437536Y-97393488D01*
X148438082Y-97401819D01*
X148438082Y-99579871D01*
X148417842Y-99648803D01*
X148400738Y-99670027D01*
X146745441Y-101325324D01*
X146682387Y-101359754D01*
X146655285Y-101362668D01*
X146157999Y-101362668D01*
X146089067Y-101342428D01*
X146042021Y-101288133D01*
X146030499Y-101235168D01*
X146030499Y-100931652D01*
X146030317Y-100930500D01*
X146015646Y-100837864D01*
X145975097Y-100758282D01*
X145958050Y-100724825D01*
X145868342Y-100635117D01*
X145755302Y-100577521D01*
X145661521Y-100562668D01*
X143898484Y-100562668D01*
X143804694Y-100577522D01*
X143691657Y-100635117D01*
X143691657Y-100635118D01*
X143601950Y-100724825D01*
X143601949Y-100724825D01*
X143544353Y-100837864D01*
X143544353Y-100837865D01*
X143529500Y-100931644D01*
X143529500Y-101381159D01*
X143509260Y-101450091D01*
X143454965Y-101497137D01*
X143383855Y-101507361D01*
X143382056Y-101507089D01*
X143289282Y-101492396D01*
X141226244Y-101492396D01*
X141132454Y-101507250D01*
X141019417Y-101564845D01*
X141019417Y-101564846D01*
X140929710Y-101654553D01*
X140929709Y-101654553D01*
X140872113Y-101767592D01*
X140872113Y-101767593D01*
X140857260Y-101861372D01*
X140857260Y-103624411D01*
X140872114Y-103718201D01*
X140929709Y-103831238D01*
X141019417Y-103920946D01*
X141031886Y-103927299D01*
X141132456Y-103978542D01*
X141226241Y-103993396D01*
X143289278Y-103993395D01*
X143383064Y-103978542D01*
X143496102Y-103920946D01*
X143496103Y-103920946D01*
X143585810Y-103831239D01*
X143585810Y-103831238D01*
X143626429Y-103751519D01*
X143643406Y-103718200D01*
X143658260Y-103624415D01*
X143658260Y-103474903D01*
X143678500Y-103405971D01*
X143732795Y-103358925D01*
X143803905Y-103348701D01*
X143805555Y-103348950D01*
X143898481Y-103363668D01*
X145661518Y-103363667D01*
X145755304Y-103348814D01*
X145868342Y-103291218D01*
X145868343Y-103291218D01*
X145958050Y-103201511D01*
X145958050Y-103201510D01*
X146003426Y-103112455D01*
X146015646Y-103088472D01*
X146030500Y-102994687D01*
X146030500Y-102691168D01*
X146050740Y-102622236D01*
X146105035Y-102575190D01*
X146158000Y-102563668D01*
X146913290Y-102563668D01*
X146921615Y-102564213D01*
X146956832Y-102568850D01*
X146956834Y-102568850D01*
X147035213Y-102558531D01*
X147113594Y-102548212D01*
X147259673Y-102487704D01*
X147319603Y-102441718D01*
X147385114Y-102391450D01*
X147406745Y-102363257D01*
X147412226Y-102357007D01*
X149432421Y-100336812D01*
X149438671Y-100331331D01*
X149466864Y-100309700D01*
X149563118Y-100184259D01*
X149623626Y-100038180D01*
X149639082Y-99920779D01*
X149644264Y-99881418D01*
X149639627Y-99846202D01*
X149639082Y-99837874D01*
X149639082Y-97659824D01*
X149659322Y-97590892D01*
X149676426Y-97569668D01*
X150088250Y-97157844D01*
X150151304Y-97123414D01*
X150178406Y-97120500D01*
X150318503Y-97120500D01*
X150387435Y-97140740D01*
X150434481Y-97195035D01*
X150446003Y-97248000D01*
X150446003Y-97320213D01*
X150455465Y-97379957D01*
X150460856Y-97414000D01*
X150518451Y-97527037D01*
X150608159Y-97616745D01*
X150664679Y-97645543D01*
X150721198Y-97674341D01*
X150814983Y-97689195D01*
X152112376Y-97689194D01*
X152181306Y-97709434D01*
X152228352Y-97763728D01*
X152239874Y-97816694D01*
X152239874Y-97953195D01*
X152219634Y-98022127D01*
X152165339Y-98069173D01*
X152112374Y-98080695D01*
X150797918Y-98080695D01*
X150737409Y-98087200D01*
X150737406Y-98087200D01*
X150600538Y-98138249D01*
X150483598Y-98225791D01*
X150396056Y-98342731D01*
X150345007Y-98479599D01*
X150345007Y-98479602D01*
X150338502Y-98540111D01*
X150338502Y-98934695D01*
X152239874Y-98934695D01*
X152239874Y-99442695D01*
X150338502Y-99442695D01*
X150338502Y-99837278D01*
X150345007Y-99897787D01*
X150345007Y-99897790D01*
X150396056Y-100034658D01*
X150483598Y-100151598D01*
X150600538Y-100239140D01*
X150737407Y-100290189D01*
X150797918Y-100296694D01*
X150797922Y-100296695D01*
X152112374Y-100296695D01*
X152181306Y-100316935D01*
X152228352Y-100371230D01*
X152239874Y-100424195D01*
X152239874Y-101570427D01*
X152219634Y-101639359D01*
X152165339Y-101686405D01*
X152112374Y-101697927D01*
X150582839Y-101697927D01*
X150582747Y-101697900D01*
X150530000Y-101697900D01*
X150473605Y-101697900D01*
X150473603Y-101697900D01*
X150363646Y-101722997D01*
X150363642Y-101722999D01*
X150262025Y-101771937D01*
X150173842Y-101842264D01*
X150132032Y-101894697D01*
X150103524Y-101930448D01*
X150061394Y-102017940D01*
X150054589Y-102032073D01*
X150029497Y-102142030D01*
X150029497Y-102142031D01*
X150029500Y-102198427D01*
X150029500Y-102868217D01*
X150029400Y-102871768D01*
X150027494Y-102905715D01*
X150026508Y-102923273D01*
X150014536Y-103105940D01*
X150013771Y-103112455D01*
X149997257Y-103209639D01*
X149970027Y-103346536D01*
X149968760Y-103351749D01*
X149939595Y-103452986D01*
X149938703Y-103455830D01*
X149896344Y-103580615D01*
X149894874Y-103584520D01*
X149853900Y-103683438D01*
X149852178Y-103687239D01*
X149793912Y-103805390D01*
X149792532Y-103808032D01*
X149741559Y-103900260D01*
X149738769Y-103904843D01*
X149661220Y-104020901D01*
X149604171Y-104101302D01*
X149600107Y-104106448D01*
X149479418Y-104244070D01*
X149445054Y-104282523D01*
X149442597Y-104285121D01*
X143616689Y-110111028D01*
X143614088Y-110113487D01*
X143575126Y-110148303D01*
X143438230Y-110268378D01*
X143433080Y-110272446D01*
X143351653Y-110330222D01*
X143236693Y-110407031D01*
X143232111Y-110409822D01*
X143139102Y-110461223D01*
X143136463Y-110462602D01*
X143107574Y-110476850D01*
X143051179Y-110490000D01*
X128270000Y-110490000D01*
X114181548Y-110490000D01*
X114125152Y-110476849D01*
X114117630Y-110473139D01*
X113994896Y-110406120D01*
X113990029Y-110403173D01*
X113883810Y-110332202D01*
X113881024Y-110330230D01*
X113771142Y-110247975D01*
X113767311Y-110244869D01*
X113670843Y-110160270D01*
X113667797Y-110157417D01*
X113621407Y-110111028D01*
X113570986Y-110060608D01*
X113568150Y-110057579D01*
X113483529Y-109961088D01*
X113480432Y-109957268D01*
X113398192Y-109847409D01*
X113396220Y-109844623D01*
X113374577Y-109812232D01*
X113325224Y-109738371D01*
X113322293Y-109733530D01*
X113255282Y-109610811D01*
X113198780Y-109496240D01*
X113196224Y-109490319D01*
X113180279Y-109447571D01*
X113146506Y-109357027D01*
X113106488Y-109239142D01*
X113104562Y-109232202D01*
X113072835Y-109086362D01*
X113050055Y-108971848D01*
X113048997Y-108963998D01*
X113035665Y-108777644D01*
X113032114Y-108723463D01*
X113030637Y-108700925D01*
X113030500Y-108696754D01*
X113030500Y-82700511D01*
X113030635Y-82696362D01*
X113035901Y-82616006D01*
X113049013Y-82432886D01*
X113050074Y-82425012D01*
X113072857Y-82310464D01*
X113104585Y-82164609D01*
X113106495Y-82157726D01*
X113146515Y-82039826D01*
X113196243Y-81906499D01*
X113198782Y-81900620D01*
X113255294Y-81786021D01*
X113322301Y-81663306D01*
X113325219Y-81658486D01*
X113396264Y-81552158D01*
X113398130Y-81549519D01*
X113480471Y-81439523D01*
X113483509Y-81435776D01*
X113568182Y-81339224D01*
X113570970Y-81336248D01*
X113667811Y-81239405D01*
X113670800Y-81236605D01*
X113767331Y-81151948D01*
X113771142Y-81148858D01*
X113881037Y-81066591D01*
X113883782Y-81064649D01*
X113990063Y-80993633D01*
X113994875Y-80990720D01*
X114117609Y-80923701D01*
X114232184Y-80867198D01*
X114238082Y-80864651D01*
X114371416Y-80814919D01*
X114489305Y-80774901D01*
X114496193Y-80772989D01*
X114642006Y-80741268D01*
X114756588Y-80718477D01*
X114764425Y-80717421D01*
X114950848Y-80704087D01*
X114990051Y-80701518D01*
X115027500Y-80699064D01*
X115031671Y-80698927D01*
X142199777Y-80698927D01*
X142203351Y-80699027D01*
G37*
%TD.AperFunction*%
%TA.AperFunction,Conductor*%
G36*
X116546095Y-85068546D02*
G01*
X116578372Y-85086259D01*
X116733401Y-85203332D01*
X116733404Y-85203333D01*
X116733405Y-85203334D01*
X116926253Y-85299361D01*
X116926255Y-85299361D01*
X116926258Y-85299363D01*
X116935181Y-85301901D01*
X116995942Y-85340232D01*
X117026336Y-85405328D01*
X117016711Y-85476522D01*
X116970124Y-85531210D01*
X116934212Y-85547440D01*
X116899949Y-85556896D01*
X116899944Y-85556897D01*
X116693993Y-85656079D01*
X116693989Y-85656081D01*
X116509041Y-85790454D01*
X116351058Y-85955690D01*
X116351058Y-85955691D01*
X116225128Y-86146467D01*
X116225123Y-86146475D01*
X116135275Y-86356684D01*
X116135274Y-86356686D01*
X116103313Y-86496719D01*
X116103314Y-86496720D01*
X117669375Y-86496720D01*
X117643155Y-86537519D01*
X117602000Y-86677681D01*
X117602000Y-86823759D01*
X117643155Y-86963921D01*
X117669375Y-87004720D01*
X116100807Y-87004720D01*
X116104835Y-87034456D01*
X116104835Y-87034458D01*
X116175480Y-87251880D01*
X116283806Y-87453185D01*
X116426340Y-87631916D01*
X116598493Y-87782321D01*
X116598498Y-87782324D01*
X116794740Y-87899574D01*
X116947413Y-87956874D01*
X117004837Y-88000045D01*
X117029805Y-88067408D01*
X117014391Y-88137577D01*
X116963487Y-88188273D01*
X116937506Y-88198876D01*
X116926263Y-88202074D01*
X116926253Y-88202078D01*
X116733405Y-88298105D01*
X116733400Y-88298108D01*
X116561477Y-88427938D01*
X116416329Y-88587157D01*
X116416324Y-88587163D01*
X116303139Y-88769964D01*
X116272355Y-88803996D01*
X116196193Y-88862437D01*
X116174568Y-88890619D01*
X116169065Y-88896893D01*
X115363812Y-89702147D01*
X115300758Y-89736577D01*
X115229099Y-89731452D01*
X115171587Y-89688399D01*
X115146481Y-89621087D01*
X115146156Y-89611991D01*
X115146156Y-86415890D01*
X115166396Y-86346958D01*
X115183495Y-86325739D01*
X116411384Y-85097849D01*
X116474436Y-85063421D01*
X116546095Y-85068546D01*
G37*
%TD.AperFunction*%
%TD*%
%TA.AperFunction,NonConductor*%
G36*
X132699410Y-84440740D02*
G01*
X132746456Y-84495035D01*
X132756680Y-84566145D01*
X132756408Y-84567945D01*
X132747465Y-84624407D01*
X132747465Y-85229607D01*
X132727225Y-85298539D01*
X132672930Y-85345585D01*
X132619965Y-85357107D01*
X129620569Y-85357107D01*
X129551637Y-85336867D01*
X129504591Y-85282572D01*
X129493069Y-85229607D01*
X129493069Y-85076091D01*
X129492659Y-85073501D01*
X129478216Y-84982303D01*
X129478062Y-84982000D01*
X129420620Y-84869264D01*
X129330912Y-84779556D01*
X129217872Y-84721960D01*
X129124093Y-84707107D01*
X129124089Y-84707107D01*
X127367673Y-84707107D01*
X127298741Y-84686867D01*
X127251695Y-84632572D01*
X127241471Y-84561462D01*
X127271315Y-84496112D01*
X127277517Y-84489451D01*
X127309124Y-84457844D01*
X127372178Y-84423414D01*
X127399280Y-84420500D01*
X132630478Y-84420500D01*
X132699410Y-84440740D01*
G37*
%TD.AperFunction*%
%TA.AperFunction,NonConductor*%
G36*
X116515953Y-93669489D02*
G01*
X116516346Y-93669831D01*
X116598492Y-93741600D01*
X116598498Y-93741604D01*
X116794740Y-93858854D01*
X116947413Y-93916154D01*
X117004837Y-93959325D01*
X117029805Y-94026688D01*
X117014391Y-94096857D01*
X116963487Y-94147553D01*
X116937506Y-94158156D01*
X116926263Y-94161354D01*
X116926253Y-94161358D01*
X116733405Y-94257385D01*
X116733400Y-94257388D01*
X116561477Y-94387219D01*
X116526681Y-94425388D01*
X116465283Y-94462693D01*
X116393464Y-94460882D01*
X116334026Y-94420530D01*
X116305838Y-94354449D01*
X116304958Y-94339491D01*
X116304958Y-93765847D01*
X116325198Y-93696915D01*
X116379493Y-93649869D01*
X116450603Y-93639645D01*
X116515953Y-93669489D01*
G37*
%TD.AperFunction*%
%TA.AperFunction,NonConductor*%
G36*
X131303995Y-94044029D02*
G01*
X131321649Y-94062766D01*
X131372592Y-94129156D01*
X131372593Y-94129157D01*
X131372595Y-94129159D01*
X131400774Y-94150781D01*
X131407050Y-94156285D01*
X132454728Y-95203963D01*
X132482366Y-95245326D01*
X132501524Y-95291576D01*
X132509204Y-95363006D01*
X132477048Y-95427249D01*
X132415263Y-95463908D01*
X132383730Y-95467869D01*
X131444410Y-95467869D01*
X131375478Y-95447629D01*
X131354254Y-95430525D01*
X131130344Y-95206615D01*
X131095914Y-95143561D01*
X131093000Y-95116459D01*
X131093000Y-94140387D01*
X131113240Y-94071455D01*
X131167535Y-94024409D01*
X131238645Y-94014185D01*
X131303995Y-94044029D01*
G37*
%TD.AperFunction*%
%TA.AperFunction,NonConductor*%
G36*
X116515953Y-96064150D02*
G01*
X116526673Y-96074603D01*
X116561474Y-96112778D01*
X116733401Y-96242612D01*
X116733404Y-96242613D01*
X116733405Y-96242614D01*
X116926253Y-96338641D01*
X116926258Y-96338643D01*
X117132654Y-96397367D01*
X117193415Y-96435699D01*
X117223807Y-96500795D01*
X117214181Y-96571989D01*
X117167593Y-96626677D01*
X117132654Y-96642633D01*
X116926258Y-96701356D01*
X116926253Y-96701358D01*
X116733405Y-96797385D01*
X116733400Y-96797388D01*
X116645418Y-96863830D01*
X116578212Y-96889219D01*
X116507948Y-96874243D01*
X116478426Y-96852239D01*
X116342302Y-96716115D01*
X116307872Y-96653061D01*
X116304958Y-96625959D01*
X116304958Y-96160508D01*
X116325198Y-96091576D01*
X116379493Y-96044530D01*
X116450603Y-96034306D01*
X116515953Y-96064150D01*
G37*
%TD.AperFunction*%
%TA.AperFunction,NonConductor*%
G36*
X146269016Y-96689109D02*
G01*
X146290240Y-96706213D01*
X146682156Y-97098129D01*
X146716586Y-97161183D01*
X146719500Y-97188285D01*
X146719500Y-98758453D01*
X146699260Y-98827385D01*
X146682156Y-98848609D01*
X146517912Y-99012853D01*
X146454858Y-99047283D01*
X146427756Y-99050197D01*
X146158000Y-99050197D01*
X146089068Y-99029957D01*
X146042022Y-98975662D01*
X146030500Y-98922697D01*
X146030499Y-96931652D01*
X146030498Y-96931644D01*
X146015646Y-96837864D01*
X146015645Y-96837862D01*
X146014965Y-96835768D01*
X146014888Y-96833080D01*
X146014076Y-96827952D01*
X146014738Y-96827847D01*
X146012914Y-96763956D01*
X146050013Y-96702434D01*
X146114484Y-96670736D01*
X146136225Y-96668869D01*
X146200084Y-96668869D01*
X146269016Y-96689109D01*
G37*
%TD.AperFunction*%
%TA.AperFunction,NonConductor*%
G36*
X128051282Y-99426242D02*
G01*
X128098328Y-99480537D01*
X128108552Y-99551647D01*
X128078708Y-99616997D01*
X128072506Y-99623658D01*
X128053558Y-99642606D01*
X127990504Y-99677036D01*
X127963402Y-99679950D01*
X127777643Y-99679950D01*
X127708711Y-99659710D01*
X127661665Y-99605415D01*
X127651441Y-99534305D01*
X127676490Y-99474834D01*
X127691029Y-99455886D01*
X127749049Y-99413520D01*
X127792182Y-99406002D01*
X127982350Y-99406002D01*
X128051282Y-99426242D01*
G37*
%TD.AperFunction*%
%TA.AperFunction,NonConductor*%
G36*
X130479811Y-96270846D02*
G01*
X130525410Y-96300151D01*
X130687450Y-96462191D01*
X130692954Y-96468467D01*
X130705103Y-96484300D01*
X130714581Y-96496651D01*
X130828283Y-96583897D01*
X130840022Y-96592905D01*
X130917774Y-96625111D01*
X130986092Y-96653410D01*
X130986098Y-96653411D01*
X130986101Y-96653413D01*
X131038355Y-96660292D01*
X131142861Y-96674051D01*
X131142863Y-96674051D01*
X131178079Y-96669414D01*
X131186405Y-96668869D01*
X143423775Y-96668869D01*
X143492707Y-96689109D01*
X143539753Y-96743404D01*
X143549977Y-96814514D01*
X143545034Y-96835771D01*
X143544352Y-96837867D01*
X143529500Y-96931644D01*
X143529500Y-97235168D01*
X143509260Y-97304100D01*
X143454965Y-97351146D01*
X143402000Y-97362668D01*
X135760374Y-97362668D01*
X135752048Y-97362122D01*
X135716832Y-97357486D01*
X135716831Y-97357486D01*
X135697151Y-97360077D01*
X135677471Y-97362668D01*
X135618770Y-97370396D01*
X135560069Y-97378124D01*
X135413992Y-97438631D01*
X135288551Y-97534884D01*
X135266925Y-97563067D01*
X135261422Y-97569341D01*
X133138609Y-99692156D01*
X133075555Y-99726586D01*
X133048453Y-99729500D01*
X132528874Y-99729500D01*
X132459942Y-99709260D01*
X132412896Y-99654965D01*
X132401374Y-99602000D01*
X132401374Y-98216142D01*
X132401373Y-98216138D01*
X132391119Y-98138249D01*
X132385918Y-98098741D01*
X132361077Y-98038771D01*
X132351373Y-97989980D01*
X132351373Y-97473987D01*
X132351373Y-97473984D01*
X132336520Y-97380199D01*
X132335463Y-97378124D01*
X132278924Y-97267160D01*
X132189216Y-97177452D01*
X132076176Y-97119856D01*
X131982395Y-97105003D01*
X131619358Y-97105003D01*
X131525567Y-97119857D01*
X131516029Y-97122957D01*
X131514822Y-97119244D01*
X131463126Y-97128943D01*
X131436328Y-97121074D01*
X131435717Y-97122957D01*
X131426179Y-97119857D01*
X131426178Y-97119857D01*
X131426176Y-97119856D01*
X131426171Y-97119855D01*
X131332395Y-97105003D01*
X130969358Y-97105003D01*
X130875567Y-97119857D01*
X130866029Y-97122957D01*
X130864822Y-97119244D01*
X130813126Y-97128943D01*
X130786328Y-97121074D01*
X130785717Y-97122957D01*
X130776179Y-97119857D01*
X130776178Y-97119857D01*
X130776176Y-97119856D01*
X130776171Y-97119855D01*
X130682397Y-97105003D01*
X130355992Y-97105003D01*
X130287060Y-97084763D01*
X130279585Y-97079573D01*
X130246836Y-97055057D01*
X130246832Y-97055055D01*
X130109968Y-97004008D01*
X130049457Y-96997503D01*
X129955559Y-96997503D01*
X129886627Y-96977263D01*
X129839581Y-96922968D01*
X129829357Y-96851858D01*
X129859201Y-96786508D01*
X129865403Y-96779847D01*
X129971199Y-96674051D01*
X130345102Y-96300148D01*
X130408152Y-96265721D01*
X130479811Y-96270846D01*
G37*
%TD.AperFunction*%
%TA.AperFunction,NonConductor*%
G36*
X129055400Y-95672740D02*
G01*
X129102446Y-95727035D01*
X129112670Y-95798145D01*
X129082826Y-95863495D01*
X129076624Y-95870156D01*
X128157047Y-96789732D01*
X128150773Y-96795235D01*
X128122591Y-96816860D01*
X128037691Y-96927506D01*
X128026341Y-96942296D01*
X128026337Y-96942303D01*
X127991546Y-97026296D01*
X127946468Y-97082234D01*
X127878302Y-97104922D01*
X127873753Y-97105003D01*
X127719359Y-97105003D01*
X127625567Y-97119857D01*
X127616029Y-97122957D01*
X127614822Y-97119244D01*
X127563126Y-97128943D01*
X127536328Y-97121074D01*
X127535717Y-97122957D01*
X127526179Y-97119857D01*
X127526178Y-97119857D01*
X127526176Y-97119856D01*
X127526171Y-97119855D01*
X127432395Y-97105003D01*
X127069358Y-97105003D01*
X126975568Y-97119857D01*
X126862531Y-97177452D01*
X126862531Y-97177453D01*
X126772824Y-97267160D01*
X126772823Y-97267160D01*
X126715227Y-97380199D01*
X126715227Y-97380200D01*
X126700374Y-97473979D01*
X126700374Y-97473983D01*
X126700374Y-97473984D01*
X126700374Y-97953195D01*
X126700375Y-98332000D01*
X126680135Y-98400932D01*
X126625841Y-98447978D01*
X126572875Y-98459500D01*
X126298013Y-98459500D01*
X126289687Y-98458954D01*
X126254471Y-98454318D01*
X126254470Y-98454318D01*
X126234790Y-98456909D01*
X126215110Y-98459500D01*
X126156409Y-98467228D01*
X126097708Y-98474956D01*
X125951631Y-98535463D01*
X125826190Y-98631716D01*
X125804564Y-98659899D01*
X125799061Y-98666173D01*
X124773080Y-99692156D01*
X124710026Y-99726586D01*
X124682924Y-99729500D01*
X122475228Y-99729500D01*
X122466902Y-99728954D01*
X122431686Y-99724318D01*
X122423331Y-99724318D01*
X122423331Y-99724047D01*
X122410871Y-99724047D01*
X122410871Y-99724318D01*
X122402515Y-99724318D01*
X122367298Y-99728954D01*
X122358973Y-99729500D01*
X119938500Y-99729500D01*
X119869568Y-99709260D01*
X119830099Y-99669122D01*
X119803669Y-99626436D01*
X119658526Y-99467222D01*
X119658524Y-99467221D01*
X119658522Y-99467218D01*
X119486599Y-99337388D01*
X119486594Y-99337385D01*
X119293746Y-99241358D01*
X119293741Y-99241356D01*
X119185353Y-99210518D01*
X119156633Y-99202346D01*
X119095873Y-99164016D01*
X119065481Y-99098919D01*
X119075107Y-99027725D01*
X119121695Y-98973037D01*
X119190455Y-98952219D01*
X119191526Y-98952214D01*
X123458744Y-98952214D01*
X123467069Y-98952759D01*
X123502286Y-98957396D01*
X123502288Y-98957396D01*
X123580667Y-98947077D01*
X123659048Y-98936758D01*
X123805127Y-98876250D01*
X123849519Y-98842186D01*
X123878448Y-98819990D01*
X123914017Y-98792695D01*
X123930568Y-98779996D01*
X123952194Y-98751810D01*
X123957686Y-98745547D01*
X127013391Y-95689844D01*
X127076445Y-95655414D01*
X127103547Y-95652500D01*
X128986468Y-95652500D01*
X129055400Y-95672740D01*
G37*
%TD.AperFunction*%
%TA.AperFunction,NonConductor*%
G36*
X143470933Y-98583908D02*
G01*
X143517979Y-98638203D01*
X143529501Y-98691168D01*
X143529501Y-98922697D01*
X143509261Y-98991629D01*
X143454966Y-99038675D01*
X143402001Y-99050197D01*
X136612853Y-99050197D01*
X136604523Y-99049651D01*
X136569303Y-99045014D01*
X136569302Y-99045014D01*
X136412539Y-99065653D01*
X136266463Y-99126160D01*
X136141018Y-99222417D01*
X136119400Y-99250593D01*
X136113895Y-99256869D01*
X135496173Y-99874590D01*
X135489899Y-99880093D01*
X135461717Y-99901718D01*
X135401039Y-99980797D01*
X135365463Y-100027160D01*
X135304957Y-100173232D01*
X135304955Y-100173239D01*
X135284318Y-100329998D01*
X135284318Y-100330000D01*
X135288954Y-100365211D01*
X135289500Y-100373542D01*
X135289500Y-101965911D01*
X135269260Y-102034843D01*
X135214965Y-102081889D01*
X135143855Y-102092113D01*
X135104116Y-102079514D01*
X134983268Y-102017939D01*
X134889486Y-102003086D01*
X133126448Y-102003086D01*
X133126447Y-102003087D01*
X133114785Y-102004933D01*
X133073233Y-102011514D01*
X133001984Y-102002304D01*
X132947024Y-101956036D01*
X132927360Y-101905521D01*
X132925646Y-101894696D01*
X132925645Y-101894694D01*
X132868050Y-101781657D01*
X132778342Y-101691949D01*
X132665302Y-101634353D01*
X132571523Y-101619500D01*
X130708138Y-101619500D01*
X130639206Y-101599260D01*
X130592160Y-101544965D01*
X130581936Y-101473855D01*
X130611780Y-101408505D01*
X130617968Y-101401858D01*
X131370140Y-100649687D01*
X131433194Y-100615257D01*
X131504853Y-100620382D01*
X131550452Y-100649687D01*
X131624587Y-100723822D01*
X131630091Y-100730098D01*
X131630096Y-100730104D01*
X131651718Y-100758282D01*
X131670269Y-100772517D01*
X131688821Y-100786753D01*
X131738805Y-100825106D01*
X131777159Y-100854536D01*
X131840928Y-100880950D01*
X131923232Y-100915042D01*
X131923235Y-100915043D01*
X131923238Y-100915044D01*
X131975492Y-100921923D01*
X132079998Y-100935682D01*
X132080000Y-100935682D01*
X132115216Y-100931045D01*
X132123542Y-100930500D01*
X133306458Y-100930500D01*
X133314783Y-100931045D01*
X133350000Y-100935682D01*
X133350002Y-100935682D01*
X133428381Y-100925363D01*
X133506762Y-100915044D01*
X133652841Y-100854536D01*
X133717416Y-100804986D01*
X133741179Y-100786753D01*
X133757797Y-100774000D01*
X133778282Y-100758282D01*
X133799908Y-100730096D01*
X133805400Y-100723833D01*
X135928223Y-98601012D01*
X135991277Y-98566582D01*
X136018379Y-98563668D01*
X143402001Y-98563668D01*
X143470933Y-98583908D01*
G37*
%TD.AperFunction*%
%TA.AperFunction,NonConductor*%
G36*
X124677935Y-100950740D02*
G01*
X124724981Y-101005035D01*
X124735205Y-101076145D01*
X124705361Y-101141495D01*
X124699159Y-101148156D01*
X124381490Y-101465825D01*
X124066171Y-101781141D01*
X124059898Y-101786643D01*
X124031718Y-101808268D01*
X124010093Y-101836448D01*
X124004591Y-101842722D01*
X123168432Y-102678882D01*
X123105378Y-102713312D01*
X123078276Y-102716226D01*
X122944920Y-102716226D01*
X122875988Y-102695986D01*
X122828942Y-102641691D01*
X122818718Y-102570581D01*
X122831316Y-102530843D01*
X122843669Y-102506600D01*
X122843669Y-102506598D01*
X122843670Y-102506597D01*
X122858522Y-102412819D01*
X122858523Y-102412815D01*
X122858522Y-101057999D01*
X122878762Y-100989068D01*
X122933057Y-100942022D01*
X122986022Y-100930500D01*
X124609003Y-100930500D01*
X124677935Y-100950740D01*
G37*
%TD.AperFunction*%
%TA.AperFunction,NonConductor*%
G36*
X120298955Y-100950740D02*
G01*
X120346001Y-101005035D01*
X120357523Y-101058000D01*
X120357523Y-102412811D01*
X120363087Y-102447940D01*
X120372377Y-102506600D01*
X120384729Y-102530842D01*
X120397990Y-102601448D01*
X120370972Y-102668016D01*
X120312254Y-102709410D01*
X120271126Y-102716226D01*
X120131766Y-102716226D01*
X120062834Y-102695986D01*
X120015788Y-102641691D01*
X120006437Y-102612155D01*
X119994911Y-102550499D01*
X119922377Y-102363270D01*
X119917085Y-102349609D01*
X119803669Y-102166436D01*
X119658526Y-102007222D01*
X119658524Y-102007221D01*
X119658522Y-102007218D01*
X119486599Y-101877388D01*
X119486594Y-101877385D01*
X119293746Y-101781358D01*
X119293741Y-101781356D01*
X119162270Y-101743950D01*
X119087343Y-101722632D01*
X119026584Y-101684302D01*
X118996192Y-101619205D01*
X119005818Y-101548011D01*
X119052406Y-101493323D01*
X119087342Y-101477368D01*
X119293742Y-101418643D01*
X119486599Y-101322612D01*
X119658526Y-101192778D01*
X119803669Y-101033564D01*
X119830099Y-100990877D01*
X119883594Y-100942928D01*
X119938500Y-100930500D01*
X120230023Y-100930500D01*
X120298955Y-100950740D01*
G37*
%TD.AperFunction*%
%TA.AperFunction,NonConductor*%
G36*
X115357151Y-97429893D02*
G01*
X115363812Y-97436095D01*
X116397824Y-98470107D01*
X116412720Y-98488912D01*
X116412783Y-98488865D01*
X116414822Y-98491565D01*
X116416065Y-98493134D01*
X116416331Y-98493564D01*
X116561474Y-98652778D01*
X116635633Y-98708780D01*
X116642297Y-98714580D01*
X116673253Y-98745536D01*
X116678757Y-98751812D01*
X116678762Y-98751818D01*
X116700384Y-98779996D01*
X116726444Y-98799992D01*
X116752504Y-98819990D01*
X116789802Y-98848609D01*
X116825825Y-98876250D01*
X116893091Y-98904112D01*
X116971898Y-98936756D01*
X116971900Y-98936756D01*
X116971904Y-98936758D01*
X117061716Y-98948581D01*
X117127415Y-98977645D01*
X117166972Y-99037615D01*
X117167827Y-99109452D01*
X117129709Y-99170347D01*
X117079965Y-99197623D01*
X116926259Y-99241356D01*
X116926253Y-99241358D01*
X116733405Y-99337385D01*
X116733400Y-99337388D01*
X116561477Y-99467218D01*
X116416330Y-99626436D01*
X116302913Y-99809612D01*
X116225088Y-100010501D01*
X116185500Y-100222277D01*
X116185500Y-100437722D01*
X116225088Y-100649498D01*
X116285325Y-100804986D01*
X116302915Y-100850391D01*
X116353230Y-100931652D01*
X116416330Y-101033563D01*
X116561477Y-101192781D01*
X116617607Y-101235168D01*
X116733401Y-101322612D01*
X116733404Y-101322613D01*
X116733405Y-101322614D01*
X116926253Y-101418641D01*
X116926258Y-101418643D01*
X117092087Y-101465825D01*
X117132654Y-101477367D01*
X117193415Y-101515699D01*
X117223807Y-101580795D01*
X117214181Y-101651989D01*
X117167593Y-101706677D01*
X117132654Y-101722632D01*
X117110009Y-101729075D01*
X116926258Y-101781356D01*
X116926253Y-101781358D01*
X116733405Y-101877385D01*
X116733400Y-101877388D01*
X116561477Y-102007218D01*
X116416330Y-102166436D01*
X116302913Y-102349612D01*
X116225088Y-102550501D01*
X116185500Y-102762277D01*
X116185500Y-102977722D01*
X116225088Y-103189498D01*
X116302913Y-103390387D01*
X116389600Y-103530393D01*
X116416331Y-103573564D01*
X116548185Y-103718201D01*
X116561477Y-103732781D01*
X116657627Y-103805390D01*
X116733401Y-103862612D01*
X116733404Y-103862613D01*
X116733405Y-103862614D01*
X116926253Y-103958641D01*
X116926258Y-103958643D01*
X117072208Y-104000169D01*
X117132654Y-104017367D01*
X117193415Y-104055699D01*
X117223807Y-104120795D01*
X117214181Y-104191989D01*
X117167593Y-104246677D01*
X117132654Y-104262633D01*
X116926258Y-104321356D01*
X116926253Y-104321358D01*
X116733405Y-104417385D01*
X116733400Y-104417388D01*
X116561477Y-104547218D01*
X116416330Y-104706436D01*
X116302913Y-104889612D01*
X116225088Y-105090501D01*
X116185500Y-105302277D01*
X116185500Y-105517722D01*
X116225088Y-105729498D01*
X116302913Y-105930387D01*
X116302915Y-105930391D01*
X116357123Y-106017940D01*
X116416330Y-106113563D01*
X116561477Y-106272781D01*
X116690419Y-106370153D01*
X116733401Y-106402612D01*
X116733404Y-106402613D01*
X116733405Y-106402614D01*
X116926253Y-106498641D01*
X116926258Y-106498643D01*
X117133476Y-106557601D01*
X117280621Y-106571236D01*
X117294257Y-106572500D01*
X117294258Y-106572500D01*
X118925742Y-106572500D01*
X119086524Y-106557601D01*
X119293742Y-106498643D01*
X119486599Y-106402612D01*
X119658526Y-106272778D01*
X119803669Y-106113564D01*
X119917085Y-105930391D01*
X119994912Y-105729496D01*
X120034500Y-105517721D01*
X120034500Y-105302279D01*
X119994912Y-105090504D01*
X119972887Y-105033652D01*
X119917086Y-104889612D01*
X119917085Y-104889609D01*
X119803669Y-104706436D01*
X119658526Y-104547222D01*
X119658524Y-104547221D01*
X119658522Y-104547218D01*
X119486599Y-104417388D01*
X119486594Y-104417385D01*
X119293746Y-104321358D01*
X119293741Y-104321356D01*
X119157253Y-104282523D01*
X119087343Y-104262632D01*
X119026584Y-104224302D01*
X118996192Y-104159205D01*
X119005818Y-104088011D01*
X119052406Y-104033323D01*
X119087342Y-104017368D01*
X119293742Y-103958643D01*
X119350074Y-103930592D01*
X119406906Y-103917226D01*
X120347888Y-103917226D01*
X120416820Y-103937466D01*
X120463866Y-103991761D01*
X120474090Y-104062871D01*
X120444246Y-104128221D01*
X120438044Y-104134882D01*
X120429973Y-104142953D01*
X120429972Y-104142953D01*
X120372376Y-104255992D01*
X120372376Y-104255993D01*
X120357523Y-104349772D01*
X120357523Y-106412811D01*
X120372377Y-106506601D01*
X120429972Y-106619638D01*
X120519680Y-106709346D01*
X120576200Y-106738144D01*
X120632719Y-106766942D01*
X120726504Y-106781796D01*
X120880023Y-106781795D01*
X120948954Y-106802035D01*
X120996001Y-106856329D01*
X121007523Y-106909295D01*
X121007523Y-107222000D01*
X120987283Y-107290932D01*
X120932988Y-107337978D01*
X120880023Y-107349500D01*
X115871547Y-107349500D01*
X115802615Y-107329260D01*
X115781391Y-107312156D01*
X115183500Y-106714265D01*
X115149070Y-106651211D01*
X115146156Y-106624109D01*
X115146156Y-97526251D01*
X115166396Y-97457319D01*
X115220691Y-97410273D01*
X115291801Y-97400049D01*
X115357151Y-97429893D01*
G37*
%TD.AperFunction*%
%TA.AperFunction,NonConductor*%
G36*
X125781989Y-107575818D02*
G01*
X125836677Y-107622406D01*
X125852633Y-107657345D01*
X125911356Y-107863741D01*
X125911358Y-107863746D01*
X125978722Y-107999030D01*
X125991330Y-108069757D01*
X125963698Y-108136073D01*
X125954745Y-108146018D01*
X125684860Y-108415905D01*
X125621807Y-108450335D01*
X125594704Y-108453249D01*
X125405383Y-108453249D01*
X125336451Y-108433009D01*
X125289405Y-108378714D01*
X125279181Y-108307604D01*
X125309025Y-108242254D01*
X125319477Y-108231535D01*
X125322778Y-108228526D01*
X125452612Y-108056599D01*
X125548643Y-107863742D01*
X125607367Y-107657343D01*
X125645698Y-107596584D01*
X125710795Y-107566192D01*
X125781989Y-107575818D01*
G37*
%TD.AperFunction*%
%TA.AperFunction,NonConductor*%
G36*
X123818880Y-103865514D02*
G01*
X123855539Y-103927299D01*
X123859500Y-103958831D01*
X123859500Y-104851499D01*
X123839260Y-104920431D01*
X123799122Y-104959901D01*
X123756432Y-104986333D01*
X123597218Y-105131477D01*
X123467388Y-105303400D01*
X123467385Y-105303405D01*
X123371358Y-105496253D01*
X123371356Y-105496258D01*
X123312399Y-105703476D01*
X123297500Y-105864256D01*
X123297500Y-107495743D01*
X123312399Y-107656523D01*
X123371356Y-107863741D01*
X123371358Y-107863746D01*
X123467385Y-108056594D01*
X123467388Y-108056599D01*
X123597222Y-108228526D01*
X123600513Y-108231526D01*
X123637818Y-108292921D01*
X123636009Y-108364740D01*
X123595658Y-108424179D01*
X123529578Y-108452368D01*
X123514617Y-108453249D01*
X122714711Y-108453249D01*
X122645779Y-108433009D01*
X122624555Y-108415905D01*
X122245867Y-108037217D01*
X122211437Y-107974163D01*
X122208523Y-107947061D01*
X122208523Y-106909295D01*
X122228763Y-106840363D01*
X122283058Y-106793317D01*
X122336023Y-106781795D01*
X122489538Y-106781795D01*
X122489541Y-106781795D01*
X122583327Y-106766942D01*
X122696365Y-106709346D01*
X122696366Y-106709346D01*
X122786073Y-106619639D01*
X122786073Y-106619638D01*
X122810091Y-106572500D01*
X122843669Y-106506600D01*
X122858523Y-106412815D01*
X122858522Y-104349778D01*
X122843669Y-104255992D01*
X122835689Y-104240330D01*
X122786073Y-104142953D01*
X122778002Y-104134882D01*
X122743572Y-104071828D01*
X122748697Y-104000169D01*
X122791750Y-103942657D01*
X122859062Y-103917551D01*
X122868158Y-103917226D01*
X123336281Y-103917226D01*
X123344606Y-103917771D01*
X123379823Y-103922408D01*
X123379825Y-103922408D01*
X123458204Y-103912089D01*
X123536585Y-103901770D01*
X123536590Y-103901767D01*
X123536593Y-103901767D01*
X123672908Y-103845303D01*
X123682664Y-103841262D01*
X123682664Y-103841261D01*
X123683207Y-103841037D01*
X123754637Y-103833357D01*
X123818880Y-103865514D01*
G37*
%TD.AperFunction*%
M02*
