%TF.GenerationSoftware,KiCad,Pcbnew,7.0.9*%
%TF.CreationDate,2024-02-09T12:53:57+01:00*%
%TF.ProjectId,SwitchBoard,53776974-6368-4426-9f61-72642e6b6963,rev?*%
%TF.SameCoordinates,Original*%
%TF.FileFunction,Copper,L1,Top*%
%TF.FilePolarity,Positive*%
%FSLAX46Y46*%
G04 Gerber Fmt 4.6, Leading zero omitted, Abs format (unit mm)*
G04 Created by KiCad (PCBNEW 7.0.9) date 2024-02-09 12:53:57*
%MOMM*%
%LPD*%
G01*
G04 APERTURE LIST*
%TA.AperFunction,ComponentPad*%
%ADD10C,2.500000*%
%TD*%
%TA.AperFunction,ComponentPad*%
%ADD11O,1.700000X1.700000*%
%TD*%
%TA.AperFunction,SMDPad,CuDef*%
%ADD12R,1.700000X1.400000*%
%TD*%
%TA.AperFunction,Conductor*%
%ADD13C,0.450000*%
%TD*%
G04 APERTURE END LIST*
D10*
%TO.P,SW4,2,2*%
%TO.N,Net-(J7-Pin_1)*%
X198770000Y-101600000D03*
%TO.P,SW4,1,1*%
%TO.N,Net-(J4-Pin_1)*%
X205120000Y-104140000D03*
%TD*%
D11*
%TO.P,J7,1,Pin_1*%
%TO.N,Net-(J7-Pin_1)*%
X241300000Y-86360000D03*
%TO.P,J7,2*%
%TO.N,N/C*%
X243840000Y-86360000D03*
%TD*%
D10*
%TO.P,SW3,2,2*%
%TO.N,Net-(J7-Pin_1)*%
X216860000Y-81280000D03*
%TO.P,SW3,1,1*%
%TO.N,Net-(J3-Pin_1)*%
X223210000Y-83820000D03*
%TD*%
%TO.P,SW2,1,1*%
%TO.N,Net-(J2-Pin_1)*%
X223210000Y-104140000D03*
%TO.P,SW2,2,2*%
%TO.N,Net-(J7-Pin_1)*%
X216860000Y-101600000D03*
%TD*%
%TO.P,SW6,2,2*%
%TO.N,Net-(J7-Pin_1)*%
X190500000Y-81280000D03*
%TO.P,SW6,1,1*%
%TO.N,Net-(J6-Pin_1)*%
X196850000Y-83820000D03*
%TD*%
%TO.P,SW5,2,2*%
%TO.N,Net-(J7-Pin_1)*%
X172720000Y-96520000D03*
%TO.P,SW5,1,1*%
%TO.N,Net-(J5-Pin_1)*%
X179070000Y-99060000D03*
%TD*%
D12*
%TO.P,R5,1*%
%TO.N,Net-(J5-Pin_1)*%
X175260000Y-132540000D03*
%TO.P,R5,2*%
%TO.N,Net-(J8-Pin_1)*%
X175260000Y-135940000D03*
%TD*%
D11*
%TO.P,J6,1,Pin_1*%
%TO.N,Net-(J6-Pin_1)*%
X180580000Y-127000000D03*
%TD*%
D12*
%TO.P,R2,1*%
%TO.N,Net-(J2-Pin_1)*%
X215900000Y-132970000D03*
%TO.P,R2,2*%
%TO.N,Net-(J8-Pin_1)*%
X215900000Y-136370000D03*
%TD*%
D10*
%TO.P,SW1,1,1*%
%TO.N,Net-(J1-Pin_1)*%
X241300000Y-104140000D03*
%TO.P,SW1,2,2*%
%TO.N,Net-(J7-Pin_1)*%
X234950000Y-101600000D03*
%TD*%
D11*
%TO.P,J4,1,Pin_1*%
%TO.N,Net-(J4-Pin_1)*%
X195340000Y-127100000D03*
%TD*%
D12*
%TO.P,R6,1*%
%TO.N,Net-(J6-Pin_1)*%
X180340000Y-132540000D03*
%TO.P,R6,2*%
%TO.N,Net-(J8-Pin_1)*%
X180340000Y-135940000D03*
%TD*%
D11*
%TO.P,J1,1,Pin_1*%
%TO.N,Net-(J1-Pin_1)*%
X224740000Y-126810000D03*
%TD*%
%TO.P,J2,1,Pin_1*%
%TO.N,Net-(J2-Pin_1)*%
X215660000Y-127100000D03*
%TD*%
%TO.P,J3,1,Pin_1*%
%TO.N,Net-(J3-Pin_1)*%
X200900000Y-127000000D03*
%TD*%
D12*
%TO.P,R4,1*%
%TO.N,Net-(J4-Pin_1)*%
X195580000Y-132920000D03*
%TO.P,R4,2*%
%TO.N,Net-(J8-Pin_1)*%
X195580000Y-136320000D03*
%TD*%
D11*
%TO.P,J8,1,Pin_1*%
%TO.N,Net-(J8-Pin_1)*%
X175260000Y-142240000D03*
%TO.P,J8,2*%
%TO.N,N/C*%
X172720000Y-142240000D03*
%TD*%
%TO.P,J5,1,Pin_1*%
%TO.N,Net-(J5-Pin_1)*%
X175020000Y-127100000D03*
%TD*%
D12*
%TO.P,R3,1*%
%TO.N,Net-(J3-Pin_1)*%
X200660000Y-132920000D03*
%TO.P,R3,2*%
%TO.N,Net-(J8-Pin_1)*%
X200660000Y-136320000D03*
%TD*%
%TO.P,R1,1*%
%TO.N,Net-(J1-Pin_1)*%
X224790000Y-132970000D03*
%TO.P,R1,2*%
%TO.N,Net-(J8-Pin_1)*%
X224790000Y-136370000D03*
%TD*%
D13*
%TO.N,Net-(J7-Pin_1)*%
X234950000Y-101600000D02*
X234950000Y-86360000D01*
X234950000Y-86360000D02*
X234950000Y-82550000D01*
X241300000Y-86360000D02*
X234950000Y-86360000D01*
X198770000Y-98410000D02*
X203200000Y-93980000D01*
X198770000Y-101600000D02*
X198770000Y-98410000D01*
X203200000Y-93980000D02*
X203200000Y-81280000D01*
X234950000Y-82550000D02*
X233680000Y-81280000D01*
X233680000Y-81280000D02*
X216860000Y-81280000D01*
X216860000Y-101600000D02*
X234950000Y-101600000D01*
X190500000Y-81280000D02*
X203200000Y-81280000D01*
X203200000Y-81280000D02*
X216860000Y-81280000D01*
X172720000Y-96520000D02*
X172720000Y-88900000D01*
X172720000Y-88900000D02*
X180340000Y-81280000D01*
X180340000Y-81280000D02*
X190500000Y-81280000D01*
%TO.N,Net-(J6-Pin_1)*%
X196850000Y-83820000D02*
X196850000Y-92710000D01*
X196850000Y-92710000D02*
X187960000Y-101600000D01*
X187960000Y-101600000D02*
X187960000Y-119620000D01*
X187960000Y-119620000D02*
X180580000Y-127000000D01*
%TO.N,Net-(J5-Pin_1)*%
X179070000Y-99060000D02*
X179070000Y-123050000D01*
X179070000Y-123050000D02*
X175020000Y-127100000D01*
%TO.N,Net-(J3-Pin_1)*%
X223210000Y-86670000D02*
X210820000Y-99060000D01*
X210820000Y-99060000D02*
X210820000Y-117080000D01*
X223210000Y-83820000D02*
X223210000Y-86670000D01*
X210820000Y-117080000D02*
X200900000Y-127000000D01*
%TO.N,Net-(J4-Pin_1)*%
X205120000Y-104140000D02*
X205120000Y-109840000D01*
X195340000Y-119620000D02*
X195340000Y-127100000D01*
X205120000Y-109840000D02*
X195340000Y-119620000D01*
%TO.N,Net-(J2-Pin_1)*%
X223210000Y-104140000D02*
X223210000Y-119550000D01*
X223210000Y-119550000D02*
X215660000Y-127100000D01*
X215660000Y-127100000D02*
X215660000Y-132730000D01*
%TO.N,Net-(J1-Pin_1)*%
X241300000Y-104140000D02*
X241300000Y-110250000D01*
X241300000Y-110250000D02*
X224740000Y-126810000D01*
X224740000Y-126810000D02*
X224740000Y-132920000D01*
X224740000Y-132920000D02*
X224790000Y-132970000D01*
%TO.N,Net-(J2-Pin_1)*%
X215800000Y-127100000D02*
X215660000Y-127100000D01*
X215660000Y-132730000D02*
X215900000Y-132970000D01*
%TO.N,Net-(J3-Pin_1)*%
X200900000Y-127000000D02*
X200900000Y-132680000D01*
X200900000Y-132680000D02*
X200660000Y-132920000D01*
%TO.N,Net-(J4-Pin_1)*%
X195340000Y-127100000D02*
X195340000Y-132680000D01*
X195340000Y-132680000D02*
X195580000Y-132920000D01*
%TO.N,Net-(J5-Pin_1)*%
X175020000Y-127100000D02*
X175020000Y-132300000D01*
X175020000Y-132300000D02*
X175260000Y-132540000D01*
%TO.N,Net-(J6-Pin_1)*%
X180580000Y-127000000D02*
X180580000Y-132300000D01*
X179720000Y-126140000D02*
X180580000Y-127000000D01*
X180580000Y-132300000D02*
X180340000Y-132540000D01*
%TO.N,Net-(J8-Pin_1)*%
X223520000Y-142240000D02*
X214630000Y-142240000D01*
X200660000Y-140970000D02*
X199390000Y-142240000D01*
X200660000Y-136320000D02*
X200660000Y-140970000D01*
X194310000Y-142240000D02*
X179070000Y-142240000D01*
X215900000Y-140970000D02*
X214630000Y-142240000D01*
X224790000Y-136370000D02*
X224790000Y-140970000D01*
X195580000Y-140970000D02*
X194310000Y-142240000D01*
X179070000Y-142240000D02*
X175260000Y-142240000D01*
X180340000Y-135940000D02*
X180340000Y-140970000D01*
X224790000Y-140970000D02*
X223520000Y-142240000D01*
X199390000Y-142240000D02*
X194310000Y-142240000D01*
X180340000Y-140970000D02*
X179070000Y-142240000D01*
X175260000Y-135940000D02*
X175260000Y-142240000D01*
X214630000Y-142240000D02*
X199390000Y-142240000D01*
X195580000Y-136320000D02*
X195580000Y-140970000D01*
X215900000Y-136370000D02*
X215900000Y-140970000D01*
%TD*%
M02*
