<?xml version="1.0" standalone="no"?>
 <!DOCTYPE svg PUBLIC "-//W3C//DTD SVG 1.1//EN" 
 "http://www.w3.org/Graphics/SVG/1.1/DTD/svg11.dtd"> 
<svg
  xmlns:svg="http://www.w3.org/2000/svg"
  xmlns="http://www.w3.org/2000/svg"
  xmlns:xlink="http://www.w3.org/1999/xlink"
  version="1.1"
  width="99.9490mm" height="71.1962mm" viewBox="0.0000 0.0000 99.9490 71.1962">
<title>SVG Image created as SwitchBoard-F_Cu.svg date 2024/02/10 16:14:40 </title>
  <desc>Image generated by PCBNEW </desc>
<g style="fill:#000000; fill-opacity:1.0000;stroke:#000000; stroke-opacity:1.0000;
stroke-linecap:round; stroke-linejoin:round;"
 transform="translate(0 0) scale(1 1)">
</g>
<g style="fill:#000000; fill-opacity:0.0; 
stroke:#000000; stroke-width:0.0000; stroke-opacity:1; 
stroke-linecap:round; stroke-linejoin:round;">
<g >
</g>
<g style="fill:#C83434; fill-opacity:0.0; 
stroke:#C83434; stroke-width:0.0000; stroke-opacity:1; 
stroke-linecap:round; stroke-linejoin:round;">
</g>
<g style="fill:#C83434; fill-opacity:0.0; 
stroke:#C83434; stroke-width:0.0000; stroke-opacity:1; 
stroke-linecap:round; stroke-linejoin:round;">
</g>
<g style="fill:#C83434; fill-opacity:1.0000; 
stroke:#C83434; stroke-width:0.0000; stroke-opacity:1; 
stroke-linecap:round; stroke-linejoin:round;">
<path style="fill:#C83434; fill-opacity:1.0000; 
stroke:#C83434; stroke-width:0.0000; stroke-opacity:1; 
stroke-linecap:round; stroke-linejoin:round;fill-rule:evenodd;"
d="M 17.7769,55.6900
19.4769,55.6900
19.4769,57.0900
17.7769,57.0900
Z" /> 
<path style="fill:#C83434; fill-opacity:1.0000; 
stroke:#C83434; stroke-width:0.0000; stroke-opacity:1; 
stroke-linecap:round; stroke-linejoin:round;fill-rule:evenodd;"
d="M 17.7769,59.0900
19.4769,59.0900
19.4769,60.4900
17.7769,60.4900
Z" /> 
</g>
<g >
</g>
<g style="fill:#C83434; fill-opacity:1.0000; 
stroke:#C83434; stroke-width:0.0000; stroke-opacity:1; 
stroke-linecap:round; stroke-linejoin:round;">
<circle cx="23.9469" cy="50.8500" r="0.8500" /> 
</g>
<g >
</g>
<g style="fill:#C83434; fill-opacity:1.0000; 
stroke:#C83434; stroke-width:0.0000; stroke-opacity:1; 
stroke-linecap:round; stroke-linejoin:round;">
<path style="fill:#C83434; fill-opacity:1.0000; 
stroke:#C83434; stroke-width:0.0000; stroke-opacity:1; 
stroke-linecap:round; stroke-linejoin:round;fill-rule:evenodd;"
d="M 58.4169,56.1200
60.1169,56.1200
60.1169,57.5200
58.4169,57.5200
Z" /> 
<path style="fill:#C83434; fill-opacity:1.0000; 
stroke:#C83434; stroke-width:0.0000; stroke-opacity:1; 
stroke-linecap:round; stroke-linejoin:round;fill-rule:evenodd;"
d="M 58.4169,59.5200
60.1169,59.5200
60.1169,60.9200
58.4169,60.9200
Z" /> 
</g>
<g >
</g>
<g style="fill:#C83434; fill-opacity:1.0000; 
stroke:#C83434; stroke-width:0.0000; stroke-opacity:1; 
stroke-linecap:round; stroke-linejoin:round;">
<circle cx="38.7069" cy="50.9500" r="0.8500" /> 
</g>
<g >
</g>
<g style="fill:#C83434; fill-opacity:1.0000; 
stroke:#C83434; stroke-width:0.0000; stroke-opacity:1; 
stroke-linecap:round; stroke-linejoin:round;">
<path style="fill:#C83434; fill-opacity:1.0000; 
stroke:#C83434; stroke-width:0.0000; stroke-opacity:1; 
stroke-linecap:round; stroke-linejoin:round;fill-rule:evenodd;"
d="M 22.8569,55.6900
24.5569,55.6900
24.5569,57.0900
22.8569,57.0900
Z" /> 
<path style="fill:#C83434; fill-opacity:1.0000; 
stroke:#C83434; stroke-width:0.0000; stroke-opacity:1; 
stroke-linecap:round; stroke-linejoin:round;fill-rule:evenodd;"
d="M 22.8569,59.0900
24.5569,59.0900
24.5569,60.4900
22.8569,60.4900
Z" /> 
</g>
<g >
</g>
<g style="fill:#C83434; fill-opacity:1.0000; 
stroke:#C83434; stroke-width:0.0000; stroke-opacity:1; 
stroke-linecap:round; stroke-linejoin:round;">
<circle cx="68.1069" cy="50.6600" r="0.8500" /> 
</g>
<g >
</g>
<g style="fill:#C83434; fill-opacity:1.0000; 
stroke:#C83434; stroke-width:0.0000; stroke-opacity:1; 
stroke-linecap:round; stroke-linejoin:round;">
<circle cx="59.0269" cy="50.9500" r="0.8500" /> 
</g>
<g >
</g>
<g style="fill:#C83434; fill-opacity:1.0000; 
stroke:#C83434; stroke-width:0.0000; stroke-opacity:1; 
stroke-linecap:round; stroke-linejoin:round;">
<circle cx="44.2669" cy="50.8500" r="0.8500" /> 
</g>
<g >
</g>
<g style="fill:#C83434; fill-opacity:1.0000; 
stroke:#C83434; stroke-width:0.0000; stroke-opacity:1; 
stroke-linecap:round; stroke-linejoin:round;">
<path style="fill:#C83434; fill-opacity:1.0000; 
stroke:#C83434; stroke-width:0.0000; stroke-opacity:1; 
stroke-linecap:round; stroke-linejoin:round;fill-rule:evenodd;"
d="M 38.0969,56.0700
39.7969,56.0700
39.7969,57.4700
38.0969,57.4700
Z" /> 
<path style="fill:#C83434; fill-opacity:1.0000; 
stroke:#C83434; stroke-width:0.0000; stroke-opacity:1; 
stroke-linecap:round; stroke-linejoin:round;fill-rule:evenodd;"
d="M 38.0969,59.4700
39.7969,59.4700
39.7969,60.8700
38.0969,60.8700
Z" /> 
</g>
<g >
</g>
<g style="fill:#C83434; fill-opacity:1.0000; 
stroke:#C83434; stroke-width:0.0000; stroke-opacity:1; 
stroke-linecap:round; stroke-linejoin:round;">
<circle cx="18.6269" cy="66.0900" r="0.8500" /> 
<circle cx="16.0869" cy="66.0900" r="0.8500" /> 
</g>
<g >
</g>
<g style="fill:#C83434; fill-opacity:1.0000; 
stroke:#C83434; stroke-width:0.0000; stroke-opacity:1; 
stroke-linecap:round; stroke-linejoin:round;">
<circle cx="84.6669" cy="10.2100" r="0.8500" /> 
<circle cx="87.2069" cy="10.2100" r="0.8500" /> 
</g>
<g >
</g>
<g style="fill:#C83434; fill-opacity:1.0000; 
stroke:#C83434; stroke-width:0.0000; stroke-opacity:1; 
stroke-linecap:round; stroke-linejoin:round;">
<circle cx="18.3869" cy="50.9500" r="0.8500" /> 
</g>
<g >
</g>
<g style="fill:#C83434; fill-opacity:1.0000; 
stroke:#C83434; stroke-width:0.0000; stroke-opacity:1; 
stroke-linecap:round; stroke-linejoin:round;">
<path style="fill:#C83434; fill-opacity:1.0000; 
stroke:#C83434; stroke-width:0.0000; stroke-opacity:1; 
stroke-linecap:round; stroke-linejoin:round;fill-rule:evenodd;"
d="M 43.1769,56.0700
44.8769,56.0700
44.8769,57.4700
43.1769,57.4700
Z" /> 
<path style="fill:#C83434; fill-opacity:1.0000; 
stroke:#C83434; stroke-width:0.0000; stroke-opacity:1; 
stroke-linecap:round; stroke-linejoin:round;fill-rule:evenodd;"
d="M 43.1769,59.4700
44.8769,59.4700
44.8769,60.8700
43.1769,60.8700
Z" /> 
</g>
<g >
</g>
<g style="fill:#C83434; fill-opacity:1.0000; 
stroke:#C83434; stroke-width:0.0000; stroke-opacity:1; 
stroke-linecap:round; stroke-linejoin:round;">
<path style="fill:#C83434; fill-opacity:1.0000; 
stroke:#C83434; stroke-width:0.0000; stroke-opacity:1; 
stroke-linecap:round; stroke-linejoin:round;fill-rule:evenodd;"
d="M 67.3069,56.1200
69.0069,56.1200
69.0069,57.5200
67.3069,57.5200
Z" /> 
<path style="fill:#C83434; fill-opacity:1.0000; 
stroke:#C83434; stroke-width:0.0000; stroke-opacity:1; 
stroke-linecap:round; stroke-linejoin:round;fill-rule:evenodd;"
d="M 67.3069,59.5200
69.0069,59.5200
69.0069,60.9200
67.3069,60.9200
Z" /> 
</g>
<g >
</g>
<g style="fill:#C83434; fill-opacity:1.0000; 
stroke:#C83434; stroke-width:0.0000; stroke-opacity:1; 
stroke-linecap:round; stroke-linejoin:round;">
<circle cx="84.6669" cy="27.9900" r="1.2500" /> 
</g>
<g style="fill:#C83434; fill-opacity:1.0000; 
stroke:#C83434; stroke-width:0.0212; stroke-opacity:1; 
stroke-linecap:round; stroke-linejoin:round;">
</g>
<g style="fill:#C83434; fill-opacity:1.0000; 
stroke:#C83434; stroke-width:0.0000; stroke-opacity:1; 
stroke-linecap:round; stroke-linejoin:round;">
<circle cx="78.3169" cy="25.4500" r="1.2500" /> 
</g>
<g style="fill:#C83434; fill-opacity:1.0000; 
stroke:#C83434; stroke-width:0.0212; stroke-opacity:1; 
stroke-linecap:round; stroke-linejoin:round;">
</g>
<g >
</g>
<g style="fill:#C83434; fill-opacity:1.0000; 
stroke:#C83434; stroke-width:0.0212; stroke-opacity:1; 
stroke-linecap:round; stroke-linejoin:round;">
</g>
<g style="fill:#C83434; fill-opacity:1.0000; 
stroke:#C83434; stroke-width:0.0000; stroke-opacity:1; 
stroke-linecap:round; stroke-linejoin:round;">
<circle cx="66.5769" cy="7.6700" r="1.2500" /> 
</g>
<g style="fill:#C83434; fill-opacity:1.0000; 
stroke:#C83434; stroke-width:0.0212; stroke-opacity:1; 
stroke-linecap:round; stroke-linejoin:round;">
</g>
<g style="fill:#C83434; fill-opacity:1.0000; 
stroke:#C83434; stroke-width:0.0000; stroke-opacity:1; 
stroke-linecap:round; stroke-linejoin:round;">
<circle cx="60.2269" cy="5.1300" r="1.2500" /> 
</g>
<g style="fill:#C83434; fill-opacity:1.0000; 
stroke:#C83434; stroke-width:0.0212; stroke-opacity:1; 
stroke-linecap:round; stroke-linejoin:round;">
</g>
<g >
</g>
<g style="fill:#C83434; fill-opacity:1.0000; 
stroke:#C83434; stroke-width:0.0212; stroke-opacity:1; 
stroke-linecap:round; stroke-linejoin:round;">
</g>
<g style="fill:#C83434; fill-opacity:1.0000; 
stroke:#C83434; stroke-width:0.0000; stroke-opacity:1; 
stroke-linecap:round; stroke-linejoin:round;">
<circle cx="66.5769" cy="27.9900" r="1.2500" /> 
</g>
<g style="fill:#C83434; fill-opacity:1.0000; 
stroke:#C83434; stroke-width:0.0212; stroke-opacity:1; 
stroke-linecap:round; stroke-linejoin:round;">
</g>
<g style="fill:#C83434; fill-opacity:1.0000; 
stroke:#C83434; stroke-width:0.0000; stroke-opacity:1; 
stroke-linecap:round; stroke-linejoin:round;">
<circle cx="60.2269" cy="25.4500" r="1.2500" /> 
</g>
<g style="fill:#C83434; fill-opacity:1.0000; 
stroke:#C83434; stroke-width:0.0212; stroke-opacity:1; 
stroke-linecap:round; stroke-linejoin:round;">
</g>
<g >
</g>
<g style="fill:#C83434; fill-opacity:1.0000; 
stroke:#C83434; stroke-width:0.0212; stroke-opacity:1; 
stroke-linecap:round; stroke-linejoin:round;">
</g>
<g style="fill:#C83434; fill-opacity:1.0000; 
stroke:#C83434; stroke-width:0.0000; stroke-opacity:1; 
stroke-linecap:round; stroke-linejoin:round;">
<circle cx="40.2169" cy="7.6700" r="1.2500" /> 
</g>
<g style="fill:#C83434; fill-opacity:1.0000; 
stroke:#C83434; stroke-width:0.0212; stroke-opacity:1; 
stroke-linecap:round; stroke-linejoin:round;">
</g>
<g style="fill:#C83434; fill-opacity:1.0000; 
stroke:#C83434; stroke-width:0.0000; stroke-opacity:1; 
stroke-linecap:round; stroke-linejoin:round;">
<circle cx="33.8669" cy="5.1300" r="1.2500" /> 
</g>
<g style="fill:#C83434; fill-opacity:1.0000; 
stroke:#C83434; stroke-width:0.0212; stroke-opacity:1; 
stroke-linecap:round; stroke-linejoin:round;">
</g>
<g >
</g>
<g style="fill:#C83434; fill-opacity:1.0000; 
stroke:#C83434; stroke-width:0.0212; stroke-opacity:1; 
stroke-linecap:round; stroke-linejoin:round;">
</g>
<g style="fill:#C83434; fill-opacity:1.0000; 
stroke:#C83434; stroke-width:0.0000; stroke-opacity:1; 
stroke-linecap:round; stroke-linejoin:round;">
<circle cx="22.4369" cy="22.9100" r="1.2500" /> 
</g>
<g style="fill:#C83434; fill-opacity:1.0000; 
stroke:#C83434; stroke-width:0.0212; stroke-opacity:1; 
stroke-linecap:round; stroke-linejoin:round;">
</g>
<g style="fill:#C83434; fill-opacity:1.0000; 
stroke:#C83434; stroke-width:0.0000; stroke-opacity:1; 
stroke-linecap:round; stroke-linejoin:round;">
<circle cx="16.0869" cy="20.3700" r="1.2500" /> 
</g>
<g style="fill:#C83434; fill-opacity:1.0000; 
stroke:#C83434; stroke-width:0.0212; stroke-opacity:1; 
stroke-linecap:round; stroke-linejoin:round;">
</g>
<g >
</g>
<g style="fill:#C83434; fill-opacity:1.0000; 
stroke:#C83434; stroke-width:0.0212; stroke-opacity:1; 
stroke-linecap:round; stroke-linejoin:round;">
</g>
<g style="fill:#C83434; fill-opacity:1.0000; 
stroke:#C83434; stroke-width:0.0000; stroke-opacity:1; 
stroke-linecap:round; stroke-linejoin:round;">
<circle cx="48.4869" cy="27.9900" r="1.2500" /> 
</g>
<g style="fill:#C83434; fill-opacity:1.0000; 
stroke:#C83434; stroke-width:0.0212; stroke-opacity:1; 
stroke-linecap:round; stroke-linejoin:round;">
</g>
<g style="fill:#C83434; fill-opacity:1.0000; 
stroke:#C83434; stroke-width:0.0000; stroke-opacity:1; 
stroke-linecap:round; stroke-linejoin:round;">
<circle cx="42.1369" cy="25.4500" r="1.2500" /> 
</g>
<g style="fill:#C83434; fill-opacity:1.0000; 
stroke:#C83434; stroke-width:0.0212; stroke-opacity:1; 
stroke-linecap:round; stroke-linejoin:round;">
</g>
<g >
</g>
<g >
</g>
<g style="fill:#C83434; fill-opacity:1.0000; 
stroke:#C83434; stroke-width:0.0212; stroke-opacity:1; 
stroke-linecap:round; stroke-linejoin:round;">
</g>
<g style="fill:#C83434; fill-opacity:1.0000; 
stroke:#C83434; stroke-width:0.4500; stroke-opacity:1; 
stroke-linecap:round; stroke-linejoin:round;">
</g>
<g style="fill:#C83434; fill-opacity:0.0; 
stroke:#C83434; stroke-width:0.4500; stroke-opacity:1; 
stroke-linecap:round; stroke-linejoin:round;">
<path d="M68.1069 50.6600
L68.1069 56.7700
" />
<path d="M84.6669 27.9900
L84.6669 34.1000
" />
<path d="M68.1069 56.7700
L68.1569 56.8200
" />
<path d="M84.6669 34.1000
L68.1069 50.6600
" />
<path d="M59.1669 50.9500
L59.0269 50.9500
" />
<path d="M59.0269 50.9500
L59.0269 56.5800
" />
<path d="M66.5769 27.9900
L66.5769 43.4000
" />
<path d="M66.5769 43.4000
L59.0269 50.9500
" />
<path d="M59.0269 56.5800
L59.2669 56.8200
" />
<path d="M54.1869 40.9300
L44.2669 50.8500
" />
<path d="M66.5769 7.6700
L66.5769 10.5200
" />
<path d="M66.5769 10.5200
L54.1869 22.9100
" />
<path d="M44.2669 50.8500
L44.2669 56.5300
" />
<path d="M54.1869 22.9100
L54.1869 40.9300
" />
<path d="M44.2669 56.5300
L44.0269 56.7700
" />
<path d="M48.4869 27.9900
L48.4869 33.6900
" />
<path d="M38.7069 50.9500
L38.7069 56.5300
" />
<path d="M48.4869 33.6900
L38.7069 43.4700
" />
<path d="M38.7069 56.5300
L38.9469 56.7700
" />
<path d="M38.7069 43.4700
L38.7069 50.9500
" />
<path d="M18.3869 50.9500
L18.3869 56.1500
" />
<path d="M22.4369 22.9100
L22.4369 46.9000
" />
<path d="M22.4369 46.9000
L18.3869 50.9500
" />
<path d="M18.3869 56.1500
L18.6269 56.3900
" />
<path d="M31.3269 25.4500
L31.3269 43.4700
" />
<path d="M23.9469 50.8500
L23.9469 56.1500
" />
<path d="M23.0869 49.9900
L23.9469 50.8500
" />
<path d="M40.2169 16.5600
L31.3269 25.4500
" />
<path d="M31.3269 43.4700
L23.9469 50.8500
" />
<path d="M23.9469 56.1500
L23.7069 56.3900
" />
<path d="M40.2169 7.6700
L40.2169 16.5600
" />
<path d="M60.2269 25.4500
L78.3169 25.4500
" />
<path d="M77.0469 5.1300
L60.2269 5.1300
" />
<path d="M42.1369 25.4500
L42.1369 22.2600
" />
<path d="M78.3169 25.4500
L78.3169 10.2100
" />
<path d="M78.3169 10.2100
L78.3169 6.4000
" />
<path d="M84.6669 10.2100
L78.3169 10.2100
" />
<path d="M16.0869 12.7500
L23.7069 5.1300
" />
<path d="M42.1369 22.2600
L46.5669 17.8300
" />
<path d="M46.5669 17.8300
L46.5669 5.1300
" />
<path d="M23.7069 5.1300
L33.8669 5.1300
" />
<path d="M16.0869 20.3700
L16.0869 12.7500
" />
<path d="M33.8669 5.1300
L46.5669 5.1300
" />
<path d="M46.5669 5.1300
L60.2269 5.1300
" />
<path d="M78.3169 6.4000
L77.0469 5.1300
" />
<path d="M66.8869 66.0900
L57.9969 66.0900
" />
<path d="M44.0269 64.8200
L42.7569 66.0900
" />
<path d="M44.0269 60.1700
L44.0269 64.8200
" />
<path d="M37.6769 66.0900
L22.4369 66.0900
" />
<path d="M59.2669 64.8200
L57.9969 66.0900
" />
<path d="M68.1569 60.2200
L68.1569 64.8200
" />
<path d="M38.9469 64.8200
L37.6769 66.0900
" />
<path d="M22.4369 66.0900
L18.6269 66.0900
" />
<path d="M23.7069 59.7900
L23.7069 64.8200
" />
<path d="M68.1569 64.8200
L66.8869 66.0900
" />
<path d="M42.7569 66.0900
L37.6769 66.0900
" />
<path d="M23.7069 64.8200
L22.4369 66.0900
" />
<path d="M18.6269 59.7900
L18.6269 66.0900
" />
<path d="M57.9969 66.0900
L42.7569 66.0900
" />
<path d="M38.9469 60.1700
L38.9469 64.8200
" />
<path d="M59.2669 60.2200
L59.2669 64.8200
" />
</g>
<g >
</g>
</g>
<g style="fill:#000000; fill-opacity:0.0; 
stroke:#000000; stroke-width:0.4500; stroke-opacity:1; 
stroke-linecap:round; stroke-linejoin:round;">
</g>
<g style="fill:#D0D2CD; fill-opacity:0.0; 
stroke:#D0D2CD; stroke-width:0.4500; stroke-opacity:1; 
stroke-linecap:round; stroke-linejoin:round;">
</g>
<g style="fill:#D0D2CD; fill-opacity:0.0; 
stroke:#D0D2CD; stroke-width:0.1000; stroke-opacity:1; 
stroke-linecap:round; stroke-linejoin:round;">
<path style="fill:#D0D2CD; fill-opacity:0.0; 
stroke:#D0D2CD; stroke-width:0.1000; stroke-opacity:1; 
stroke-linecap:round; stroke-linejoin:round;fill:none"
d="M 8.4669,0.0500
99.9069,0.0500
99.9069,71.1700
8.4669,71.1700
Z" /> 
<g >
</g>
<g >
</g>
<g >
</g>
<g >
</g>
<g >
</g>
<g >
</g>
<g >
</g>
<g >
</g>
<g >
</g>
<g >
</g>
<g >
</g>
<g >
</g>
<g >
</g>
<g >
</g>
<g >
</g>
<g >
</g>
<g >
</g>
<g >
</g>
<g >
</g>
<g >
</g>
<g >
</g>
<g >
</g>
<g >
</g>
</g> 
</svg>
