<?xml version="1.0" standalone="no"?>
 <!DOCTYPE svg PUBLIC "-//W3C//DTD SVG 1.1//EN" 
 "http://www.w3.org/Graphics/SVG/1.1/DTD/svg11.dtd"> 
<svg
  xmlns:svg="http://www.w3.org/2000/svg"
  xmlns="http://www.w3.org/2000/svg"
  xmlns:xlink="http://www.w3.org/1999/xlink"
  version="1.1"
  width="99.9490mm" height="71.1962mm" viewBox="0.0000 0.0000 99.9490 71.1962">
<title>SVG Image created as SwitchBoard-B_Courtyard.svg date 2024/02/10 16:14:40 </title>
  <desc>Image generated by PCBNEW </desc>
<g style="fill:#000000; fill-opacity:1.0000;stroke:#000000; stroke-opacity:1.0000;
stroke-linecap:round; stroke-linejoin:round;"
 transform="translate(0 0) scale(1 1)">
</g>
<g style="fill:#000000; fill-opacity:0.0; 
stroke:#000000; stroke-width:0.0000; stroke-opacity:1; 
stroke-linecap:round; stroke-linejoin:round;">
</g>
<g style="fill:#26E9FF; fill-opacity:0.0; 
stroke:#26E9FF; stroke-width:0.0000; stroke-opacity:1; 
stroke-linecap:round; stroke-linejoin:round;">
</g>
<g style="fill:#26E9FF; fill-opacity:0.0; 
stroke:#26E9FF; stroke-width:0.0500; stroke-opacity:1; 
stroke-linecap:round; stroke-linejoin:round;">
<path d="M88.1069 37.7800
L73.6069 37.7800
" />
<path d="M88.1069 23.2800
L88.1069 37.7800
" />
<path d="M73.6069 37.7800
L73.6069 23.2800
" />
<path d="M73.6069 23.2800
L88.1069 23.2800
" />
<path d="M70.0169 17.4600
L55.5169 17.4600
" />
<path d="M70.0169 2.9600
L70.0169 17.4600
" />
<path d="M55.5169 17.4600
L55.5169 2.9600
" />
<path d="M55.5169 2.9600
L70.0169 2.9600
" />
<path d="M70.0169 37.7800
L55.5169 37.7800
" />
<path d="M70.0169 23.2800
L70.0169 37.7800
" />
<path d="M55.5169 37.7800
L55.5169 23.2800
" />
<path d="M55.5169 23.2800
L70.0169 23.2800
" />
<path d="M43.6569 17.4600
L29.1569 17.4600
" />
<path d="M43.6569 2.9600
L43.6569 17.4600
" />
<path d="M29.1569 17.4600
L29.1569 2.9600
" />
<path d="M29.1569 2.9600
L43.6569 2.9600
" />
<path d="M25.8769 32.7000
L11.3769 32.7000
" />
<path d="M25.8769 18.2000
L25.8769 32.7000
" />
<path d="M11.3769 32.7000
L11.3769 18.2000
" />
<path d="M11.3769 18.2000
L25.8769 18.2000
" />
<path d="M51.9269 37.7800
L37.4269 37.7800
" />
<path d="M51.9269 23.2800
L51.9269 37.7800
" />
<path d="M37.4269 37.7800
L37.4269 23.2800
" />
<path d="M37.4269 23.2800
L51.9269 23.2800
" />
<g >
</g>
<g >
</g>
<g >
</g>
<g >
</g>
<g >
</g>
<g >
</g>
<g >
</g>
<g >
</g>
<g >
</g>
<g >
</g>
<g >
</g>
<g >
</g>
<g >
</g>
<g >
</g>
<g >
</g>
<g >
</g>
<g >
</g>
<g >
</g>
<g >
</g>
<g >
</g>
<g >
</g>
<g >
</g>
<g >
</g>
</g>
<g style="fill:#000000; fill-opacity:0.0; 
stroke:#000000; stroke-width:0.0500; stroke-opacity:1; 
stroke-linecap:round; stroke-linejoin:round;">
</g>
<g style="fill:#D0D2CD; fill-opacity:0.0; 
stroke:#D0D2CD; stroke-width:0.0500; stroke-opacity:1; 
stroke-linecap:round; stroke-linejoin:round;">
</g>
<g style="fill:#D0D2CD; fill-opacity:0.0; 
stroke:#D0D2CD; stroke-width:0.1000; stroke-opacity:1; 
stroke-linecap:round; stroke-linejoin:round;">
<path style="fill:#D0D2CD; fill-opacity:0.0; 
stroke:#D0D2CD; stroke-width:0.1000; stroke-opacity:1; 
stroke-linecap:round; stroke-linejoin:round;fill:none"
d="M 8.4669,0.0500
99.9069,0.0500
99.9069,71.1700
8.4669,71.1700
Z" /> 
<g >
</g>
<g >
</g>
<g >
</g>
<g >
</g>
<g >
</g>
<g >
</g>
<g >
</g>
<g >
</g>
<g >
</g>
<g >
</g>
<g >
</g>
<g >
</g>
<g >
</g>
<g >
</g>
<g >
</g>
<g >
</g>
<g >
</g>
<g >
</g>
<g >
</g>
<g >
</g>
<g >
</g>
<g >
</g>
<g >
</g>
</g> 
</svg>
