<?xml version="1.0" standalone="no"?>
 <!DOCTYPE svg PUBLIC "-//W3C//DTD SVG 1.1//EN" 
 "http://www.w3.org/Graphics/SVG/1.1/DTD/svg11.dtd"> 
<svg
  xmlns:svg="http://www.w3.org/2000/svg"
  xmlns="http://www.w3.org/2000/svg"
  xmlns:xlink="http://www.w3.org/1999/xlink"
  version="1.1"
  width="97.4598mm" height="75.3872mm" viewBox="0.0000 0.0000 97.4598 75.3872">
<title>SVG Image created as SwitchBoard-F_Silkscreen.svg date 2024/02/09 11:07:50 </title>
  <desc>Image generated by PCBNEW </desc>
<g style="fill:#000000; fill-opacity:1.0000;stroke:#000000; stroke-opacity:1.0000;
stroke-linecap:round; stroke-linejoin:round;"
 transform="translate(0 0) scale(1 1)">
</g>
<g style="fill:#000000; fill-opacity:0.0; 
stroke:#000000; stroke-width:0.0000; stroke-opacity:1; 
stroke-linecap:round; stroke-linejoin:round;">
</g>
<g style="fill:#F2EDA1; fill-opacity:0.0; 
stroke:#F2EDA1; stroke-width:0.0000; stroke-opacity:1; 
stroke-linecap:round; stroke-linejoin:round;">
</g>
<g style="fill:#F2EDA1; fill-opacity:0.0; 
stroke:#F2EDA1; stroke-width:0.1500; stroke-opacity:1; 
stroke-linecap:round; stroke-linejoin:round;">
<text x="24.4169" y="23.0300"
textLength="3.2976" font-size="1.3333" lengthAdjust="spacingAndGlyphs"
text-anchor="middle" opacity="0">SW6</text>
<g class="stroked-text"><desc>SW6</desc>
<path d="M23.0836 22.9372
L23.2264 22.9848
" />
<path d="M23.2264 22.9848
L23.4645 22.9848
" />
<path d="M23.4645 22.9848
L23.5598 22.9372
" />
<path d="M23.5598 22.9372
L23.6074 22.8896
" />
<path d="M23.6074 22.8896
L23.6550 22.7943
" />
<path d="M23.6550 22.7943
L23.6550 22.6991
" />
<path d="M23.6550 22.6991
L23.6074 22.6039
" />
<path d="M23.6074 22.6039
L23.5598 22.5562
" />
<path d="M23.5598 22.5562
L23.4645 22.5086
" />
<path d="M23.4645 22.5086
L23.2740 22.4610
" />
<path d="M23.2740 22.4610
L23.1788 22.4134
" />
<path d="M23.1788 22.4134
L23.1312 22.3658
" />
<path d="M23.1312 22.3658
L23.0836 22.2705
" />
<path d="M23.0836 22.2705
L23.0836 22.1753
" />
<path d="M23.0836 22.1753
L23.1312 22.0801
" />
<path d="M23.1312 22.0801
L23.1788 22.0324
" />
<path d="M23.1788 22.0324
L23.2740 21.9848
" />
<path d="M23.2740 21.9848
L23.5121 21.9848
" />
<path d="M23.5121 21.9848
L23.6550 22.0324
" />
<path d="M23.9883 21.9848
L24.2264 22.9848
" />
<path d="M24.2264 22.9848
L24.4169 22.2705
" />
<path d="M24.4169 22.2705
L24.6074 22.9848
" />
<path d="M24.6074 22.9848
L24.8455 21.9848
" />
<path d="M25.6550 21.9848
L25.4645 21.9848
" />
<path d="M25.4645 21.9848
L25.3693 22.0324
" />
<path d="M25.3693 22.0324
L25.3217 22.0801
" />
<path d="M25.3217 22.0801
L25.2264 22.2229
" />
<path d="M25.2264 22.2229
L25.1788 22.4134
" />
<path d="M25.1788 22.4134
L25.1788 22.7943
" />
<path d="M25.1788 22.7943
L25.2264 22.8896
" />
<path d="M25.2264 22.8896
L25.2740 22.9372
" />
<path d="M25.2740 22.9372
L25.3693 22.9848
" />
<path d="M25.3693 22.9848
L25.5598 22.9848
" />
<path d="M25.5598 22.9848
L25.6550 22.9372
" />
<path d="M25.6550 22.9372
L25.7026 22.8896
" />
<path d="M25.7026 22.8896
L25.7502 22.7943
" />
<path d="M25.7502 22.7943
L25.7502 22.5562
" />
<path d="M25.7502 22.5562
L25.7026 22.4610
" />
<path d="M25.7026 22.4610
L25.6550 22.4134
" />
<path d="M25.6550 22.4134
L25.5598 22.3658
" />
<path d="M25.5598 22.3658
L25.3693 22.3658
" />
<path d="M25.3693 22.3658
L25.2740 22.4134
" />
<path d="M25.2740 22.4134
L25.2264 22.4610
" />
<path d="M25.2264 22.4610
L25.1788 22.5562
" />
</g><text x="42.5069" y="2.7100"
textLength="3.2976" font-size="1.3333" lengthAdjust="spacingAndGlyphs"
text-anchor="middle" opacity="0">SW5</text>
<g class="stroked-text"><desc>SW5</desc>
<path d="M41.1736 2.6172
L41.3164 2.6648
" />
<path d="M41.3164 2.6648
L41.5545 2.6648
" />
<path d="M41.5545 2.6648
L41.6498 2.6172
" />
<path d="M41.6498 2.6172
L41.6974 2.5696
" />
<path d="M41.6974 2.5696
L41.7450 2.4743
" />
<path d="M41.7450 2.4743
L41.7450 2.3791
" />
<path d="M41.7450 2.3791
L41.6974 2.2839
" />
<path d="M41.6974 2.2839
L41.6498 2.2362
" />
<path d="M41.6498 2.2362
L41.5545 2.1886
" />
<path d="M41.5545 2.1886
L41.3640 2.1410
" />
<path d="M41.3640 2.1410
L41.2688 2.0934
" />
<path d="M41.2688 2.0934
L41.2212 2.0458
" />
<path d="M41.2212 2.0458
L41.1736 1.9505
" />
<path d="M41.1736 1.9505
L41.1736 1.8553
" />
<path d="M41.1736 1.8553
L41.2212 1.7601
" />
<path d="M41.2212 1.7601
L41.2688 1.7124
" />
<path d="M41.2688 1.7124
L41.3640 1.6648
" />
<path d="M41.3640 1.6648
L41.6021 1.6648
" />
<path d="M41.6021 1.6648
L41.7450 1.7124
" />
<path d="M42.0783 1.6648
L42.3164 2.6648
" />
<path d="M42.3164 2.6648
L42.5069 1.9505
" />
<path d="M42.5069 1.9505
L42.6974 2.6648
" />
<path d="M42.6974 2.6648
L42.9355 1.6648
" />
<path d="M43.7926 1.6648
L43.3164 1.6648
" />
<path d="M43.3164 1.6648
L43.2688 2.1410
" />
<path d="M43.2688 2.1410
L43.3164 2.0934
" />
<path d="M43.3164 2.0934
L43.4117 2.0458
" />
<path d="M43.4117 2.0458
L43.6498 2.0458
" />
<path d="M43.6498 2.0458
L43.7450 2.0934
" />
<path d="M43.7450 2.0934
L43.7926 2.1410
" />
<path d="M43.7926 2.1410
L43.8402 2.2362
" />
<path d="M43.8402 2.2362
L43.8402 2.4743
" />
<path d="M43.8402 2.4743
L43.7926 2.5696
" />
<path d="M43.7926 2.5696
L43.7450 2.6172
" />
<path d="M43.7450 2.6172
L43.6498 2.6648
" />
<path d="M43.6498 2.6648
L43.4117 2.6648
" />
<path d="M43.4117 2.6648
L43.3164 2.6172
" />
<path d="M43.3164 2.6172
L43.2688 2.5696
" />
</g><text x="42.5069" y="23.0300"
textLength="3.2976" font-size="1.3333" lengthAdjust="spacingAndGlyphs"
text-anchor="middle" opacity="0">SW4</text>
<g class="stroked-text"><desc>SW4</desc>
<path d="M41.1736 22.9372
L41.3164 22.9848
" />
<path d="M41.3164 22.9848
L41.5545 22.9848
" />
<path d="M41.5545 22.9848
L41.6498 22.9372
" />
<path d="M41.6498 22.9372
L41.6974 22.8896
" />
<path d="M41.6974 22.8896
L41.7450 22.7943
" />
<path d="M41.7450 22.7943
L41.7450 22.6991
" />
<path d="M41.7450 22.6991
L41.6974 22.6039
" />
<path d="M41.6974 22.6039
L41.6498 22.5562
" />
<path d="M41.6498 22.5562
L41.5545 22.5086
" />
<path d="M41.5545 22.5086
L41.3640 22.4610
" />
<path d="M41.3640 22.4610
L41.2688 22.4134
" />
<path d="M41.2688 22.4134
L41.2212 22.3658
" />
<path d="M41.2212 22.3658
L41.1736 22.2705
" />
<path d="M41.1736 22.2705
L41.1736 22.1753
" />
<path d="M41.1736 22.1753
L41.2212 22.0801
" />
<path d="M41.2212 22.0801
L41.2688 22.0324
" />
<path d="M41.2688 22.0324
L41.3640 21.9848
" />
<path d="M41.3640 21.9848
L41.6021 21.9848
" />
<path d="M41.6021 21.9848
L41.7450 22.0324
" />
<path d="M42.0783 21.9848
L42.3164 22.9848
" />
<path d="M42.3164 22.9848
L42.5069 22.2705
" />
<path d="M42.5069 22.2705
L42.6974 22.9848
" />
<path d="M42.6974 22.9848
L42.9355 21.9848
" />
<path d="M43.7450 22.3182
L43.7450 22.9848
" />
<path d="M43.5069 21.9372
L43.2688 22.6515
" />
<path d="M43.2688 22.6515
L43.8879 22.6515
" />
</g><text x="60.5969" y="23.0300"
textLength="3.2976" font-size="1.3333" lengthAdjust="spacingAndGlyphs"
text-anchor="middle" opacity="0">SW3</text>
<g class="stroked-text"><desc>SW3</desc>
<path d="M59.2636 22.9372
L59.4064 22.9848
" />
<path d="M59.4064 22.9848
L59.6445 22.9848
" />
<path d="M59.6445 22.9848
L59.7398 22.9372
" />
<path d="M59.7398 22.9372
L59.7874 22.8896
" />
<path d="M59.7874 22.8896
L59.8350 22.7943
" />
<path d="M59.8350 22.7943
L59.8350 22.6991
" />
<path d="M59.8350 22.6991
L59.7874 22.6039
" />
<path d="M59.7874 22.6039
L59.7398 22.5562
" />
<path d="M59.7398 22.5562
L59.6445 22.5086
" />
<path d="M59.6445 22.5086
L59.4540 22.4610
" />
<path d="M59.4540 22.4610
L59.3588 22.4134
" />
<path d="M59.3588 22.4134
L59.3112 22.3658
" />
<path d="M59.3112 22.3658
L59.2636 22.2705
" />
<path d="M59.2636 22.2705
L59.2636 22.1753
" />
<path d="M59.2636 22.1753
L59.3112 22.0801
" />
<path d="M59.3112 22.0801
L59.3588 22.0324
" />
<path d="M59.3588 22.0324
L59.4540 21.9848
" />
<path d="M59.4540 21.9848
L59.6921 21.9848
" />
<path d="M59.6921 21.9848
L59.8350 22.0324
" />
<path d="M60.1683 21.9848
L60.4064 22.9848
" />
<path d="M60.4064 22.9848
L60.5969 22.2705
" />
<path d="M60.5969 22.2705
L60.7874 22.9848
" />
<path d="M60.7874 22.9848
L61.0255 21.9848
" />
<path d="M61.3112 21.9848
L61.9302 21.9848
" />
<path d="M61.9302 21.9848
L61.5969 22.3658
" />
<path d="M61.5969 22.3658
L61.7398 22.3658
" />
<path d="M61.7398 22.3658
L61.8350 22.4134
" />
<path d="M61.8350 22.4134
L61.8826 22.4610
" />
<path d="M61.8826 22.4610
L61.9302 22.5562
" />
<path d="M61.9302 22.5562
L61.9302 22.7943
" />
<path d="M61.9302 22.7943
L61.8826 22.8896
" />
<path d="M61.8826 22.8896
L61.8350 22.9372
" />
<path d="M61.8350 22.9372
L61.7398 22.9848
" />
<path d="M61.7398 22.9848
L61.4540 22.9848
" />
<path d="M61.4540 22.9848
L61.3588 22.9372
" />
<path d="M61.3588 22.9372
L61.3112 22.8896
" />
</g><text x="66.9469" y="2.7100"
textLength="3.2976" font-size="1.3333" lengthAdjust="spacingAndGlyphs"
text-anchor="middle" opacity="0">SW2</text>
<g class="stroked-text"><desc>SW2</desc>
<path d="M65.6136 2.6172
L65.7564 2.6648
" />
<path d="M65.7564 2.6648
L65.9945 2.6648
" />
<path d="M65.9945 2.6648
L66.0898 2.6172
" />
<path d="M66.0898 2.6172
L66.1374 2.5696
" />
<path d="M66.1374 2.5696
L66.1850 2.4743
" />
<path d="M66.1850 2.4743
L66.1850 2.3791
" />
<path d="M66.1850 2.3791
L66.1374 2.2839
" />
<path d="M66.1374 2.2839
L66.0898 2.2362
" />
<path d="M66.0898 2.2362
L65.9945 2.1886
" />
<path d="M65.9945 2.1886
L65.8040 2.1410
" />
<path d="M65.8040 2.1410
L65.7088 2.0934
" />
<path d="M65.7088 2.0934
L65.6612 2.0458
" />
<path d="M65.6612 2.0458
L65.6136 1.9505
" />
<path d="M65.6136 1.9505
L65.6136 1.8553
" />
<path d="M65.6136 1.8553
L65.6612 1.7601
" />
<path d="M65.6612 1.7601
L65.7088 1.7124
" />
<path d="M65.7088 1.7124
L65.8040 1.6648
" />
<path d="M65.8040 1.6648
L66.0421 1.6648
" />
<path d="M66.0421 1.6648
L66.1850 1.7124
" />
<path d="M66.5183 1.6648
L66.7564 2.6648
" />
<path d="M66.7564 2.6648
L66.9469 1.9505
" />
<path d="M66.9469 1.9505
L67.1374 2.6648
" />
<path d="M67.1374 2.6648
L67.3755 1.6648
" />
<path d="M67.7088 1.7601
L67.7564 1.7124
" />
<path d="M67.7564 1.7124
L67.8517 1.6648
" />
<path d="M67.8517 1.6648
L68.0898 1.6648
" />
<path d="M68.0898 1.6648
L68.1850 1.7124
" />
<path d="M68.1850 1.7124
L68.2326 1.7601
" />
<path d="M68.2326 1.7601
L68.2802 1.8553
" />
<path d="M68.2802 1.8553
L68.2802 1.9505
" />
<path d="M68.2802 1.9505
L68.2326 2.0934
" />
<path d="M68.2326 2.0934
L67.6612 2.6648
" />
<path d="M67.6612 2.6648
L68.2802 2.6648
" />
</g><text x="87.2669" y="15.4100"
textLength="3.2976" font-size="1.3333" lengthAdjust="spacingAndGlyphs"
text-anchor="middle" opacity="0">SW1</text>
<g class="stroked-text"><desc>SW1</desc>
<path d="M85.9336 15.3172
L86.0764 15.3648
" />
<path d="M86.0764 15.3648
L86.3145 15.3648
" />
<path d="M86.3145 15.3648
L86.4098 15.3172
" />
<path d="M86.4098 15.3172
L86.4574 15.2696
" />
<path d="M86.4574 15.2696
L86.5050 15.1743
" />
<path d="M86.5050 15.1743
L86.5050 15.0791
" />
<path d="M86.5050 15.0791
L86.4574 14.9839
" />
<path d="M86.4574 14.9839
L86.4098 14.9362
" />
<path d="M86.4098 14.9362
L86.3145 14.8886
" />
<path d="M86.3145 14.8886
L86.1240 14.8410
" />
<path d="M86.1240 14.8410
L86.0288 14.7934
" />
<path d="M86.0288 14.7934
L85.9812 14.7458
" />
<path d="M85.9812 14.7458
L85.9336 14.6505
" />
<path d="M85.9336 14.6505
L85.9336 14.5553
" />
<path d="M85.9336 14.5553
L85.9812 14.4601
" />
<path d="M85.9812 14.4601
L86.0288 14.4124
" />
<path d="M86.0288 14.4124
L86.1240 14.3648
" />
<path d="M86.1240 14.3648
L86.3621 14.3648
" />
<path d="M86.3621 14.3648
L86.5050 14.4124
" />
<path d="M86.8383 14.3648
L87.0764 15.3648
" />
<path d="M87.0764 15.3648
L87.2669 14.6505
" />
<path d="M87.2669 14.6505
L87.4574 15.3648
" />
<path d="M87.4574 15.3648
L87.6955 14.3648
" />
<path d="M88.6002 15.3648
L88.0288 15.3648
" />
<path d="M88.3145 15.3648
L88.3145 14.3648
" />
<path d="M88.3145 14.3648
L88.2193 14.5077
" />
<path d="M88.2193 14.5077
L88.1240 14.6029
" />
<path d="M88.1240 14.6029
L88.0288 14.6505
" />
</g><g transform="rotate(-90.000000 17.9969 58.0900)">
<text x="17.9969" y="58.5900"
textLength="2.2024" font-size="1.3333" lengthAdjust="spacingAndGlyphs"
text-anchor="middle" opacity="0">R5</text>
</g>
<g class="stroked-text"><desc>R5</desc>
<path d="M18.4517 58.2567
L17.9755 58.5900
" />
<path d="M18.4517 58.8281
L17.4517 58.8281
" />
<path d="M17.4517 58.8281
L17.4517 58.4471
" />
<path d="M17.4517 58.4471
L17.4993 58.3519
" />
<path d="M17.4993 58.3519
L17.5470 58.3043
" />
<path d="M17.5470 58.3043
L17.6422 58.2567
" />
<path d="M17.6422 58.2567
L17.7851 58.2567
" />
<path d="M17.7851 58.2567
L17.8803 58.3043
" />
<path d="M17.8803 58.3043
L17.9279 58.3519
" />
<path d="M17.9279 58.3519
L17.9755 58.4471
" />
<path d="M17.9755 58.4471
L17.9755 58.8281
" />
<path d="M17.4517 57.3519
L17.4517 57.8281
" />
<path d="M17.4517 57.8281
L17.9279 57.8757
" />
<path d="M17.9279 57.8757
L17.8803 57.8281
" />
<path d="M17.8803 57.8281
L17.8327 57.7329
" />
<path d="M17.8327 57.7329
L17.8327 57.4948
" />
<path d="M17.8327 57.4948
L17.8803 57.3995
" />
<path d="M17.8803 57.3995
L17.9279 57.3519
" />
<path d="M17.9279 57.3519
L18.0232 57.3043
" />
<path d="M18.0232 57.3043
L18.2612 57.3043
" />
<path d="M18.2612 57.3043
L18.3565 57.3519
" />
<path d="M18.3565 57.3519
L18.4041 57.3995
" />
<path d="M18.4041 57.3995
L18.4517 57.4948
" />
<path d="M18.4517 57.4948
L18.4517 57.7329
" />
<path d="M18.4517 57.7329
L18.4041 57.8281
" />
<path d="M18.4041 57.8281
L18.3565 57.8757
" />
</g><text x="19.9429" y="48.8100"
textLength="1.9643" font-size="1.3333" lengthAdjust="spacingAndGlyphs"
text-anchor="end" opacity="0">J6</text>
<g class="stroked-text"><desc>J6</desc>
<path d="M18.6537 47.7648
L18.6537 48.4791
" />
<path d="M18.6537 48.4791
L18.6061 48.6220
" />
<path d="M18.6061 48.6220
L18.5109 48.7172
" />
<path d="M18.5109 48.7172
L18.3680 48.7648
" />
<path d="M18.3680 48.7648
L18.2728 48.7648
" />
<path d="M19.5585 47.7648
L19.3680 47.7648
" />
<path d="M19.3680 47.7648
L19.2728 47.8124
" />
<path d="M19.2728 47.8124
L19.2252 47.8601
" />
<path d="M19.2252 47.8601
L19.1299 48.0029
" />
<path d="M19.1299 48.0029
L19.0823 48.1934
" />
<path d="M19.0823 48.1934
L19.0823 48.5743
" />
<path d="M19.0823 48.5743
L19.1299 48.6696
" />
<path d="M19.1299 48.6696
L19.1776 48.7172
" />
<path d="M19.1776 48.7172
L19.2728 48.7648
" />
<path d="M19.2728 48.7648
L19.4633 48.7648
" />
<path d="M19.4633 48.7648
L19.5585 48.7172
" />
<path d="M19.5585 48.7172
L19.6061 48.6696
" />
<path d="M19.6061 48.6696
L19.6537 48.5743
" />
<path d="M19.6537 48.5743
L19.6537 48.3362
" />
<path d="M19.6537 48.3362
L19.6061 48.2410
" />
<path d="M19.6061 48.2410
L19.5585 48.1934
" />
<path d="M19.5585 48.1934
L19.4633 48.1458
" />
<path d="M19.4633 48.1458
L19.2728 48.1458
" />
<path d="M19.2728 48.1458
L19.1776 48.1934
" />
<path d="M19.1776 48.1934
L19.1299 48.2410
" />
<path d="M19.1299 48.2410
L19.0823 48.3362
" />
</g><g transform="rotate(-90.000000 58.6369 58.5200)">
<text x="58.6369" y="59.0200"
textLength="2.2024" font-size="1.3333" lengthAdjust="spacingAndGlyphs"
text-anchor="middle" opacity="0">R2</text>
</g>
<g class="stroked-text"><desc>R2</desc>
<path d="M59.0917 58.6867
L58.6155 59.0200
" />
<path d="M59.0917 59.2581
L58.0917 59.2581
" />
<path d="M58.0917 59.2581
L58.0917 58.8771
" />
<path d="M58.0917 58.8771
L58.1393 58.7819
" />
<path d="M58.1393 58.7819
L58.1870 58.7343
" />
<path d="M58.1870 58.7343
L58.2822 58.6867
" />
<path d="M58.2822 58.6867
L58.4251 58.6867
" />
<path d="M58.4251 58.6867
L58.5203 58.7343
" />
<path d="M58.5203 58.7343
L58.5679 58.7819
" />
<path d="M58.5679 58.7819
L58.6155 58.8771
" />
<path d="M58.6155 58.8771
L58.6155 59.2581
" />
<path d="M58.1870 58.3057
L58.1393 58.2581
" />
<path d="M58.1393 58.2581
L58.0917 58.1629
" />
<path d="M58.0917 58.1629
L58.0917 57.9248
" />
<path d="M58.0917 57.9248
L58.1393 57.8295
" />
<path d="M58.1393 57.8295
L58.1870 57.7819
" />
<path d="M58.1870 57.7819
L58.2822 57.7343
" />
<path d="M58.2822 57.7343
L58.3774 57.7343
" />
<path d="M58.3774 57.7343
L58.5203 57.7819
" />
<path d="M58.5203 57.7819
L59.0917 58.3533
" />
<path d="M59.0917 58.3533
L59.0917 57.7343
" />
</g><text x="37.7509" y="53.9900"
textLength="1.9643" font-size="1.3333" lengthAdjust="spacingAndGlyphs"
text-anchor="start" opacity="0">J4</text>
<g class="stroked-text"><desc>J4</desc>
<path d="M38.3734 52.9448
L38.3734 53.6591
" />
<path d="M38.3734 53.6591
L38.3258 53.8020
" />
<path d="M38.3258 53.8020
L38.2305 53.8972
" />
<path d="M38.2305 53.8972
L38.0877 53.9448
" />
<path d="M38.0877 53.9448
L37.9924 53.9448
" />
<path d="M39.2782 53.2782
L39.2782 53.9448
" />
<path d="M39.0401 52.8972
L38.8020 53.6115
" />
<path d="M38.8020 53.6115
L39.4210 53.6115
" />
</g><g transform="rotate(-90.000000 23.0769 58.0900)">
<text x="23.0769" y="58.5900"
textLength="2.2024" font-size="1.3333" lengthAdjust="spacingAndGlyphs"
text-anchor="middle" opacity="0">R6</text>
</g>
<g class="stroked-text"><desc>R6</desc>
<path d="M23.5317 58.2567
L23.0555 58.5900
" />
<path d="M23.5317 58.8281
L22.5317 58.8281
" />
<path d="M22.5317 58.8281
L22.5317 58.4471
" />
<path d="M22.5317 58.4471
L22.5793 58.3519
" />
<path d="M22.5793 58.3519
L22.6270 58.3043
" />
<path d="M22.6270 58.3043
L22.7222 58.2567
" />
<path d="M22.7222 58.2567
L22.8651 58.2567
" />
<path d="M22.8651 58.2567
L22.9603 58.3043
" />
<path d="M22.9603 58.3043
L23.0079 58.3519
" />
<path d="M23.0079 58.3519
L23.0555 58.4471
" />
<path d="M23.0555 58.4471
L23.0555 58.8281
" />
<path d="M22.5317 57.3995
L22.5317 57.5900
" />
<path d="M22.5317 57.5900
L22.5793 57.6852
" />
<path d="M22.5793 57.6852
L22.6270 57.7329
" />
<path d="M22.6270 57.7329
L22.7698 57.8281
" />
<path d="M22.7698 57.8281
L22.9603 57.8757
" />
<path d="M22.9603 57.8757
L23.3412 57.8757
" />
<path d="M23.3412 57.8757
L23.4365 57.8281
" />
<path d="M23.4365 57.8281
L23.4841 57.7805
" />
<path d="M23.4841 57.7805
L23.5317 57.6852
" />
<path d="M23.5317 57.6852
L23.5317 57.4948
" />
<path d="M23.5317 57.4948
L23.4841 57.3995
" />
<path d="M23.4841 57.3995
L23.4365 57.3519
" />
<path d="M23.4365 57.3519
L23.3412 57.3043
" />
<path d="M23.3412 57.3043
L23.1032 57.3043
" />
<path d="M23.1032 57.3043
L23.0079 57.3519
" />
<path d="M23.0079 57.3519
L22.9603 57.3995
" />
<path d="M22.9603 57.3995
L22.9127 57.4948
" />
<path d="M22.9127 57.4948
L22.9127 57.6852
" />
<path d="M22.9127 57.6852
L22.9603 57.7805
" />
<path d="M22.9603 57.7805
L23.0079 57.8281
" />
<path d="M23.0079 57.8281
L23.1032 57.8757
" />
</g><text x="64.1029" y="48.6200"
textLength="1.9643" font-size="1.3333" lengthAdjust="spacingAndGlyphs"
text-anchor="end" opacity="0">J1</text>
<g class="stroked-text"><desc>J1</desc>
<path d="M62.8137 47.5748
L62.8137 48.2891
" />
<path d="M62.8137 48.2891
L62.7661 48.4320
" />
<path d="M62.7661 48.4320
L62.6709 48.5272
" />
<path d="M62.6709 48.5272
L62.5280 48.5748
" />
<path d="M62.5280 48.5748
L62.4328 48.5748
" />
<path d="M63.8137 48.5748
L63.2423 48.5748
" />
<path d="M63.5280 48.5748
L63.5280 47.5748
" />
<path d="M63.5280 47.5748
L63.4328 47.7177
" />
<path d="M63.4328 47.7177
L63.3376 47.8129
" />
<path d="M63.3376 47.8129
L63.2423 47.8605
" />
</g><text x="58.0709" y="53.9900"
textLength="1.9643" font-size="1.3333" lengthAdjust="spacingAndGlyphs"
text-anchor="start" opacity="0">J2</text>
<g class="stroked-text"><desc>J2</desc>
<path d="M58.6934 52.9448
L58.6934 53.6591
" />
<path d="M58.6934 53.6591
L58.6458 53.8020
" />
<path d="M58.6458 53.8020
L58.5505 53.8972
" />
<path d="M58.5505 53.8972
L58.4077 53.9448
" />
<path d="M58.4077 53.9448
L58.3124 53.9448
" />
<path d="M59.1220 53.0401
L59.1696 52.9924
" />
<path d="M59.1696 52.9924
L59.2648 52.9448
" />
<path d="M59.2648 52.9448
L59.5029 52.9448
" />
<path d="M59.5029 52.9448
L59.5982 52.9924
" />
<path d="M59.5982 52.9924
L59.6458 53.0401
" />
<path d="M59.6458 53.0401
L59.6934 53.1353
" />
<path d="M59.6934 53.1353
L59.6934 53.2305
" />
<path d="M59.6934 53.2305
L59.6458 53.3734
" />
<path d="M59.6458 53.3734
L59.0744 53.9448
" />
<path d="M59.0744 53.9448
L59.6934 53.9448
" />
</g><text x="40.2629" y="48.8100"
textLength="1.9643" font-size="1.3333" lengthAdjust="spacingAndGlyphs"
text-anchor="end" opacity="0">J3</text>
<g class="stroked-text"><desc>J3</desc>
<path d="M38.9737 47.7648
L38.9737 48.4791
" />
<path d="M38.9737 48.4791
L38.9261 48.6220
" />
<path d="M38.9261 48.6220
L38.8309 48.7172
" />
<path d="M38.8309 48.7172
L38.6880 48.7648
" />
<path d="M38.6880 48.7648
L38.5928 48.7648
" />
<path d="M39.3547 47.7648
L39.9737 47.7648
" />
<path d="M39.9737 47.7648
L39.6404 48.1458
" />
<path d="M39.6404 48.1458
L39.7833 48.1458
" />
<path d="M39.7833 48.1458
L39.8785 48.1934
" />
<path d="M39.8785 48.1934
L39.9261 48.2410
" />
<path d="M39.9261 48.2410
L39.9737 48.3362
" />
<path d="M39.9737 48.3362
L39.9737 48.5743
" />
<path d="M39.9737 48.5743
L39.9261 48.6696
" />
<path d="M39.9261 48.6696
L39.8785 48.7172
" />
<path d="M39.8785 48.7172
L39.7833 48.7648
" />
<path d="M39.7833 48.7648
L39.4976 48.7648
" />
<path d="M39.4976 48.7648
L39.4023 48.7172
" />
<path d="M39.4023 48.7172
L39.3547 48.6696
" />
</g><g transform="rotate(-90.000000 38.3169 58.4700)">
<text x="38.3169" y="58.9700"
textLength="2.2024" font-size="1.3333" lengthAdjust="spacingAndGlyphs"
text-anchor="middle" opacity="0">R4</text>
</g>
<g class="stroked-text"><desc>R4</desc>
<path d="M38.7717 58.6367
L38.2955 58.9700
" />
<path d="M38.7717 59.2081
L37.7717 59.2081
" />
<path d="M37.7717 59.2081
L37.7717 58.8271
" />
<path d="M37.7717 58.8271
L37.8193 58.7319
" />
<path d="M37.8193 58.7319
L37.8670 58.6843
" />
<path d="M37.8670 58.6843
L37.9622 58.6367
" />
<path d="M37.9622 58.6367
L38.1051 58.6367
" />
<path d="M38.1051 58.6367
L38.2003 58.6843
" />
<path d="M38.2003 58.6843
L38.2479 58.7319
" />
<path d="M38.2479 58.7319
L38.2955 58.8271
" />
<path d="M38.2955 58.8271
L38.2955 59.2081
" />
<path d="M38.1051 57.7795
L38.7717 57.7795
" />
<path d="M37.7241 58.0176
L38.4384 58.2557
" />
<path d="M38.4384 58.2557
L38.4384 57.6367
" />
</g><text x="17.6709" y="69.1300"
textLength="1.9643" font-size="1.3333" lengthAdjust="spacingAndGlyphs"
text-anchor="start" opacity="0">J8</text>
<g class="stroked-text"><desc>J8</desc>
<path d="M18.2934 68.0848
L18.2934 68.7991
" />
<path d="M18.2934 68.7991
L18.2458 68.9420
" />
<path d="M18.2458 68.9420
L18.1505 69.0372
" />
<path d="M18.1505 69.0372
L18.0077 69.0848
" />
<path d="M18.0077 69.0848
L17.9124 69.0848
" />
<path d="M18.9124 68.5134
L18.8172 68.4658
" />
<path d="M18.8172 68.4658
L18.7696 68.4182
" />
<path d="M18.7696 68.4182
L18.7220 68.3229
" />
<path d="M18.7220 68.3229
L18.7220 68.2753
" />
<path d="M18.7220 68.2753
L18.7696 68.1801
" />
<path d="M18.7696 68.1801
L18.8172 68.1324
" />
<path d="M18.8172 68.1324
L18.9124 68.0848
" />
<path d="M18.9124 68.0848
L19.1029 68.0848
" />
<path d="M19.1029 68.0848
L19.1982 68.1324
" />
<path d="M19.1982 68.1324
L19.2458 68.1801
" />
<path d="M19.2458 68.1801
L19.2934 68.2753
" />
<path d="M19.2934 68.2753
L19.2934 68.3229
" />
<path d="M19.2934 68.3229
L19.2458 68.4182
" />
<path d="M19.2458 68.4182
L19.1982 68.4658
" />
<path d="M19.1982 68.4658
L19.1029 68.5134
" />
<path d="M19.1029 68.5134
L18.9124 68.5134
" />
<path d="M18.9124 68.5134
L18.8172 68.5610
" />
<path d="M18.8172 68.5610
L18.7696 68.6086
" />
<path d="M18.7696 68.6086
L18.7220 68.7039
" />
<path d="M18.7220 68.7039
L18.7220 68.8943
" />
<path d="M18.7220 68.8943
L18.7696 68.9896
" />
<path d="M18.7696 68.9896
L18.8172 69.0372
" />
<path d="M18.8172 69.0372
L18.9124 69.0848
" />
<path d="M18.9124 69.0848
L19.1029 69.0848
" />
<path d="M19.1029 69.0848
L19.1982 69.0372
" />
<path d="M19.1982 69.0372
L19.2458 68.9896
" />
<path d="M19.2458 68.9896
L19.2934 68.8943
" />
<path d="M19.2934 68.8943
L19.2934 68.7039
" />
<path d="M19.2934 68.7039
L19.2458 68.6086
" />
<path d="M19.2458 68.6086
L19.1982 68.5610
" />
<path d="M19.1982 68.5610
L19.1029 68.5134
" />
</g><g transform="rotate(-90.000000 28.8469 19.3540)">
<text x="28.8469" y="19.8540"
textLength="1.9643" font-size="1.3333" lengthAdjust="spacingAndGlyphs"
text-anchor="end" opacity="0">J7</text>
</g>
<g class="stroked-text"><desc>J7</desc>
<path d="M28.3017 20.6432
L29.0160 20.6432
" />
<path d="M29.0160 20.6432
L29.1589 20.6908
" />
<path d="M29.1589 20.6908
L29.2541 20.7860
" />
<path d="M29.2541 20.7860
L29.3017 20.9289
" />
<path d="M29.3017 20.9289
L29.3017 21.0241
" />
<path d="M28.3017 20.2622
L28.3017 19.5955
" />
<path d="M28.3017 19.5955
L29.3017 20.0241
" />
</g><text x="17.4309" y="53.9900"
textLength="1.9643" font-size="1.3333" lengthAdjust="spacingAndGlyphs"
text-anchor="start" opacity="0">J5</text>
<g class="stroked-text"><desc>J5</desc>
<path d="M18.0534 52.9448
L18.0534 53.6591
" />
<path d="M18.0534 53.6591
L18.0058 53.8020
" />
<path d="M18.0058 53.8020
L17.9105 53.8972
" />
<path d="M17.9105 53.8972
L17.7677 53.9448
" />
<path d="M17.7677 53.9448
L17.6724 53.9448
" />
<path d="M19.0058 52.9448
L18.5296 52.9448
" />
<path d="M18.5296 52.9448
L18.4820 53.4210
" />
<path d="M18.4820 53.4210
L18.5296 53.3734
" />
<path d="M18.5296 53.3734
L18.6248 53.3258
" />
<path d="M18.6248 53.3258
L18.8629 53.3258
" />
<path d="M18.8629 53.3258
L18.9582 53.3734
" />
<path d="M18.9582 53.3734
L19.0058 53.4210
" />
<path d="M19.0058 53.4210
L19.0534 53.5162
" />
<path d="M19.0534 53.5162
L19.0534 53.7543
" />
<path d="M19.0534 53.7543
L19.0058 53.8496
" />
<path d="M19.0058 53.8496
L18.9582 53.8972
" />
<path d="M18.9582 53.8972
L18.8629 53.9448
" />
<path d="M18.8629 53.9448
L18.6248 53.9448
" />
<path d="M18.6248 53.9448
L18.5296 53.8972
" />
<path d="M18.5296 53.8972
L18.4820 53.8496
" />
</g><g transform="rotate(-90.000000 43.3969 58.4700)">
<text x="43.3969" y="58.9700"
textLength="2.2024" font-size="1.3333" lengthAdjust="spacingAndGlyphs"
text-anchor="middle" opacity="0">R3</text>
</g>
<g class="stroked-text"><desc>R3</desc>
<path d="M43.8517 58.6367
L43.3755 58.9700
" />
<path d="M43.8517 59.2081
L42.8517 59.2081
" />
<path d="M42.8517 59.2081
L42.8517 58.8271
" />
<path d="M42.8517 58.8271
L42.8993 58.7319
" />
<path d="M42.8993 58.7319
L42.9470 58.6843
" />
<path d="M42.9470 58.6843
L43.0422 58.6367
" />
<path d="M43.0422 58.6367
L43.1851 58.6367
" />
<path d="M43.1851 58.6367
L43.2803 58.6843
" />
<path d="M43.2803 58.6843
L43.3279 58.7319
" />
<path d="M43.3279 58.7319
L43.3755 58.8271
" />
<path d="M43.3755 58.8271
L43.3755 59.2081
" />
<path d="M42.8517 58.3033
L42.8517 57.6843
" />
<path d="M42.8517 57.6843
L43.2327 58.0176
" />
<path d="M43.2327 58.0176
L43.2327 57.8748
" />
<path d="M43.2327 57.8748
L43.2803 57.7795
" />
<path d="M43.2803 57.7795
L43.3279 57.7319
" />
<path d="M43.3279 57.7319
L43.4232 57.6843
" />
<path d="M43.4232 57.6843
L43.6612 57.6843
" />
<path d="M43.6612 57.6843
L43.7565 57.7319
" />
<path d="M43.7565 57.7319
L43.8041 57.7795
" />
<path d="M43.8041 57.7795
L43.8517 57.8748
" />
<path d="M43.8517 57.8748
L43.8517 58.1605
" />
<path d="M43.8517 58.1605
L43.8041 58.2557
" />
<path d="M43.8041 58.2557
L43.7565 58.3033
" />
</g><g transform="rotate(-90.000000 67.5269 61.0600)">
<text x="67.5269" y="61.5600"
textLength="2.2024" font-size="1.3333" lengthAdjust="spacingAndGlyphs"
text-anchor="middle" opacity="0">R1</text>
</g>
<g class="stroked-text"><desc>R1</desc>
<path d="M67.9817 61.2267
L67.5055 61.5600
" />
<path d="M67.9817 61.7981
L66.9817 61.7981
" />
<path d="M66.9817 61.7981
L66.9817 61.4171
" />
<path d="M66.9817 61.4171
L67.0293 61.3219
" />
<path d="M67.0293 61.3219
L67.0770 61.2743
" />
<path d="M67.0770 61.2743
L67.1722 61.2267
" />
<path d="M67.1722 61.2267
L67.3151 61.2267
" />
<path d="M67.3151 61.2267
L67.4103 61.2743
" />
<path d="M67.4103 61.2743
L67.4579 61.3219
" />
<path d="M67.4579 61.3219
L67.5055 61.4171
" />
<path d="M67.5055 61.4171
L67.5055 61.7981
" />
<path d="M67.9817 60.2743
L67.9817 60.8457
" />
<path d="M67.9817 60.5600
L66.9817 60.5600
" />
<path d="M66.9817 60.5600
L67.1246 60.6552
" />
<path d="M67.1246 60.6552
L67.2198 60.7505
" />
<path d="M67.2198 60.7505
L67.2674 60.8457
" />
</g></g>
<g style="fill:#F2EDA1; fill-opacity:0.0; 
stroke:#F2EDA1; stroke-width:0.1200; stroke-opacity:1; 
stroke-linecap:round; stroke-linejoin:round;">
<path d="M17.3169 23.4300
L17.3169 37.6300
" />
<path d="M17.3169 37.6300
L31.5169 37.6300
" />
<path d="M31.5169 37.6300
L31.5169 23.4300
" />
<path d="M31.5169 23.4300
L17.3169 23.4300
" />
<path d="M35.4069 3.1100
L35.4069 17.3100
" />
<path d="M35.4069 17.3100
L49.6069 17.3100
" />
<path d="M49.6069 17.3100
L49.6069 3.1100
" />
<path d="M49.6069 3.1100
L35.4069 3.1100
" />
<path d="M35.4069 23.4300
L35.4069 37.6300
" />
<path d="M35.4069 37.6300
L49.6069 37.6300
" />
<path d="M49.6069 37.6300
L49.6069 23.4300
" />
<path d="M49.6069 23.4300
L35.4069 23.4300
" />
<path d="M53.4969 23.4300
L53.4969 37.6300
" />
<path d="M53.4969 37.6300
L67.6969 37.6300
" />
<path d="M67.6969 37.6300
L67.6969 23.4300
" />
<path d="M67.6969 23.4300
L53.4969 23.4300
" />
<path d="M59.8469 3.1100
L59.8469 17.3100
" />
<path d="M59.8469 17.3100
L74.0469 17.3100
" />
<path d="M74.0469 17.3100
L74.0469 3.1100
" />
<path d="M74.0469 3.1100
L59.8469 3.1100
" />
<path d="M80.1669 15.8100
L80.1669 30.0100
" />
<path d="M80.1669 30.0100
L94.3669 30.0100
" />
<path d="M94.3669 30.0100
L94.3669 15.8100
" />
<path d="M94.3669 15.8100
L80.1669 15.8100
" />
<path d="M17.2169 57.0900
L17.2169 59.0900
" />
<path d="M15.0769 59.0900
L15.0769 57.0900
" />
<path d="M20.1969 49.5800
L21.4669 49.5800
" />
<path d="M25.2769 49.5800
L27.8169 49.5800
" />
<path d="M25.2769 50.5960
L22.7369 50.5960
" />
<path d="M25.2769 51.1040
L22.7369 51.1040
" />
<path d="M25.2769 52.2470
L25.2769 49.5800
" />
<path d="M27.8169 49.5800
L27.8169 52.2470
" />
<path d="M27.8169 52.2470
L25.2769 52.2470
" />
<path d="M57.8569 57.5200
L57.8569 59.5200
" />
<path d="M55.7169 59.5200
L55.7169 57.5200
" />
<path d="M37.4969 52.2200
L36.2269 52.2200
" />
<path d="M32.4169 52.2200
L29.8769 52.2200
" />
<path d="M32.4169 51.2040
L34.9569 51.2040
" />
<path d="M32.4169 50.6960
L34.9569 50.6960
" />
<path d="M32.4169 49.5530
L32.4169 52.2200
" />
<path d="M29.8769 52.2200
L29.8769 49.5530
" />
<path d="M29.8769 49.5530
L32.4169 49.5530
" />
<path d="M22.2969 57.0900
L22.2969 59.0900
" />
<path d="M20.1569 59.0900
L20.1569 57.0900
" />
<path d="M64.3569 49.3900
L65.6269 49.3900
" />
<path d="M69.4369 49.3900
L71.9769 49.3900
" />
<path d="M69.4369 50.4060
L66.8969 50.4060
" />
<path d="M69.4369 50.9140
L66.8969 50.9140
" />
<path d="M69.4369 52.0570
L69.4369 49.3900
" />
<path d="M71.9769 49.3900
L71.9769 52.0570
" />
<path d="M71.9769 52.0570
L69.4369 52.0570
" />
<path d="M57.8169 52.2200
L56.5469 52.2200
" />
<path d="M52.7369 52.2200
L50.1969 52.2200
" />
<path d="M52.7369 51.2040
L55.2769 51.2040
" />
<path d="M52.7369 50.6960
L55.2769 50.6960
" />
<path d="M52.7369 49.5530
L52.7369 52.2200
" />
<path d="M50.1969 52.2200
L50.1969 49.5530
" />
<path d="M50.1969 49.5530
L52.7369 49.5530
" />
<path d="M40.5169 49.5800
L41.7869 49.5800
" />
<path d="M45.5969 49.5800
L48.1369 49.5800
" />
<path d="M45.5969 50.5960
L43.0569 50.5960
" />
<path d="M45.5969 51.1040
L43.0569 51.1040
" />
<path d="M45.5969 52.2470
L45.5969 49.5800
" />
<path d="M48.1369 49.5800
L48.1369 52.2470
" />
<path d="M48.1369 52.2470
L45.5969 52.2470
" />
<path d="M37.5369 57.4700
L37.5369 59.4700
" />
<path d="M35.3969 59.4700
L35.3969 57.4700
" />
<path d="M17.4169 67.3600
L16.1469 67.3600
" />
<path d="M12.3369 67.3600
L9.7969 67.3600
" />
<path d="M12.3369 66.3440
L14.8769 66.3440
" />
<path d="M12.3369 65.8360
L14.8769 65.8360
" />
<path d="M12.3369 64.6930
L12.3369 67.3600
" />
<path d="M9.7969 67.3600
L9.7969 64.6930
" />
<path d="M9.7969 64.6930
L12.3369 64.6930
" />
<path d="M30.1169 19.1000
L30.1169 17.8300
" />
<path d="M30.1169 14.0200
L30.1169 11.4800
" />
<path d="M31.1329 14.0200
L31.1329 16.5600
" />
<path d="M31.6409 14.0200
L31.6409 16.5600
" />
<path d="M32.7839 14.0200
L30.1169 14.0200
" />
<path d="M30.1169 11.4800
L32.7839 11.4800
" />
<path d="M32.7839 11.4800
L32.7839 14.0200
" />
<path d="M17.1769 52.2200
L15.9069 52.2200
" />
<path d="M12.0969 52.2200
L9.5569 52.2200
" />
<path d="M12.0969 51.2040
L14.6369 51.2040
" />
<path d="M12.0969 50.6960
L14.6369 50.6960
" />
<path d="M12.0969 49.5530
L12.0969 52.2200
" />
<path d="M9.5569 52.2200
L9.5569 49.5530
" />
<path d="M9.5569 49.5530
L12.0969 49.5530
" />
<path d="M42.6169 57.4700
L42.6169 59.4700
" />
<path d="M40.4769 59.4700
L40.4769 57.4700
" />
<path d="M66.7469 57.5200
L66.7469 59.5200
" />
<path d="M64.6069 59.5200
L64.6069 57.5200
" />
<g >
</g>
<g >
</g>
<g >
</g>
<g >
</g>
<g >
</g>
<g >
</g>
<g >
</g>
<g >
</g>
<g >
</g>
<g >
</g>
<g >
</g>
<g >
</g>
<g >
</g>
<g >
</g>
<g >
</g>
<g >
</g>
<g >
</g>
<g >
</g>
<g >
</g>
<g >
</g>
<g >
</g>
<g >
</g>
<g >
</g>
</g>
<g style="fill:#000000; fill-opacity:0.0; 
stroke:#000000; stroke-width:0.1200; stroke-opacity:1; 
stroke-linecap:round; stroke-linejoin:round;">
</g>
<g style="fill:#D0D2CD; fill-opacity:0.0; 
stroke:#D0D2CD; stroke-width:0.1200; stroke-opacity:1; 
stroke-linecap:round; stroke-linejoin:round;">
</g>
<g style="fill:#D0D2CD; fill-opacity:0.0; 
stroke:#D0D2CD; stroke-width:0.1000; stroke-opacity:1; 
stroke-linecap:round; stroke-linejoin:round;">
<path style="fill:#D0D2CD; fill-opacity:0.0; 
stroke:#D0D2CD; stroke-width:0.1000; stroke-opacity:1; 
stroke-linecap:round; stroke-linejoin:round;fill:none"
d="M 5.9869,0.0500
97.4269,0.0500
97.4269,71.1700
5.9869,71.1700
Z" /> 
<g >
</g>
<g >
</g>
<g >
</g>
<g >
</g>
<g >
</g>
<g >
</g>
<g >
</g>
<g >
</g>
<g >
</g>
<g >
</g>
<g >
</g>
<g >
</g>
<g >
</g>
<g >
</g>
<g >
</g>
<g >
</g>
<g >
</g>
<g >
</g>
<g >
</g>
<g >
</g>
<g >
</g>
<g >
</g>
<g >
</g>
</g> 
</svg>
