<?xml version="1.0" standalone="no"?>
 <!DOCTYPE svg PUBLIC "-//W3C//DTD SVG 1.1//EN" 
 "http://www.w3.org/Graphics/SVG/1.1/DTD/svg11.dtd"> 
<svg
  xmlns:svg="http://www.w3.org/2000/svg"
  xmlns="http://www.w3.org/2000/svg"
  xmlns:xlink="http://www.w3.org/1999/xlink"
  version="1.1"
  width="99.9490mm" height="71.1962mm" viewBox="0.0000 0.0000 99.9490 71.1962">
<title>SVG Image created as SwitchBoard-F_Silkscreen.svg date 2024/02/10 16:14:40 </title>
  <desc>Image generated by PCBNEW </desc>
<g style="fill:#000000; fill-opacity:1.0000;stroke:#000000; stroke-opacity:1.0000;
stroke-linecap:round; stroke-linejoin:round;"
 transform="translate(0 0) scale(1 1)">
</g>
<g style="fill:#000000; fill-opacity:0.0; 
stroke:#000000; stroke-width:0.0000; stroke-opacity:1; 
stroke-linecap:round; stroke-linejoin:round;">
</g>
<g style="fill:#F2EDA1; fill-opacity:0.0; 
stroke:#F2EDA1; stroke-width:0.0000; stroke-opacity:1; 
stroke-linecap:round; stroke-linejoin:round;">
</g>
<g style="fill:#F2EDA1; fill-opacity:0.0; 
stroke:#F2EDA1; stroke-width:0.1500; stroke-opacity:1; 
stroke-linecap:round; stroke-linejoin:round;">
<g transform="rotate(-90.000000 20.4769 58.0900)">
<text x="20.4769" y="58.5900"
textLength="2.2024" font-size="1.3333" lengthAdjust="spacingAndGlyphs"
text-anchor="middle" opacity="0">R5</text>
</g>
<g class="stroked-text"><desc>R5</desc>
<path d="M20.9317 58.2567
L20.4555 58.5900
" />
<path d="M20.9317 58.8281
L19.9317 58.8281
" />
<path d="M19.9317 58.8281
L19.9317 58.4471
" />
<path d="M19.9317 58.4471
L19.9793 58.3519
" />
<path d="M19.9793 58.3519
L20.0270 58.3043
" />
<path d="M20.0270 58.3043
L20.1222 58.2567
" />
<path d="M20.1222 58.2567
L20.2651 58.2567
" />
<path d="M20.2651 58.2567
L20.3603 58.3043
" />
<path d="M20.3603 58.3043
L20.4079 58.3519
" />
<path d="M20.4079 58.3519
L20.4555 58.4471
" />
<path d="M20.4555 58.4471
L20.4555 58.8281
" />
<path d="M19.9317 57.3519
L19.9317 57.8281
" />
<path d="M19.9317 57.8281
L20.4079 57.8757
" />
<path d="M20.4079 57.8757
L20.3603 57.8281
" />
<path d="M20.3603 57.8281
L20.3127 57.7329
" />
<path d="M20.3127 57.7329
L20.3127 57.4948
" />
<path d="M20.3127 57.4948
L20.3603 57.3995
" />
<path d="M20.3603 57.3995
L20.4079 57.3519
" />
<path d="M20.4079 57.3519
L20.5032 57.3043
" />
<path d="M20.5032 57.3043
L20.7412 57.3043
" />
<path d="M20.7412 57.3043
L20.8365 57.3519
" />
<path d="M20.8365 57.3519
L20.8841 57.3995
" />
<path d="M20.8841 57.3995
L20.9317 57.4948
" />
<path d="M20.9317 57.4948
L20.9317 57.7329
" />
<path d="M20.9317 57.7329
L20.8841 57.8281
" />
<path d="M20.8841 57.8281
L20.8365 57.8757
" />
</g><text x="23.9469" y="49.0200"
textLength="1.9643" font-size="1.3333" lengthAdjust="spacingAndGlyphs"
text-anchor="middle" opacity="0">J6</text>
<g class="stroked-text"><desc>J6</desc>
<path d="M23.6136 47.9748
L23.6136 48.6891
" />
<path d="M23.6136 48.6891
L23.5660 48.8320
" />
<path d="M23.5660 48.8320
L23.4707 48.9272
" />
<path d="M23.4707 48.9272
L23.3279 48.9748
" />
<path d="M23.3279 48.9748
L23.2326 48.9748
" />
<path d="M24.5183 47.9748
L24.3279 47.9748
" />
<path d="M24.3279 47.9748
L24.2326 48.0224
" />
<path d="M24.2326 48.0224
L24.1850 48.0701
" />
<path d="M24.1850 48.0701
L24.0898 48.2129
" />
<path d="M24.0898 48.2129
L24.0421 48.4034
" />
<path d="M24.0421 48.4034
L24.0421 48.7843
" />
<path d="M24.0421 48.7843
L24.0898 48.8796
" />
<path d="M24.0898 48.8796
L24.1374 48.9272
" />
<path d="M24.1374 48.9272
L24.2326 48.9748
" />
<path d="M24.2326 48.9748
L24.4231 48.9748
" />
<path d="M24.4231 48.9748
L24.5183 48.9272
" />
<path d="M24.5183 48.9272
L24.5660 48.8796
" />
<path d="M24.5660 48.8796
L24.6136 48.7843
" />
<path d="M24.6136 48.7843
L24.6136 48.5462
" />
<path d="M24.6136 48.5462
L24.5660 48.4510
" />
<path d="M24.5660 48.4510
L24.5183 48.4034
" />
<path d="M24.5183 48.4034
L24.4231 48.3558
" />
<path d="M24.4231 48.3558
L24.2326 48.3558
" />
<path d="M24.2326 48.3558
L24.1374 48.4034
" />
<path d="M24.1374 48.4034
L24.0898 48.4510
" />
<path d="M24.0898 48.4510
L24.0421 48.5462
" />
</g><g transform="rotate(-90.000000 61.1169 58.5200)">
<text x="61.1169" y="59.0200"
textLength="2.2024" font-size="1.3333" lengthAdjust="spacingAndGlyphs"
text-anchor="middle" opacity="0">R2</text>
</g>
<g class="stroked-text"><desc>R2</desc>
<path d="M61.5717 58.6867
L61.0955 59.0200
" />
<path d="M61.5717 59.2581
L60.5717 59.2581
" />
<path d="M60.5717 59.2581
L60.5717 58.8771
" />
<path d="M60.5717 58.8771
L60.6193 58.7819
" />
<path d="M60.6193 58.7819
L60.6670 58.7343
" />
<path d="M60.6670 58.7343
L60.7622 58.6867
" />
<path d="M60.7622 58.6867
L60.9051 58.6867
" />
<path d="M60.9051 58.6867
L61.0003 58.7343
" />
<path d="M61.0003 58.7343
L61.0479 58.7819
" />
<path d="M61.0479 58.7819
L61.0955 58.8771
" />
<path d="M61.0955 58.8771
L61.0955 59.2581
" />
<path d="M60.6670 58.3057
L60.6193 58.2581
" />
<path d="M60.6193 58.2581
L60.5717 58.1629
" />
<path d="M60.5717 58.1629
L60.5717 57.9248
" />
<path d="M60.5717 57.9248
L60.6193 57.8295
" />
<path d="M60.6193 57.8295
L60.6670 57.7819
" />
<path d="M60.6670 57.7819
L60.7622 57.7343
" />
<path d="M60.7622 57.7343
L60.8574 57.7343
" />
<path d="M60.8574 57.7343
L61.0003 57.7819
" />
<path d="M61.0003 57.7819
L61.5717 58.3533
" />
<path d="M61.5717 58.3533
L61.5717 57.7343
" />
</g><text x="38.7069" y="53.7800"
textLength="1.9643" font-size="1.3333" lengthAdjust="spacingAndGlyphs"
text-anchor="middle" opacity="0">J4</text>
<g class="stroked-text"><desc>J4</desc>
<path d="M38.3736 52.7348
L38.3736 53.4491
" />
<path d="M38.3736 53.4491
L38.3260 53.5920
" />
<path d="M38.3260 53.5920
L38.2307 53.6872
" />
<path d="M38.2307 53.6872
L38.0879 53.7348
" />
<path d="M38.0879 53.7348
L37.9926 53.7348
" />
<path d="M39.2783 53.0682
L39.2783 53.7348
" />
<path d="M39.0402 52.6872
L38.8021 53.4015
" />
<path d="M38.8021 53.4015
L39.4212 53.4015
" />
</g><g transform="rotate(-90.000000 25.5569 58.0900)">
<text x="25.5569" y="58.5900"
textLength="2.2024" font-size="1.3333" lengthAdjust="spacingAndGlyphs"
text-anchor="middle" opacity="0">R6</text>
</g>
<g class="stroked-text"><desc>R6</desc>
<path d="M26.0117 58.2567
L25.5355 58.5900
" />
<path d="M26.0117 58.8281
L25.0117 58.8281
" />
<path d="M25.0117 58.8281
L25.0117 58.4471
" />
<path d="M25.0117 58.4471
L25.0593 58.3519
" />
<path d="M25.0593 58.3519
L25.1070 58.3043
" />
<path d="M25.1070 58.3043
L25.2022 58.2567
" />
<path d="M25.2022 58.2567
L25.3451 58.2567
" />
<path d="M25.3451 58.2567
L25.4403 58.3043
" />
<path d="M25.4403 58.3043
L25.4879 58.3519
" />
<path d="M25.4879 58.3519
L25.5355 58.4471
" />
<path d="M25.5355 58.4471
L25.5355 58.8281
" />
<path d="M25.0117 57.3995
L25.0117 57.5900
" />
<path d="M25.0117 57.5900
L25.0593 57.6852
" />
<path d="M25.0593 57.6852
L25.1070 57.7329
" />
<path d="M25.1070 57.7329
L25.2498 57.8281
" />
<path d="M25.2498 57.8281
L25.4403 57.8757
" />
<path d="M25.4403 57.8757
L25.8212 57.8757
" />
<path d="M25.8212 57.8757
L25.9165 57.8281
" />
<path d="M25.9165 57.8281
L25.9641 57.7805
" />
<path d="M25.9641 57.7805
L26.0117 57.6852
" />
<path d="M26.0117 57.6852
L26.0117 57.4948
" />
<path d="M26.0117 57.4948
L25.9641 57.3995
" />
<path d="M25.9641 57.3995
L25.9165 57.3519
" />
<path d="M25.9165 57.3519
L25.8212 57.3043
" />
<path d="M25.8212 57.3043
L25.5832 57.3043
" />
<path d="M25.5832 57.3043
L25.4879 57.3519
" />
<path d="M25.4879 57.3519
L25.4403 57.3995
" />
<path d="M25.4403 57.3995
L25.3927 57.4948
" />
<path d="M25.3927 57.4948
L25.3927 57.6852
" />
<path d="M25.3927 57.6852
L25.4403 57.7805
" />
<path d="M25.4403 57.7805
L25.4879 57.8281
" />
<path d="M25.4879 57.8281
L25.5832 57.8757
" />
</g><text x="68.1069" y="48.8300"
textLength="1.9643" font-size="1.3333" lengthAdjust="spacingAndGlyphs"
text-anchor="middle" opacity="0">J1</text>
<g class="stroked-text"><desc>J1</desc>
<path d="M67.7736 47.7848
L67.7736 48.4991
" />
<path d="M67.7736 48.4991
L67.7260 48.6420
" />
<path d="M67.7260 48.6420
L67.6307 48.7372
" />
<path d="M67.6307 48.7372
L67.4879 48.7848
" />
<path d="M67.4879 48.7848
L67.3926 48.7848
" />
<path d="M68.7736 48.7848
L68.2021 48.7848
" />
<path d="M68.4879 48.7848
L68.4879 47.7848
" />
<path d="M68.4879 47.7848
L68.3926 47.9277
" />
<path d="M68.3926 47.9277
L68.2974 48.0229
" />
<path d="M68.2974 48.0229
L68.2021 48.0705
" />
</g><text x="59.0269" y="53.7800"
textLength="1.9643" font-size="1.3333" lengthAdjust="spacingAndGlyphs"
text-anchor="middle" opacity="0">J2</text>
<g class="stroked-text"><desc>J2</desc>
<path d="M58.6936 52.7348
L58.6936 53.4491
" />
<path d="M58.6936 53.4491
L58.6460 53.5920
" />
<path d="M58.6460 53.5920
L58.5507 53.6872
" />
<path d="M58.5507 53.6872
L58.4079 53.7348
" />
<path d="M58.4079 53.7348
L58.3126 53.7348
" />
<path d="M59.1221 52.8301
L59.1698 52.7824
" />
<path d="M59.1698 52.7824
L59.2650 52.7348
" />
<path d="M59.2650 52.7348
L59.5031 52.7348
" />
<path d="M59.5031 52.7348
L59.5983 52.7824
" />
<path d="M59.5983 52.7824
L59.6460 52.8301
" />
<path d="M59.6460 52.8301
L59.6936 52.9253
" />
<path d="M59.6936 52.9253
L59.6936 53.0205
" />
<path d="M59.6936 53.0205
L59.6460 53.1634
" />
<path d="M59.6460 53.1634
L59.0745 53.7348
" />
<path d="M59.0745 53.7348
L59.6936 53.7348
" />
</g><text x="44.2669" y="49.0200"
textLength="1.9643" font-size="1.3333" lengthAdjust="spacingAndGlyphs"
text-anchor="middle" opacity="0">J3</text>
<g class="stroked-text"><desc>J3</desc>
<path d="M43.9336 47.9748
L43.9336 48.6891
" />
<path d="M43.9336 48.6891
L43.8860 48.8320
" />
<path d="M43.8860 48.8320
L43.7907 48.9272
" />
<path d="M43.7907 48.9272
L43.6479 48.9748
" />
<path d="M43.6479 48.9748
L43.5526 48.9748
" />
<path d="M44.3145 47.9748
L44.9336 47.9748
" />
<path d="M44.9336 47.9748
L44.6002 48.3558
" />
<path d="M44.6002 48.3558
L44.7431 48.3558
" />
<path d="M44.7431 48.3558
L44.8383 48.4034
" />
<path d="M44.8383 48.4034
L44.8860 48.4510
" />
<path d="M44.8860 48.4510
L44.9336 48.5462
" />
<path d="M44.9336 48.5462
L44.9336 48.7843
" />
<path d="M44.9336 48.7843
L44.8860 48.8796
" />
<path d="M44.8860 48.8796
L44.8383 48.9272
" />
<path d="M44.8383 48.9272
L44.7431 48.9748
" />
<path d="M44.7431 48.9748
L44.4574 48.9748
" />
<path d="M44.4574 48.9748
L44.3621 48.9272
" />
<path d="M44.3621 48.9272
L44.3145 48.8796
" />
</g><g transform="rotate(-90.000000 40.7969 58.4700)">
<text x="40.7969" y="58.9700"
textLength="2.2024" font-size="1.3333" lengthAdjust="spacingAndGlyphs"
text-anchor="middle" opacity="0">R4</text>
</g>
<g class="stroked-text"><desc>R4</desc>
<path d="M41.2517 58.6367
L40.7755 58.9700
" />
<path d="M41.2517 59.2081
L40.2517 59.2081
" />
<path d="M40.2517 59.2081
L40.2517 58.8271
" />
<path d="M40.2517 58.8271
L40.2993 58.7319
" />
<path d="M40.2993 58.7319
L40.3470 58.6843
" />
<path d="M40.3470 58.6843
L40.4422 58.6367
" />
<path d="M40.4422 58.6367
L40.5851 58.6367
" />
<path d="M40.5851 58.6367
L40.6803 58.6843
" />
<path d="M40.6803 58.6843
L40.7279 58.7319
" />
<path d="M40.7279 58.7319
L40.7755 58.8271
" />
<path d="M40.7755 58.8271
L40.7755 59.2081
" />
<path d="M40.5851 57.7795
L41.2517 57.7795
" />
<path d="M40.2041 58.0176
L40.9184 58.2557
" />
<path d="M40.9184 58.2557
L40.9184 57.6367
" />
</g><g transform="rotate(-90.000000 20.9569 66.0900)">
<text x="20.9569" y="66.5900"
textLength="1.9643" font-size="1.3333" lengthAdjust="spacingAndGlyphs"
text-anchor="middle" opacity="0">J8</text>
</g>
<g class="stroked-text"><desc>J8</desc>
<path d="M20.4117 66.4233
L21.1260 66.4233
" />
<path d="M21.1260 66.4233
L21.2689 66.4710
" />
<path d="M21.2689 66.4710
L21.3641 66.5662
" />
<path d="M21.3641 66.5662
L21.4117 66.7090
" />
<path d="M21.4117 66.7090
L21.4117 66.8043
" />
<path d="M20.8403 65.8043
L20.7927 65.8995
" />
<path d="M20.7927 65.8995
L20.7451 65.9471
" />
<path d="M20.7451 65.9471
L20.6498 65.9948
" />
<path d="M20.6498 65.9948
L20.6022 65.9948
" />
<path d="M20.6022 65.9948
L20.5070 65.9471
" />
<path d="M20.5070 65.9471
L20.4593 65.8995
" />
<path d="M20.4593 65.8995
L20.4117 65.8043
" />
<path d="M20.4117 65.8043
L20.4117 65.6138
" />
<path d="M20.4117 65.6138
L20.4593 65.5186
" />
<path d="M20.4593 65.5186
L20.5070 65.4710
" />
<path d="M20.5070 65.4710
L20.6022 65.4233
" />
<path d="M20.6022 65.4233
L20.6498 65.4233
" />
<path d="M20.6498 65.4233
L20.7451 65.4710
" />
<path d="M20.7451 65.4710
L20.7927 65.5186
" />
<path d="M20.7927 65.5186
L20.8403 65.6138
" />
<path d="M20.8403 65.6138
L20.8403 65.8043
" />
<path d="M20.8403 65.8043
L20.8879 65.8995
" />
<path d="M20.8879 65.8995
L20.9355 65.9471
" />
<path d="M20.9355 65.9471
L21.0308 65.9948
" />
<path d="M21.0308 65.9948
L21.2212 65.9948
" />
<path d="M21.2212 65.9948
L21.3165 65.9471
" />
<path d="M21.3165 65.9471
L21.3641 65.8995
" />
<path d="M21.3641 65.8995
L21.4117 65.8043
" />
<path d="M21.4117 65.8043
L21.4117 65.6138
" />
<path d="M21.4117 65.6138
L21.3641 65.5186
" />
<path d="M21.3641 65.5186
L21.3165 65.4710
" />
<path d="M21.3165 65.4710
L21.2212 65.4233
" />
<path d="M21.2212 65.4233
L21.0308 65.4233
" />
<path d="M21.0308 65.4233
L20.9355 65.4710
" />
<path d="M20.9355 65.4710
L20.8879 65.5186
" />
<path d="M20.8879 65.5186
L20.8403 65.6138
" />
</g><g transform="rotate(-90.000000 82.3369 10.2100)">
<text x="82.3369" y="10.7100"
textLength="1.9643" font-size="1.3333" lengthAdjust="spacingAndGlyphs"
text-anchor="middle" opacity="0">J7</text>
</g>
<g class="stroked-text"><desc>J7</desc>
<path d="M81.7917 10.5433
L82.5060 10.5433
" />
<path d="M82.5060 10.5433
L82.6489 10.5910
" />
<path d="M82.6489 10.5910
L82.7441 10.6862
" />
<path d="M82.7441 10.6862
L82.7917 10.8290
" />
<path d="M82.7917 10.8290
L82.7917 10.9243
" />
<path d="M81.7917 10.1624
L81.7917 9.4957
" />
<path d="M81.7917 9.4957
L82.7917 9.9243
" />
</g><text x="18.3869" y="53.7800"
textLength="1.9643" font-size="1.3333" lengthAdjust="spacingAndGlyphs"
text-anchor="middle" opacity="0">J5</text>
<g class="stroked-text"><desc>J5</desc>
<path d="M18.0536 52.7348
L18.0536 53.4491
" />
<path d="M18.0536 53.4491
L18.0060 53.5920
" />
<path d="M18.0060 53.5920
L17.9107 53.6872
" />
<path d="M17.9107 53.6872
L17.7679 53.7348
" />
<path d="M17.7679 53.7348
L17.6726 53.7348
" />
<path d="M19.0060 52.7348
L18.5298 52.7348
" />
<path d="M18.5298 52.7348
L18.4821 53.2110
" />
<path d="M18.4821 53.2110
L18.5298 53.1634
" />
<path d="M18.5298 53.1634
L18.6250 53.1158
" />
<path d="M18.6250 53.1158
L18.8631 53.1158
" />
<path d="M18.8631 53.1158
L18.9583 53.1634
" />
<path d="M18.9583 53.1634
L19.0060 53.2110
" />
<path d="M19.0060 53.2110
L19.0536 53.3062
" />
<path d="M19.0536 53.3062
L19.0536 53.5443
" />
<path d="M19.0536 53.5443
L19.0060 53.6396
" />
<path d="M19.0060 53.6396
L18.9583 53.6872
" />
<path d="M18.9583 53.6872
L18.8631 53.7348
" />
<path d="M18.8631 53.7348
L18.6250 53.7348
" />
<path d="M18.6250 53.7348
L18.5298 53.6872
" />
<path d="M18.5298 53.6872
L18.4821 53.6396
" />
</g><g transform="rotate(-90.000000 45.8769 58.4700)">
<text x="45.8769" y="58.9700"
textLength="2.2024" font-size="1.3333" lengthAdjust="spacingAndGlyphs"
text-anchor="middle" opacity="0">R3</text>
</g>
<g class="stroked-text"><desc>R3</desc>
<path d="M46.3317 58.6367
L45.8555 58.9700
" />
<path d="M46.3317 59.2081
L45.3317 59.2081
" />
<path d="M45.3317 59.2081
L45.3317 58.8271
" />
<path d="M45.3317 58.8271
L45.3793 58.7319
" />
<path d="M45.3793 58.7319
L45.4270 58.6843
" />
<path d="M45.4270 58.6843
L45.5222 58.6367
" />
<path d="M45.5222 58.6367
L45.6651 58.6367
" />
<path d="M45.6651 58.6367
L45.7603 58.6843
" />
<path d="M45.7603 58.6843
L45.8079 58.7319
" />
<path d="M45.8079 58.7319
L45.8555 58.8271
" />
<path d="M45.8555 58.8271
L45.8555 59.2081
" />
<path d="M45.3317 58.3033
L45.3317 57.6843
" />
<path d="M45.3317 57.6843
L45.7127 58.0176
" />
<path d="M45.7127 58.0176
L45.7127 57.8748
" />
<path d="M45.7127 57.8748
L45.7603 57.7795
" />
<path d="M45.7603 57.7795
L45.8079 57.7319
" />
<path d="M45.8079 57.7319
L45.9032 57.6843
" />
<path d="M45.9032 57.6843
L46.1412 57.6843
" />
<path d="M46.1412 57.6843
L46.2365 57.7319
" />
<path d="M46.2365 57.7319
L46.2841 57.7795
" />
<path d="M46.2841 57.7795
L46.3317 57.8748
" />
<path d="M46.3317 57.8748
L46.3317 58.1605
" />
<path d="M46.3317 58.1605
L46.2841 58.2557
" />
<path d="M46.2841 58.2557
L46.2365 58.3033
" />
</g><g transform="rotate(-90.000000 70.0069 61.0600)">
<text x="70.0069" y="61.5600"
textLength="2.2024" font-size="1.3333" lengthAdjust="spacingAndGlyphs"
text-anchor="middle" opacity="0">R1</text>
</g>
<g class="stroked-text"><desc>R1</desc>
<path d="M70.4617 61.2267
L69.9855 61.5600
" />
<path d="M70.4617 61.7981
L69.4617 61.7981
" />
<path d="M69.4617 61.7981
L69.4617 61.4171
" />
<path d="M69.4617 61.4171
L69.5093 61.3219
" />
<path d="M69.5093 61.3219
L69.5570 61.2743
" />
<path d="M69.5570 61.2743
L69.6522 61.2267
" />
<path d="M69.6522 61.2267
L69.7951 61.2267
" />
<path d="M69.7951 61.2267
L69.8903 61.2743
" />
<path d="M69.8903 61.2743
L69.9379 61.3219
" />
<path d="M69.9379 61.3219
L69.9855 61.4171
" />
<path d="M69.9855 61.4171
L69.9855 61.7981
" />
<path d="M70.4617 60.2743
L70.4617 60.8457
" />
<path d="M70.4617 60.5600
L69.4617 60.5600
" />
<path d="M69.4617 60.5600
L69.6046 60.6552
" />
<path d="M69.6046 60.6552
L69.6998 60.7505
" />
<path d="M69.6998 60.7505
L69.7474 60.8457
" />
</g></g>
<g style="fill:#F2EDA1; fill-opacity:0.0; 
stroke:#F2EDA1; stroke-width:0.1200; stroke-opacity:1; 
stroke-linecap:round; stroke-linejoin:round;">
<path d="M19.6969 57.0900
L19.6969 59.0900
" />
<path d="M17.5569 59.0900
L17.5569 57.0900
" />
<path d="M22.6769 49.5800
L22.6769 52.1200
" />
<path d="M22.6769 49.5800
L25.2169 49.5800
" />
<path d="M22.6769 52.1200
L25.2169 52.1200
" />
<path d="M25.2169 49.5800
L25.2169 52.1200
" />
<path d="M60.3369 57.5200
L60.3369 59.5200
" />
<path d="M58.1969 59.5200
L58.1969 57.5200
" />
<path d="M39.9769 52.2200
L39.9769 49.6800
" />
<path d="M39.9769 52.2200
L37.4369 52.2200
" />
<path d="M39.9769 49.6800
L37.4369 49.6800
" />
<path d="M37.4369 52.2200
L37.4369 49.6800
" />
<path d="M24.7769 57.0900
L24.7769 59.0900
" />
<path d="M22.6369 59.0900
L22.6369 57.0900
" />
<path d="M66.8369 49.3900
L66.8369 51.9300
" />
<path d="M66.8369 49.3900
L69.3769 49.3900
" />
<path d="M66.8369 51.9300
L69.3769 51.9300
" />
<path d="M69.3769 49.3900
L69.3769 51.9300
" />
<path d="M60.2969 52.2200
L60.2969 49.6800
" />
<path d="M60.2969 52.2200
L57.7569 52.2200
" />
<path d="M60.2969 49.6800
L57.7569 49.6800
" />
<path d="M57.7569 52.2200
L57.7569 49.6800
" />
<path d="M42.9969 49.5800
L42.9969 52.1200
" />
<path d="M42.9969 49.5800
L45.5369 49.5800
" />
<path d="M42.9969 52.1200
L45.5369 52.1200
" />
<path d="M45.5369 49.5800
L45.5369 52.1200
" />
<path d="M40.0169 57.4700
L40.0169 59.4700
" />
<path d="M37.8769 59.4700
L37.8769 57.4700
" />
<path d="M19.8969 64.8200
L14.8169 64.8200
" />
<path d="M19.8969 64.8200
L19.8969 67.3600
" />
<path d="M14.8169 64.8200
L14.8169 67.3600
" />
<path d="M19.8969 67.3600
L14.8169 67.3600
" />
<path d="M83.3969 11.4800
L88.4769 11.4800
" />
<path d="M83.3969 11.4800
L83.3969 8.9400
" />
<path d="M88.4769 11.4800
L88.4769 8.9400
" />
<path d="M83.3969 8.9400
L88.4769 8.9400
" />
<path d="M19.6569 52.2200
L19.6569 49.6800
" />
<path d="M19.6569 52.2200
L17.1169 52.2200
" />
<path d="M19.6569 49.6800
L17.1169 49.6800
" />
<path d="M17.1169 52.2200
L17.1169 49.6800
" />
<path d="M45.0969 57.4700
L45.0969 59.4700
" />
<path d="M42.9569 59.4700
L42.9569 57.4700
" />
<path d="M69.2269 57.5200
L69.2269 59.5200
" />
<path d="M67.0869 59.5200
L67.0869 57.5200
" />
<g >
</g>
<g >
</g>
<g >
</g>
<g >
</g>
<g >
</g>
<g >
</g>
<g >
</g>
<g >
</g>
<g >
</g>
<g >
</g>
<g >
</g>
<g >
</g>
<g >
</g>
<g >
</g>
<g >
</g>
<g >
</g>
<g >
</g>
<g >
</g>
<g >
</g>
<g >
</g>
<g >
</g>
<g >
</g>
<g >
</g>
</g>
<g style="fill:#000000; fill-opacity:0.0; 
stroke:#000000; stroke-width:0.1200; stroke-opacity:1; 
stroke-linecap:round; stroke-linejoin:round;">
</g>
<g style="fill:#D0D2CD; fill-opacity:0.0; 
stroke:#D0D2CD; stroke-width:0.1200; stroke-opacity:1; 
stroke-linecap:round; stroke-linejoin:round;">
</g>
<g style="fill:#D0D2CD; fill-opacity:0.0; 
stroke:#D0D2CD; stroke-width:0.1000; stroke-opacity:1; 
stroke-linecap:round; stroke-linejoin:round;">
<path style="fill:#D0D2CD; fill-opacity:0.0; 
stroke:#D0D2CD; stroke-width:0.1000; stroke-opacity:1; 
stroke-linecap:round; stroke-linejoin:round;fill:none"
d="M 8.4669,0.0500
99.9069,0.0500
99.9069,71.1700
8.4669,71.1700
Z" /> 
<g >
</g>
<g >
</g>
<g >
</g>
<g >
</g>
<g >
</g>
<g >
</g>
<g >
</g>
<g >
</g>
<g >
</g>
<g >
</g>
<g >
</g>
<g >
</g>
<g >
</g>
<g >
</g>
<g >
</g>
<g >
</g>
<g >
</g>
<g >
</g>
<g >
</g>
<g >
</g>
<g >
</g>
<g >
</g>
<g >
</g>
</g> 
</svg>
