<?xml version="1.0" standalone="no"?>
 <!DOCTYPE svg PUBLIC "-//W3C//DTD SVG 1.1//EN" 
 "http://www.w3.org/Graphics/SVG/1.1/DTD/svg11.dtd"> 
<svg
  xmlns:svg="http://www.w3.org/2000/svg"
  xmlns="http://www.w3.org/2000/svg"
  xmlns:xlink="http://www.w3.org/1999/xlink"
  version="1.1"
  width="99.9490mm" height="71.1962mm" viewBox="0.0000 0.0000 99.9490 71.1962">
<title>SVG Image created as SwitchBoard-F_Courtyard.svg date 2024/02/10 16:14:40 </title>
  <desc>Image generated by PCBNEW </desc>
<g style="fill:#000000; fill-opacity:1.0000;stroke:#000000; stroke-opacity:1.0000;
stroke-linecap:round; stroke-linejoin:round;"
 transform="translate(0 0) scale(1 1)">
</g>
<g style="fill:#000000; fill-opacity:0.0; 
stroke:#000000; stroke-width:0.0000; stroke-opacity:1; 
stroke-linecap:round; stroke-linejoin:round;">
</g>
<g style="fill:#FF26E2; fill-opacity:0.0; 
stroke:#FF26E2; stroke-width:0.0000; stroke-opacity:1; 
stroke-linecap:round; stroke-linejoin:round;">
</g>
<g style="fill:#FF26E2; fill-opacity:0.0; 
stroke:#FF26E2; stroke-width:0.0500; stroke-opacity:1; 
stroke-linecap:round; stroke-linejoin:round;">
<path d="M19.7269 55.3900
L17.5269 55.3900
" />
<path d="M17.5269 55.3900
L17.5269 60.6900
" />
<path d="M17.5269 60.6900
L19.7269 60.6900
" />
<path d="M19.7269 60.6900
L19.7269 55.3900
" />
<path d="M22.1469 49.0500
L22.1469 52.6500
" />
<path d="M22.1469 52.6500
L25.7469 52.6500
" />
<path d="M25.7469 49.0500
L22.1469 49.0500
" />
<path d="M25.7469 52.6500
L25.7469 49.0500
" />
<path d="M60.3669 55.8200
L58.1669 55.8200
" />
<path d="M58.1669 55.8200
L58.1669 61.1200
" />
<path d="M58.1669 61.1200
L60.3669 61.1200
" />
<path d="M60.3669 61.1200
L60.3669 55.8200
" />
<path d="M40.5069 52.7500
L40.5069 49.1500
" />
<path d="M40.5069 49.1500
L36.9069 49.1500
" />
<path d="M36.9069 52.7500
L40.5069 52.7500
" />
<path d="M36.9069 49.1500
L36.9069 52.7500
" />
<path d="M24.8069 55.3900
L22.6069 55.3900
" />
<path d="M22.6069 55.3900
L22.6069 60.6900
" />
<path d="M22.6069 60.6900
L24.8069 60.6900
" />
<path d="M24.8069 60.6900
L24.8069 55.3900
" />
<path d="M66.3069 48.8600
L66.3069 52.4600
" />
<path d="M66.3069 52.4600
L69.9069 52.4600
" />
<path d="M69.9069 48.8600
L66.3069 48.8600
" />
<path d="M69.9069 52.4600
L69.9069 48.8600
" />
<path d="M60.8269 52.7500
L60.8269 49.1500
" />
<path d="M60.8269 49.1500
L57.2269 49.1500
" />
<path d="M57.2269 52.7500
L60.8269 52.7500
" />
<path d="M57.2269 49.1500
L57.2269 52.7500
" />
<path d="M42.4669 49.0500
L42.4669 52.6500
" />
<path d="M42.4669 52.6500
L46.0669 52.6500
" />
<path d="M46.0669 49.0500
L42.4669 49.0500
" />
<path d="M46.0669 52.6500
L46.0669 49.0500
" />
<path d="M40.0469 55.7700
L37.8469 55.7700
" />
<path d="M37.8469 55.7700
L37.8469 61.0700
" />
<path d="M37.8469 61.0700
L40.0469 61.0700
" />
<path d="M40.0469 61.0700
L40.0469 55.7700
" />
<path d="M20.4269 64.2900
L14.2269 64.2900
" />
<path d="M14.2269 64.2900
L14.2269 67.8900
" />
<path d="M20.4269 67.8900
L20.4269 64.2900
" />
<path d="M14.2269 67.8900
L20.4269 67.8900
" />
<path d="M82.8669 12.0100
L89.0669 12.0100
" />
<path d="M89.0669 12.0100
L89.0669 8.4100
" />
<path d="M82.8669 8.4100
L82.8669 12.0100
" />
<path d="M89.0669 8.4100
L82.8669 8.4100
" />
<path d="M20.1869 52.7500
L20.1869 49.1500
" />
<path d="M20.1869 49.1500
L16.5869 49.1500
" />
<path d="M16.5869 52.7500
L20.1869 52.7500
" />
<path d="M16.5869 49.1500
L16.5869 52.7500
" />
<path d="M45.1269 55.7700
L42.9269 55.7700
" />
<path d="M42.9269 55.7700
L42.9269 61.0700
" />
<path d="M42.9269 61.0700
L45.1269 61.0700
" />
<path d="M45.1269 61.0700
L45.1269 55.7700
" />
<path d="M69.2569 55.8200
L67.0569 55.8200
" />
<path d="M67.0569 55.8200
L67.0569 61.1200
" />
<path d="M67.0569 61.1200
L69.2569 61.1200
" />
<path d="M69.2569 61.1200
L69.2569 55.8200
" />
<g >
</g>
<g >
</g>
<g >
</g>
<g >
</g>
<g >
</g>
<g >
</g>
<g >
</g>
<g >
</g>
<g >
</g>
<g >
</g>
<g >
</g>
<g >
</g>
<g >
</g>
<g >
</g>
<g >
</g>
<g >
</g>
<g >
</g>
<g >
</g>
<g >
</g>
<g >
</g>
<g >
</g>
<g >
</g>
<g >
</g>
</g>
<g style="fill:#000000; fill-opacity:0.0; 
stroke:#000000; stroke-width:0.0500; stroke-opacity:1; 
stroke-linecap:round; stroke-linejoin:round;">
</g>
<g style="fill:#D0D2CD; fill-opacity:0.0; 
stroke:#D0D2CD; stroke-width:0.0500; stroke-opacity:1; 
stroke-linecap:round; stroke-linejoin:round;">
</g>
<g style="fill:#D0D2CD; fill-opacity:0.0; 
stroke:#D0D2CD; stroke-width:0.1000; stroke-opacity:1; 
stroke-linecap:round; stroke-linejoin:round;">
<path style="fill:#D0D2CD; fill-opacity:0.0; 
stroke:#D0D2CD; stroke-width:0.1000; stroke-opacity:1; 
stroke-linecap:round; stroke-linejoin:round;fill:none"
d="M 8.4669,0.0500
99.9069,0.0500
99.9069,71.1700
8.4669,71.1700
Z" /> 
<g >
</g>
<g >
</g>
<g >
</g>
<g >
</g>
<g >
</g>
<g >
</g>
<g >
</g>
<g >
</g>
<g >
</g>
<g >
</g>
<g >
</g>
<g >
</g>
<g >
</g>
<g >
</g>
<g >
</g>
<g >
</g>
<g >
</g>
<g >
</g>
<g >
</g>
<g >
</g>
<g >
</g>
<g >
</g>
<g >
</g>
</g> 
</svg>
