M48
; DRILL file {KiCad 7.0.9} date Fri Dec 15 12:27:49 2023
; FORMAT={-:-/ absolute / metric / decimal}
; #@! TF.CreationDate,2023-12-15T12:27:49+01:00
; #@! TF.GenerationSoftware,Kicad,Pcbnew,7.0.9
; #@! TF.FileFunction,MixedPlating,1,2
FMAT,2
METRIC
; #@! TA.AperFunction,Plated,PTH,ComponentDrill
T1C1.400
%
G90
G05
T1
X142.24Y-66.04
X142.24Y-73.66
X142.24Y-76.2
X142.24Y-78.74
X142.24Y-81.28
X142.24Y-86.36
X142.24Y-88.9
X144.78Y-66.04
X147.32Y-66.04
X149.86Y-66.04
X152.4Y-66.04
X154.94Y-66.04
X160.02Y-66.04
X162.56Y-66.04
X165.1Y-66.04
X165.1Y-96.52
X167.64Y-66.04
X167.64Y-96.52
X170.18Y-66.04
X170.18Y-96.52
X172.72Y-66.04
X172.72Y-96.52
X175.26Y-76.2
X175.26Y-78.74
X175.26Y-81.28
X175.26Y-86.36
X175.26Y-88.9
X175.26Y-91.44
T0
M30
